<svg width="59" height="80" viewBox="0 0 59 80" fill="none" xmlns="http://www.w3.org/2000/svg">
<g clip-path="url(#clip0_3_1329)">
<path d="M59.1831 2.20633C59.1895 1.27135 58.4367 0.508205 57.5017 0.501798C56.5667 0.49539 55.8036 1.24815 55.7972 2.18313C55.7908 3.11812 56.5435 3.88126 57.4785 3.88767C58.4135 3.89408 59.1767 3.14132 59.1831 2.20633Z" fill="white"/>
<path d="M59.0779 17.5581C59.0843 16.6232 58.3315 15.86 57.3966 15.8536C56.4616 15.8472 55.6984 16.6 55.692 17.5349C55.6856 18.4699 56.4384 19.2331 57.3734 19.2395C58.3083 19.2459 59.0715 18.4931 59.0779 17.5581Z" fill="white"/>
<path d="M58.9727 32.9036C58.9763 32.5673 58.8799 32.2374 58.6959 31.9558C58.5119 31.6743 58.2484 31.4536 57.9389 31.3219C57.6294 31.1901 57.2877 31.1532 56.9572 31.2158C56.6267 31.2784 56.3222 31.4376 56.0823 31.6734C55.8424 31.9092 55.6778 32.2108 55.6094 32.5402C55.5411 32.8696 55.572 33.2118 55.6983 33.5236C55.8246 33.8353 56.0406 34.1026 56.3189 34.2916C56.5972 34.4805 56.9253 34.5826 57.2617 34.5849C57.7113 34.588 58.1438 34.4128 58.4645 34.0976C58.7851 33.7825 58.9679 33.3532 58.9727 32.9036Z" fill="white"/>
<path d="M58.8676 48.249C58.8699 47.9129 58.7725 47.5837 58.5876 47.3029C58.4028 47.0222 58.1389 46.8026 57.8293 46.6718C57.5197 46.5411 57.1782 46.5051 56.8481 46.5684C56.518 46.6318 56.2141 46.7915 55.9748 47.0275C55.7356 47.2636 55.5716 47.5652 55.5038 47.8944C55.436 48.2236 55.4673 48.5655 55.5938 48.8769C55.7203 49.1883 55.9362 49.4552 56.2144 49.6438C56.4926 49.8325 56.8204 49.9344 57.1565 49.9367C57.3797 49.9383 57.601 49.8959 57.8078 49.8119C58.0145 49.7279 58.2027 49.604 58.3616 49.4473C58.5205 49.2905 58.647 49.1041 58.7338 48.8985C58.8206 48.6929 58.866 48.4722 58.8676 48.249Z" fill="white"/>
<path d="M58.7623 63.6009C58.7688 62.6659 58.016 61.9028 57.081 61.8964C56.146 61.8899 55.3829 62.6427 55.3765 63.5777C55.3701 64.5127 56.1228 65.2758 57.0578 65.2822C57.9928 65.2886 58.7559 64.5359 58.7623 63.6009Z" fill="white"/>
<path d="M58.4599 78.2971C58.1103 77.4299 57.1239 77.0104 56.2567 77.36C55.3895 77.7096 54.97 78.696 55.3196 79.5632C55.6692 80.4304 56.6556 80.85 57.5228 80.5003C58.39 80.1507 58.8095 79.1643 58.4599 78.2971Z" fill="white"/>
<path d="M45.4536 2.11222C45.46 1.17724 44.7072 0.414089 43.7722 0.407681C42.8372 0.401274 42.0741 1.15403 42.0677 2.08902C42.0613 3.024 42.814 3.78715 43.749 3.79355C44.684 3.79996 45.4472 3.0472 45.4536 2.11222Z" fill="white"/>
<path d="M45.3484 17.4641C45.3548 16.5291 44.602 15.7659 43.6671 15.7595C42.7321 15.7531 41.9689 16.5059 41.9625 17.4409C41.9561 18.3758 42.7089 19.139 43.6439 19.1454C44.5788 19.1518 45.342 18.399 45.3484 17.4641Z" fill="white"/>
<path d="M45.2433 32.8095C45.2469 32.4729 45.1504 32.1427 44.9661 31.861C44.7818 31.5793 44.5179 31.3587 44.208 31.2271C43.8981 31.0956 43.5562 31.059 43.2255 31.1221C42.8948 31.1852 42.5903 31.3451 42.3506 31.5815C42.1109 31.8179 41.9469 32.1203 41.8793 32.4501C41.8116 32.7798 41.8435 33.1223 41.9708 33.4339C42.098 33.7456 42.315 34.0124 42.5942 34.2006C42.8734 34.3887 43.2021 34.4898 43.5388 34.4908C43.9873 34.4922 44.4181 34.3162 44.7374 34.0012C45.0567 33.6863 45.2385 33.258 45.2433 32.8095Z" fill="white"/>
<path d="M45.1381 48.1549C45.1404 47.8185 45.0428 47.4891 44.8578 47.2082C44.6727 46.9273 44.4084 46.7077 44.0983 46.5771C43.7883 46.4466 43.4466 46.411 43.1163 46.4748C42.786 46.5386 42.4821 46.699 42.2431 46.9357C42.0041 47.1724 41.8407 47.4747 41.7735 47.8043C41.7064 48.1339 41.7387 48.476 41.8662 48.7873C41.9936 49.0986 42.2106 49.365 42.4896 49.5529C42.7687 49.7408 43.0972 49.8416 43.4335 49.8427C43.6564 49.8442 43.8774 49.8017 44.0838 49.7176C44.2902 49.6336 44.4779 49.5096 44.6363 49.3528C44.7947 49.196 44.9205 49.0095 45.0066 48.8039C45.0927 48.5984 45.1374 48.3778 45.1381 48.1549Z" fill="white"/>
<path d="M45.0328 63.5068C45.0393 62.5719 44.2865 61.8087 43.3515 61.8023C42.4165 61.7959 41.6534 62.5487 41.647 63.4836C41.6406 64.4186 42.3933 65.1818 43.3283 65.1882C44.2633 65.1946 45.0264 64.4418 45.0328 63.5068Z" fill="white"/>
<path d="M44.7354 78.2015C44.3857 77.3343 43.3993 76.9148 42.5321 77.2644C41.665 77.614 41.2454 78.6004 41.595 79.4676C41.9446 80.3348 42.931 80.7544 43.7982 80.4047C44.6654 80.0551 45.085 79.0687 44.7354 78.2015Z" fill="white"/>
<path d="M31.7241 2.01813C31.7305 1.08315 30.9778 0.320003 30.0428 0.313596C29.1078 0.307189 28.3447 1.05995 28.3383 1.99493C28.3319 2.92991 29.0846 3.69306 30.0196 3.69947C30.9546 3.70587 31.7177 2.95312 31.7241 2.01813Z" fill="white"/>
<path d="M31.6189 17.3699C31.6253 16.435 30.8726 15.6718 29.9376 15.6654C29.0026 15.659 28.2394 16.4118 28.233 17.3467C28.2266 18.2817 28.9794 19.0449 29.9144 19.0513C30.8494 19.0577 31.6125 18.3049 31.6189 17.3699Z" fill="white"/>
<path d="M31.5202 32.7154C31.5238 32.3791 31.4275 32.0492 31.2435 31.7677C31.0594 31.4861 30.7959 31.2654 30.4864 31.1337C30.1769 31.002 29.8353 30.9651 29.5048 31.0276C29.1743 31.0902 28.8698 31.2495 28.6298 31.4852C28.3899 31.721 28.2253 32.0227 28.157 32.352C28.0886 32.6814 28.1196 33.0236 28.2459 33.3354C28.3722 33.6472 28.5882 33.9145 28.8665 34.1034C29.1448 34.2923 29.4729 34.3944 29.8093 34.3967C30.2588 34.3998 30.6913 34.2246 31.012 33.9095C31.3327 33.5943 31.5155 33.165 31.5202 32.7154Z" fill="white"/>
<path d="M31.4151 48.0609C31.4174 47.7248 31.32 47.3955 31.1352 47.1148C30.9504 46.834 30.6865 46.6145 30.3768 46.4837C30.0672 46.353 29.7257 46.317 29.3956 46.3803C29.0656 46.4436 28.7616 46.6034 28.5223 46.8394C28.2831 47.0754 28.1192 47.3771 28.0513 47.7063C27.9835 48.0355 28.0148 48.3774 28.1413 48.6888C28.2678 49.0002 28.4838 49.267 28.762 49.4557C29.0401 49.6443 29.368 49.7463 29.7041 49.7486C29.9273 49.7501 30.1486 49.7077 30.3553 49.6237C30.5621 49.5397 30.7503 49.4158 30.9091 49.2591C31.068 49.1024 31.1945 48.9159 31.2813 48.7103C31.3681 48.5047 31.4136 48.284 31.4151 48.0609Z" fill="white"/>
<path d="M31.3034 63.4127C31.3098 62.4777 30.557 61.7146 29.622 61.7082C28.687 61.7018 27.9239 62.4545 27.9175 63.3895C27.9111 64.3245 28.6638 65.0877 29.5988 65.0941C30.5338 65.1005 31.2969 64.3477 31.3034 63.4127Z" fill="white"/>
<path d="M31.0113 78.1084C30.6616 77.2412 29.6752 76.8216 28.808 77.1713C27.9409 77.5209 27.5213 78.5073 27.8709 79.3745C28.2205 80.2416 29.2069 80.6612 30.0741 80.3116C30.9413 79.962 31.3609 78.9756 31.0113 78.1084Z" fill="white"/>
<path d="M18.0011 1.92411C18.0075 0.989125 17.2547 0.225978 16.3197 0.219571C15.3847 0.213164 14.6216 0.965923 14.6152 1.90091C14.6088 2.83589 15.3615 3.59904 16.2965 3.60544C17.2315 3.61185 17.9946 2.85909 18.0011 1.92411Z" fill="white"/>
<path d="M17.8958 17.2759C17.9022 16.3409 17.1495 15.5778 16.2145 15.5714C15.2795 15.565 14.5164 16.3177 14.51 17.2527C14.5035 18.1877 15.2563 18.9508 16.1913 18.9572C17.1263 18.9637 17.8894 18.2109 17.8958 17.2759Z" fill="white"/>
<path d="M17.7714 32.6213C17.775 32.2846 17.6785 31.9545 17.4942 31.6728C17.3099 31.391 17.046 31.1704 16.7362 31.0389C16.4263 30.9073 16.0843 30.8708 15.7536 30.9339C15.4229 30.997 15.1185 31.1569 14.8788 31.3933C14.6391 31.6297 14.475 31.932 14.4074 32.2618C14.3398 32.5916 14.3716 32.934 14.4989 33.2457C14.6262 33.5573 14.8432 33.8242 15.1223 34.0124C15.4015 34.2005 15.7303 34.3016 16.0669 34.3026C16.5154 34.304 16.9463 34.128 17.2656 33.813C17.5849 33.4981 17.7667 33.0697 17.7714 32.6213Z" fill="white"/>
<path d="M17.6663 47.9666C17.6686 47.6302 17.571 47.3008 17.386 47.0199C17.2009 46.739 16.9366 46.5194 16.6266 46.3888C16.3166 46.2583 15.9748 46.2227 15.6445 46.2865C15.3143 46.3503 15.0104 46.5107 14.7713 46.7474C14.5323 46.9841 14.3689 47.2864 14.3017 47.616C14.2346 47.9456 14.2669 48.2877 14.3943 48.599C14.5218 48.9103 14.7388 49.1767 15.0178 49.3646C15.2969 49.5525 15.6254 49.6533 15.9617 49.6544C16.1846 49.6559 16.4056 49.6134 16.612 49.5294C16.8184 49.4453 17.0061 49.3213 17.1645 49.1645C17.3229 49.0077 17.4488 48.8212 17.5349 48.6156C17.621 48.4101 17.6656 48.1895 17.6663 47.9666Z" fill="white"/>
<path d="M17.5803 63.3187C17.5867 62.3837 16.834 61.6205 15.899 61.6141C14.964 61.6077 14.2009 62.3605 14.1945 63.2955C14.1881 64.2305 14.9408 64.9936 15.8758 65C16.8108 65.0064 17.5739 64.2537 17.5803 63.3187Z" fill="white"/>
<path d="M17.2867 78.0128C16.9371 77.1456 15.9507 76.7261 15.0835 77.0757C14.2163 77.4253 13.7968 78.4117 14.1464 79.2789C14.496 80.1461 15.4824 80.5656 16.3496 80.216C17.2168 79.8664 17.6364 78.88 17.2867 78.0128Z" fill="white"/>
<path d="M4.27168 1.83002C4.27809 0.89504 3.52533 0.131893 2.59035 0.125485C1.65536 0.119078 0.892215 0.871837 0.885808 1.80682C0.879401 2.7418 1.63216 3.50495 2.56714 3.51136C3.50213 3.51776 4.26527 2.76501 4.27168 1.83002Z" fill="white"/>
<path d="M4.16646 17.1819C4.17286 16.2469 3.4201 15.4837 2.48512 15.4773C1.55014 15.4709 0.786991 16.2237 0.780583 17.1587C0.774176 18.0936 1.52694 18.8568 2.46192 18.8632C3.3969 18.8696 4.16005 18.1168 4.16646 17.1819Z" fill="white"/>
<path d="M4.06771 32.5273C4.07129 32.191 3.97497 31.8611 3.79094 31.5795C3.60691 31.298 3.34342 31.0773 3.03391 30.9456C2.72439 30.8139 2.38277 30.7769 2.05226 30.8395C1.72175 30.9021 1.41725 31.0614 1.17733 31.2971C0.9374 31.5329 0.772819 31.8346 0.704468 32.1639C0.636117 32.4933 0.667053 32.8355 0.793352 33.1473C0.91965 33.4591 1.13565 33.7263 1.41396 33.9153C1.69227 34.1042 2.02038 34.2063 2.35675 34.2086C2.80633 34.2117 3.23882 34.0365 3.5595 33.7213C3.88018 33.4062 4.06294 32.9769 4.06771 32.5273Z" fill="white"/>
<path d="M3.96259 47.8728C3.96489 47.5367 3.86749 47.2074 3.68267 46.9267C3.49786 46.6459 3.23396 46.4263 2.92433 46.2956C2.61469 46.1648 2.27322 46.1289 1.94313 46.1922C1.61304 46.2555 1.30912 46.4153 1.06983 46.6513C0.830546 46.8873 0.666642 47.189 0.598814 47.5182C0.530985 47.8474 0.562307 48.1893 0.688799 48.5007C0.815291 48.8121 1.03128 49.0789 1.30946 49.2676C1.58763 49.4562 1.91548 49.5582 2.25158 49.5605C2.47474 49.562 2.69605 49.5196 2.90281 49.4356C3.10957 49.3516 3.29774 49.2277 3.45662 49.071C3.6155 48.9143 3.74196 48.7278 3.82878 48.5222C3.91559 48.3166 3.96106 48.0959 3.96259 47.8728Z" fill="white"/>
<path d="M3.8509 63.2246C3.85731 62.2896 3.10455 61.5265 2.16957 61.5201C1.23459 61.5137 0.471439 62.2664 0.465032 63.2014C0.458624 64.1364 1.21138 64.8995 2.14637 64.9059C3.08135 64.9124 3.8445 64.1596 3.8509 63.2246Z" fill="white"/>
<path d="M3.55624 77.9196C3.20663 77.0524 2.22021 76.6329 1.35302 76.9825C0.485842 77.3321 0.0663011 78.3185 0.415915 79.1857C0.765529 80.0529 1.75191 80.4725 2.61909 80.1228C3.48628 79.7732 3.90585 78.7868 3.55624 77.9196Z" fill="white"/>
</g>
<defs>
<clipPath id="clip0_3_1329">
<rect width="95.48" height="58.2987" fill="white" transform="translate(0.243103 95.5916) rotate(-89.6074)"/>
</clipPath>
</defs>
</svg>
