<svg width="57" height="57" viewBox="0 0 57 57" fill="none" xmlns="http://www.w3.org/2000/svg">
<mask id="mask0_3_1308" style="mask-type:alpha" maskUnits="userSpaceOnUse" x="0" y="0" width="57" height="57">
<circle cx="28.2161" cy="28.2685" r="27.4719" fill="#C4C4C4" stroke="#F8BB54" stroke-width="0.768446"/>
</mask>
<g mask="url(#mask0_3_1308)">
<path d="M-15.8287 12.0946C-15.8287 12.0946 -2.85722 9.69178 0.489581 1.28189C3.69034 -6.77992 16.8752 -8.9469 16.8752 -8.9469" stroke="white" stroke-width="0.863757" stroke-miterlimit="10"/>
<path d="M-15.8287 16.1367C-15.8287 16.1367 0.0852736 13.3634 4.18449 3.21314C8.09279 -6.47676 24.2538 -8.9469 24.2538 -8.9469" stroke="white" stroke-width="0.863757" stroke-miterlimit="10"/>
<path d="M-15.8287 20.1901C-15.8287 20.1901 3.01649 17.035 7.86816 5.16684C12.4952 -6.18478 31.6324 -8.9469 31.6324 -8.9469" stroke="white" stroke-width="0.863757" stroke-miterlimit="10"/>
<path d="M-15.8287 24.2322C-15.8287 24.2322 5.95894 20.7066 11.5631 7.0981C16.8977 -5.88162 39.011 -8.9469 39.011 -8.9469" stroke="white" stroke-width="0.863757" stroke-miterlimit="10"/>
<path d="M-15.8287 28.2743C-15.8287 28.2743 8.9014 24.3782 15.258 9.04054C21.3001 -5.57845 46.3784 -8.9469 46.3784 -8.9469" stroke="white" stroke-width="0.863757" stroke-miterlimit="10"/>
<path d="M-15.8287 32.3277C-15.8287 32.3277 11.8326 28.061 18.9417 10.983C25.7138 -5.28656 53.7569 -8.9469 53.7569 -8.9469" stroke="white" stroke-width="0.863757" stroke-miterlimit="10"/>
<path d="M-15.8287 36.3698C-15.8287 36.3698 14.7751 31.7213 22.6366 12.9255C30.1163 -4.9834 61.1355 -8.9469 61.1355 -8.9469" stroke="white" stroke-width="0.863757" stroke-miterlimit="10"/>
<path d="M-15.8287 40.4119C-15.8287 40.4119 17.7176 35.3929 26.3202 14.8567C34.5187 -4.68023 68.5142 -8.9469 68.5142 -8.9469" stroke="white" stroke-width="0.863757" stroke-miterlimit="10"/>
<path d="M-15.8287 44.4653C-15.8287 44.4653 20.6487 39.0758 30.0152 16.8104C38.9212 -4.38833 75.8815 -8.9469 75.8815 -8.9469" stroke="white" stroke-width="0.863757" stroke-miterlimit="10"/>
<path d="M-15.8287 48.5071C-15.8287 48.5071 23.5912 42.7474 33.6989 18.7529C43.3236 -4.08517 83.2601 -8.9469 83.2601 -8.9469" stroke="white" stroke-width="0.863757" stroke-miterlimit="10"/>
<path d="M-15.8287 52.5605C-15.8287 52.5605 26.5336 46.4189 37.3938 20.6953C47.7261 -3.78201 90.6387 -8.9469 90.6387 -8.9469" stroke="white" stroke-width="0.863757" stroke-miterlimit="10"/>
<path d="M-15.8287 56.603C-15.8287 56.603 29.4649 50.0906 41.0774 22.6378C52.1285 -3.49003 98.0171 -8.9469 98.0171 -8.9469" stroke="white" stroke-width="0.863757" stroke-miterlimit="10"/>
<path d="M-15.8287 60.6446C-15.8287 60.6446 32.4073 53.7622 44.7724 24.569C56.531 -3.18687 105.396 -8.9469 105.396 -8.9469" stroke="white" stroke-width="0.863757" stroke-miterlimit="10"/>
<path d="M-15.8287 64.698C-15.8287 64.698 35.3498 57.4339 48.4673 26.5227C60.9334 -2.8837 112.763 -8.9469 112.763 -8.9469" stroke="white" stroke-width="0.863757" stroke-miterlimit="10"/>
<path d="M-15.8287 68.7405C-15.8287 68.7405 38.281 61.1055 52.151 28.454C65.3359 -2.59181 120.142 -8.9469 120.142 -8.9469" stroke="white" stroke-width="0.863757" stroke-miterlimit="10"/>
<path d="M-15.8287 72.783C-15.8287 72.783 41.2235 64.7771 55.8459 30.3964C69.7383 -2.28864 127.52 -8.9469 127.52 -8.9469" stroke="white" stroke-width="0.863757" stroke-miterlimit="10"/>
<path d="M-15.8287 76.8364C-15.8287 76.8364 44.1659 68.4596 59.5295 32.3389C74.1407 -1.98547 134.899 -8.9469 134.899 -8.9469" stroke="white" stroke-width="0.863757" stroke-miterlimit="10"/>
<path d="M-15.8287 80.878C-15.8287 80.878 47.0971 72.1203 63.2244 34.2814C78.5432 -1.69358 142.267 -8.9469 142.267 -8.9469" stroke="white" stroke-width="0.863757" stroke-miterlimit="10"/>
</g>
</svg>
