<svg width="158" height="54" viewBox="0 0 158 54" fill="none" xmlns="http://www.w3.org/2000/svg">
<rect x="1.12908" y="1.52642" width="156.215" height="51.1964" rx="8.53273" fill="black"/>
<rect x="1.12908" y="1.52642" width="156.215" height="51.1964" rx="8.53273" stroke="#A6A6A6" stroke-width="1.31273"/>
<path d="M107.494 26.0756V29.0831H105.609V31.0554H107.494V37.7569C107.494 40.0452 108.529 40.9605 111.133 40.9605C111.591 40.9605 112.027 40.906 112.408 40.8406V38.8901C112.081 38.9228 111.874 38.9446 111.515 38.9446C110.349 38.9446 109.837 38.3998 109.837 37.1575V31.0554H112.408V29.0831H109.837V26.0756H107.494Z" fill="white"/>
<path d="M119.043 41.1239C122.508 41.1239 124.633 38.8029 124.633 34.9564C124.633 31.1317 122.497 28.7998 119.043 28.7998C115.578 28.7998 113.442 31.1317 113.442 34.9564C113.442 38.8029 115.567 41.1239 119.043 41.1239ZM119.043 39.0427C117.005 39.0427 115.861 37.5498 115.861 34.9564C115.861 32.3848 117.005 30.8811 119.043 30.8811C121.069 30.8811 122.224 32.3848 122.224 34.9564C122.224 37.5389 121.069 39.0427 119.043 39.0427Z" fill="white"/>
<path d="M126.451 40.8951H128.793V33.8885C128.793 32.2213 130.047 31.099 131.823 31.099C132.237 31.099 132.934 31.1753 133.13 31.2406V28.9306C132.88 28.8652 132.433 28.8325 132.084 28.8325C130.537 28.8325 129.218 29.6824 128.881 30.8484H128.706V29.0286H126.451V40.8951Z" fill="white"/>
<path d="M138.947 30.7939C140.68 30.7939 141.813 32.0034 141.868 33.8667H135.875C136.005 32.0143 137.215 30.7939 138.947 30.7939ZM141.857 37.6915C141.421 38.6177 140.451 39.1298 139.035 39.1298C137.16 39.1298 135.951 37.8113 135.875 35.7301V35.5993H144.254V34.7821C144.254 31.0554 142.26 28.7998 138.958 28.7998C135.613 28.7998 133.488 31.208 133.488 35C133.488 38.792 135.569 41.1239 138.969 41.1239C141.682 41.1239 143.578 39.8163 144.112 37.6915H141.857Z" fill="white"/>
<path d="M92.1303 36.513C92.311 39.4269 94.7393 41.2904 98.3534 41.2904C102.216 41.2904 104.633 39.3365 104.633 36.2193C104.633 33.7685 103.255 32.4132 99.9119 31.634L98.1162 31.1935C95.9929 30.6965 95.1345 30.0302 95.1345 28.8669C95.1345 27.3987 96.4672 26.4387 98.4663 26.4387C100.364 26.4387 101.674 27.3761 101.911 28.8782H104.373C104.226 26.1337 101.809 24.2025 98.5002 24.2025C94.9425 24.2025 92.5708 26.1337 92.5708 29.0363C92.5708 31.4307 93.9148 32.8537 96.8625 33.5427L98.9632 34.0509C101.12 34.5591 102.069 35.3045 102.069 36.5469C102.069 37.9925 100.578 39.0429 98.5454 39.0429C96.3656 39.0429 94.8522 38.0603 94.6376 36.513H92.1303Z" fill="white"/>
<path d="M67.8615 28.8325C66.2488 28.8325 64.854 29.6388 64.1348 30.99H63.9605V29.0286H61.7049V44.8397H64.0477V39.0971H64.2329C64.854 40.3503 66.1943 41.0912 67.8833 41.0912C70.8799 41.0912 72.7868 38.7267 72.7868 34.9564C72.7868 31.1862 70.8799 28.8325 67.8615 28.8325ZM67.1968 38.9882C65.2354 38.9882 64.0041 37.4408 64.0041 34.9673C64.0041 32.4829 65.2354 30.9355 67.2077 30.9355C69.1909 30.9355 70.3786 32.4502 70.3786 34.9564C70.3786 37.4735 69.1909 38.9882 67.1968 38.9882Z" fill="white"/>
<path d="M80.9846 28.8325C79.3719 28.8325 77.9771 29.6388 77.2579 30.99H77.0836V29.0286H74.8279V44.8397H77.1707V39.0971H77.356C77.9771 40.3503 79.3174 41.0912 81.0064 41.0912C84.0029 41.0912 85.9099 38.7267 85.9099 34.9564C85.9099 31.1862 84.0029 28.8325 80.9846 28.8325ZM80.3199 38.9882C78.3585 38.9882 77.1271 37.4408 77.1271 34.9673C77.1271 32.4829 78.3585 30.9355 80.3308 30.9355C82.314 30.9355 83.5017 32.4502 83.5017 34.9564C83.5017 37.4735 82.314 38.9882 80.3199 38.9882Z" fill="white"/>
<path d="M57.5015 40.8951H60.1895L54.3053 24.5977H51.5834L45.6992 40.8951H48.2969L49.799 36.5695H56.0107L57.5015 40.8951ZM52.8145 27.5568H53.0065L55.3669 34.4462H50.4427L52.8145 27.5568Z" fill="white"/>
<path d="M47.2729 12.3051V20.1671H50.1115C52.4543 20.1671 53.8109 18.7233 53.8109 16.2116C53.8109 13.738 52.4434 12.3051 50.1115 12.3051H47.2729ZM48.4933 13.4166H49.9753C51.6043 13.4166 52.5687 14.4518 52.5687 16.2279C52.5687 18.0313 51.6207 19.0556 49.9753 19.0556H48.4933V13.4166Z" fill="white"/>
<path d="M57.9658 20.2815C59.6984 20.2815 60.7608 19.121 60.7608 17.1977C60.7608 15.2854 59.6929 14.1194 57.9658 14.1194C56.2332 14.1194 55.1654 15.2854 55.1654 17.1977C55.1654 19.121 56.2278 20.2815 57.9658 20.2815ZM57.9658 19.2409C56.947 19.2409 56.3749 18.4944 56.3749 17.1977C56.3749 15.9119 56.947 15.1601 57.9658 15.1601C58.9792 15.1601 59.5567 15.9119 59.5567 17.1977C59.5567 18.489 58.9792 19.2409 57.9658 19.2409Z" fill="white"/>
<path d="M69.8083 14.2338H68.6369L67.5799 18.7614H67.4873L66.2669 14.2338H65.1445L63.9241 18.7614H63.8369L62.7745 14.2338H61.5868L63.2213 20.1671H64.4254L65.6458 15.7975H65.7384L66.9643 20.1671H68.1793L69.8083 14.2338Z" fill="white"/>
<path d="M71.1573 20.1671H72.3287V16.6965C72.3287 15.7703 72.879 15.1928 73.7453 15.1928C74.6116 15.1928 75.0256 15.6668 75.0256 16.6202V20.1671H76.197V16.326C76.197 14.9149 75.4669 14.1194 74.143 14.1194C73.2495 14.1194 72.6611 14.5172 72.3723 15.1764H72.2851V14.2338H71.1573V20.1671Z" fill="white"/>
<path d="M78.0418 20.1671H79.2132V11.9183H78.0418V20.1671Z" fill="white"/>
<path d="M83.6187 20.2815C85.3513 20.2815 86.4137 19.121 86.4137 17.1977C86.4137 15.2854 85.3459 14.1194 83.6187 14.1194C81.8862 14.1194 80.8183 15.2854 80.8183 17.1977C80.8183 19.121 81.8807 20.2815 83.6187 20.2815ZM83.6187 19.2409C82.5999 19.2409 82.0278 18.4944 82.0278 17.1977C82.0278 15.9119 82.5999 15.1601 83.6187 15.1601C84.6321 15.1601 85.2096 15.9119 85.2096 17.1977C85.2096 18.489 84.6321 19.2409 83.6187 19.2409Z" fill="white"/>
<path d="M89.9039 19.279C89.2665 19.279 88.8034 18.9684 88.8034 18.4345C88.8034 17.9115 89.1739 17.6336 89.9911 17.5791L91.4404 17.4865V17.9823C91.4404 18.7178 90.7866 19.279 89.9039 19.279ZM89.6043 20.2651C90.3834 20.2651 91.0317 19.9274 91.3859 19.3335H91.4785V20.1671H92.6063V16.1135C92.6063 14.8604 91.7673 14.1194 90.2799 14.1194C88.9341 14.1194 87.9752 14.7732 87.8554 15.7921H88.9886C89.1194 15.3725 89.5716 15.1328 90.2254 15.1328C91.0263 15.1328 91.4404 15.487 91.4404 16.1135V16.6257L89.8331 16.7183C88.422 16.8055 87.6265 17.4211 87.6265 18.489C87.6265 19.5732 88.4601 20.2651 89.6043 20.2651Z" fill="white"/>
<path d="M96.5814 20.2651C97.3987 20.2651 98.0906 19.8783 98.4447 19.23H98.5374V20.1671H99.6597V11.9183H98.4883V15.1764H98.4011C98.0797 14.5226 97.3932 14.1358 96.5814 14.1358C95.0831 14.1358 94.1188 15.3235 94.1188 17.1977C94.1188 19.0774 95.0722 20.2651 96.5814 20.2651ZM96.9137 15.1873C97.8945 15.1873 98.5101 15.9664 98.5101 17.2032C98.5101 18.4454 97.8999 19.2136 96.9137 19.2136C95.9222 19.2136 95.3283 18.4563 95.3283 17.1977C95.3283 15.9501 95.9276 15.1873 96.9137 15.1873Z" fill="white"/>
<path d="M107.256 20.2815C108.988 20.2815 110.051 19.121 110.051 17.1977C110.051 15.2854 108.983 14.1194 107.256 14.1194C105.523 14.1194 104.455 15.2854 104.455 17.1977C104.455 19.121 105.518 20.2815 107.256 20.2815ZM107.256 19.2409C106.237 19.2409 105.665 18.4944 105.665 17.1977C105.665 15.9119 106.237 15.1601 107.256 15.1601C108.269 15.1601 108.847 15.9119 108.847 17.1977C108.847 18.489 108.269 19.2409 107.256 19.2409Z" fill="white"/>
<path d="M111.601 20.1671H112.773V16.6965C112.773 15.7703 113.323 15.1928 114.189 15.1928C115.056 15.1928 115.47 15.6668 115.47 16.6202V20.1671H116.641V16.326C116.641 14.9149 115.911 14.1194 114.587 14.1194C113.694 14.1194 113.105 14.5172 112.816 15.1764H112.729V14.2338H111.601V20.1671Z" fill="white"/>
<path d="M122.036 12.7573V14.2611H121.093V15.2472H122.036V18.598C122.036 19.7421 122.554 20.1998 123.856 20.1998C124.085 20.1998 124.303 20.1725 124.493 20.1398V19.1646C124.33 19.1809 124.226 19.1918 124.046 19.1918C123.463 19.1918 123.207 18.9194 123.207 18.2983V15.2472H124.493V14.2611H123.207V12.7573H122.036Z" fill="white"/>
<path d="M126.066 20.1671H127.237V16.7019C127.237 15.803 127.771 15.1982 128.73 15.1982C129.558 15.1982 129.999 15.6777 129.999 16.6257V20.1671H131.171V16.3369C131.171 14.9258 130.392 14.1249 129.128 14.1249C128.234 14.1249 127.607 14.5226 127.319 15.1873H127.226V11.9183H126.066V20.1671Z" fill="white"/>
<path d="M135.396 15.1165C136.263 15.1165 136.829 15.7212 136.857 16.6529H133.86C133.925 15.7267 134.53 15.1165 135.396 15.1165ZM136.851 18.5653C136.633 19.0284 136.148 19.2844 135.44 19.2844C134.503 19.2844 133.898 18.6252 133.86 17.5846V17.5192H138.05V17.1106C138.05 15.2472 137.053 14.1194 135.402 14.1194C133.729 14.1194 132.667 15.3235 132.667 17.2195C132.667 19.1156 133.707 20.2815 135.407 20.2815C136.764 20.2815 137.712 19.6277 137.979 18.5653H136.851Z" fill="white"/>
<path d="M32.9876 27.5195C33.0161 25.3128 34.2012 23.2248 36.0812 22.069C34.8951 20.3751 32.9086 19.3012 30.8419 19.2365C28.6375 19.0051 26.5004 20.5556 25.3771 20.5556C24.2321 20.5556 22.5025 19.2595 20.6401 19.2978C18.2126 19.3762 15.9495 20.7564 14.7684 22.8788C12.2296 27.2743 14.1233 33.7343 16.5553 37.2874C17.7721 39.0272 19.1941 40.9706 21.0548 40.9017C22.8757 40.8262 23.5557 39.7406 25.7536 39.7406C27.9311 39.7406 28.5691 40.9017 30.4676 40.8579C32.4214 40.8262 33.6525 39.1103 34.8265 37.354C35.7008 36.1143 36.3735 34.7442 36.8198 33.2944C34.5237 32.3232 32.9903 30.0125 32.9876 27.5195Z" fill="white"/>
<path d="M29.4017 16.8999C30.467 15.621 30.9919 13.9772 30.8648 12.3176C29.2372 12.4886 27.7338 13.2664 26.6541 14.4962C25.5983 15.6978 25.0488 17.3127 25.1527 18.9088C26.7809 18.9256 28.3815 18.1688 29.4017 16.8999Z" fill="white"/>
</svg>
