<svg width="103" height="27" viewBox="0 0 103 27" fill="none" xmlns="http://www.w3.org/2000/svg">
<path opacity="0.7" d="M25.9511 9.80821C26.7136 10.5707 26.7136 11.8069 25.9511 12.5694L12.098 26.4225C11.3355 27.185 10.0993 27.185 9.33677 26.4225L0.618981 17.7047C-0.143502 16.9423 -0.143501 15.706 0.618982 14.9435L14.4721 1.09042C15.2346 0.327933 16.4708 0.327935 17.2333 1.09042L25.9511 9.80821Z" fill="#FFF7E6"/>
<path opacity="0.7" d="M29.2051 12.5694C29.9676 11.8069 29.9676 10.5707 29.2051 9.80821L22.7949 3.39801L25.1025 1.09042C25.865 0.327933 27.1013 0.327935 27.8637 1.09042L36.5815 9.80821C37.344 10.5707 37.344 11.8069 36.5815 12.5694L22.7284 26.4225C21.9659 27.185 20.7297 27.185 19.9672 26.4225L17.6596 24.1149L29.2051 12.5694Z" fill="#FFF7E6"/>
<g opacity="0.7">
<path d="M51.8686 14.7316C52.6045 14.8688 53.2094 15.2367 53.6834 15.8354C54.1574 16.4341 54.3944 17.1202 54.3944 17.8935C54.3944 18.592 54.2197 19.2094 53.8705 19.7457C53.5337 20.2696 53.041 20.6812 52.3924 20.9806C51.7438 21.2799 50.9767 21.4296 50.0911 21.4296H44.4595V8.37028H49.8479C50.7335 8.37028 51.4944 8.51372 52.1305 8.8006C52.7791 9.08748 53.2655 9.48662 53.5898 9.99802C53.9266 10.5094 54.095 11.0894 54.095 11.738C54.095 12.4989 53.8892 13.135 53.4776 13.6464C53.0784 14.1578 52.5421 14.5195 51.8686 14.7316ZM47.0789 13.7587H49.4737C50.0974 13.7587 50.5776 13.6215 50.9144 13.347C51.2511 13.0602 51.4195 12.6548 51.4195 12.1309C51.4195 11.607 51.2511 11.2017 50.9144 10.9148C50.5776 10.6279 50.0974 10.4845 49.4737 10.4845H47.0789V13.7587ZM49.7169 19.2967C50.3531 19.2967 50.8458 19.147 51.195 18.8477C51.5567 18.5483 51.7376 18.1242 51.7376 17.5754C51.7376 17.0141 51.5505 16.5776 51.1763 16.2657C50.8021 15.9414 50.2969 15.7793 49.6608 15.7793H47.0789V19.2967H49.7169Z" fill="#FFF7E6"/>
<path d="M60.3361 21.598C59.3383 21.598 58.4402 21.3797 57.6419 20.9432C56.8437 20.4941 56.2138 19.8642 55.7523 19.0535C55.3032 18.2427 55.0787 17.3072 55.0787 16.247C55.0787 15.1868 55.3095 14.2513 55.771 13.4406C56.245 12.6298 56.8873 12.0062 57.6981 11.5696C58.5088 11.1206 59.4131 10.8961 60.411 10.8961C61.4088 10.8961 62.3131 11.1206 63.1239 11.5696C63.9346 12.0062 64.5707 12.6298 65.0322 13.4406C65.5062 14.2513 65.7432 15.1868 65.7432 16.247C65.7432 17.3072 65.5 18.2427 65.0135 19.0535C64.5396 19.8642 63.891 20.4941 63.0677 20.9432C62.257 21.3797 61.3464 21.598 60.3361 21.598ZM60.3361 19.3154C60.8101 19.3154 61.2529 19.2032 61.6645 18.9786C62.0886 18.7417 62.4254 18.3924 62.6748 17.9309C62.9243 17.4694 63.049 16.9081 63.049 16.247C63.049 15.2617 62.7871 14.507 62.2632 13.9832C61.7518 13.4468 61.1219 13.1787 60.3735 13.1787C59.6252 13.1787 58.9953 13.4468 58.4839 13.9832C57.985 14.507 57.7355 15.2617 57.7355 16.247C57.7355 17.2324 57.9787 17.9933 58.4652 18.5296C58.9641 19.0535 59.5877 19.3154 60.3361 19.3154Z" fill="#FFF7E6"/>
<path d="M69.5356 12.6735C69.8723 12.1247 70.3089 11.6944 70.8452 11.3825C71.3941 11.0707 72.0177 10.9148 72.7162 10.9148V13.6651H72.024C71.2007 13.6651 70.5771 13.8584 70.153 14.2451C69.7414 14.6318 69.5356 15.3053 69.5356 16.2657V21.4296H66.9162V11.0645H69.5356V12.6735Z" fill="#FFF7E6"/>
<path d="M73.0585 16.2096C73.0585 15.1619 73.2643 14.2326 73.676 13.4219C74.1 12.6111 74.6738 11.9875 75.3972 11.5509C76.1207 11.1144 76.9252 10.8961 77.8108 10.8961C78.4843 10.8961 79.1267 11.0458 79.7379 11.3451C80.3491 11.632 80.8355 12.0187 81.1972 12.5051V7.58447H83.854V21.4296H81.1972V19.8954C80.8729 20.4068 80.4177 20.8184 79.8314 21.1303C79.2452 21.4421 78.5654 21.598 77.7921 21.598C76.919 21.598 76.1207 21.3735 75.3972 20.9244C74.6738 20.4754 74.1 19.8455 73.676 19.0348C73.2643 18.2115 73.0585 17.2698 73.0585 16.2096ZM81.2159 16.247C81.2159 15.6109 81.0912 15.0683 80.8418 14.6193C80.5923 14.1578 80.2555 13.8085 79.8314 13.5716C79.4073 13.3221 78.9521 13.1974 78.4656 13.1974C77.9792 13.1974 77.5301 13.3159 77.1185 13.5528C76.7069 13.7898 76.3701 14.1391 76.1082 14.6006C75.8588 15.0496 75.734 15.586 75.734 16.2096C75.734 16.8333 75.8588 17.3821 76.1082 17.8561C76.3701 18.3176 76.7069 18.6731 77.1185 18.9225C77.5426 19.172 77.9916 19.2967 78.4656 19.2967C78.9521 19.2967 79.4073 19.1782 79.8314 18.9412C80.2555 18.6918 80.5923 18.3425 80.8418 17.8935C81.0912 17.432 81.2159 16.8832 81.2159 16.247Z" fill="#FFF7E6"/>
<path d="M95.2993 16.0225C95.2993 16.3967 95.2744 16.7335 95.2245 17.0328H87.6471C87.7095 17.7812 87.9714 18.3675 88.4329 18.7915C88.8944 19.2156 89.4619 19.4277 90.1355 19.4277C91.1084 19.4277 91.8006 19.0098 92.2122 18.1741H95.0374C94.7381 19.172 94.1643 19.9952 93.3161 20.6438C92.4679 21.2799 91.4264 21.598 90.1916 21.598C89.1938 21.598 88.2957 21.3797 87.4974 20.9432C86.7116 20.4941 86.0942 19.8642 85.6452 19.0535C85.2086 18.2427 84.9903 17.3072 84.9903 16.247C84.9903 15.1744 85.2086 14.2326 85.6452 13.4219C86.0817 12.6111 86.6929 11.9875 87.4787 11.5509C88.2645 11.1144 89.1688 10.8961 90.1916 10.8961C91.177 10.8961 92.0563 11.1081 92.8297 11.5322C93.6155 11.9563 94.2204 12.5612 94.6445 13.347C95.0811 14.1204 95.2993 15.0122 95.2993 16.0225ZM92.5864 15.2741C92.574 14.6006 92.3307 14.0642 91.8568 13.6651C91.3828 13.2535 90.8028 13.0477 90.1168 13.0477C89.4682 13.0477 88.9194 13.2473 88.4703 13.6464C88.0338 14.0331 87.7656 14.5756 87.6658 15.2741H92.5864Z" fill="#FFF7E6"/>
<path d="M99.0822 12.6735C99.419 12.1247 99.8555 11.6944 100.392 11.3825C100.941 11.0707 101.564 10.9148 102.263 10.9148V13.6651H101.571C100.747 13.6651 100.124 13.8584 99.6996 14.2451C99.288 14.6318 99.0822 15.3053 99.0822 16.2657V21.4296H96.4628V11.0645H99.0822V12.6735Z" fill="#FFF7E6"/>
</g>
</svg>
