<svg width="199" height="159" viewBox="0 0 199 159" fill="none" xmlns="http://www.w3.org/2000/svg">
<g opacity="0.8" clip-path="url(#clip0_24_571)">
<path fill-rule="evenodd" clip-rule="evenodd" d="M24.6743 45.3015C24.4273 45.3015 24.1838 45.3157 23.9444 45.3433C23.3994 45.4061 22.9084 45.0004 22.8476 44.4371C22.7869 43.8739 23.1795 43.3664 23.7244 43.3037C24.0367 43.2677 24.3537 43.2493 24.6743 43.2493H25.6612C26.2095 43.2493 26.6541 43.7087 26.6541 44.2754C26.6541 44.8421 26.2095 45.3015 25.6612 45.3015H24.6743ZM29.6028 44.2754C29.6028 43.7087 30.0473 43.2493 30.5957 43.2493H32.5695C33.1178 43.2493 33.5624 43.7087 33.5624 44.2754C33.5624 44.8421 33.1178 45.3015 32.5695 45.3015H30.5957C30.0473 45.3015 29.6028 44.8421 29.6028 44.2754ZM36.5111 44.2754C36.5111 43.7087 36.9556 43.2493 37.504 43.2493H39.4778C40.0261 43.2493 40.4707 43.7087 40.4707 44.2754C40.4707 44.8421 40.0261 45.3015 39.4778 45.3015H37.504C36.9556 45.3015 36.5111 44.8421 36.5111 44.2754ZM43.4194 44.2754C43.4194 43.7087 43.8639 43.2493 44.4123 43.2493H46.3861C46.9344 43.2493 47.379 43.7087 47.379 44.2754C47.379 44.8421 46.9344 45.3015 46.3861 45.3015H44.4123C43.8639 45.3015 43.4194 44.8421 43.4194 44.2754ZM50.3277 44.2754C50.3277 43.7087 50.7722 43.2493 51.3206 43.2493H53.2944C53.8427 43.2493 54.2873 43.7087 54.2873 44.2754C54.2873 44.8421 53.8427 45.3015 53.2944 45.3015H51.3206C50.7722 45.3015 50.3277 44.8421 50.3277 44.2754ZM57.236 44.2754C57.236 43.7087 57.6805 43.2493 58.2289 43.2493H60.2027C60.751 43.2493 61.1956 43.7087 61.1956 44.2754C61.1956 44.8421 60.751 45.3015 60.2027 45.3015H58.2289C57.6805 45.3015 57.236 44.8421 57.236 44.2754ZM64.1443 44.2754C64.1443 43.7087 64.5888 43.2493 65.1372 43.2493H67.111C67.6593 43.2493 68.1038 43.7087 68.1038 44.2754C68.1038 44.8421 67.6593 45.3015 67.111 45.3015H65.1372C64.5888 45.3015 64.1443 44.8421 64.1443 44.2754ZM71.0526 44.2754C71.0526 43.7087 71.4971 43.2493 72.0455 43.2493H74.0193C74.5676 43.2493 75.0121 43.7087 75.0121 44.2754C75.0121 44.8421 74.5676 45.3015 74.0193 45.3015H72.0455C71.4971 45.3015 71.0526 44.8421 71.0526 44.2754ZM77.9609 44.2754C77.9609 43.7087 78.4054 43.2493 78.9538 43.2493H80.9276C81.4759 43.2493 81.9204 43.7087 81.9204 44.2754C81.9204 44.8421 81.4759 45.3015 80.9276 45.3015H78.9538C78.4054 45.3015 77.9609 44.8421 77.9609 44.2754ZM84.8692 44.2754C84.8692 43.7087 85.3137 43.2493 85.8621 43.2493H87.8359C88.3842 43.2493 88.8287 43.7087 88.8287 44.2754C88.8287 44.8421 88.3842 45.3015 87.8359 45.3015H85.8621C85.3137 45.3015 84.8692 44.8421 84.8692 44.2754ZM91.7775 44.2754C91.7775 43.7087 92.222 43.2493 92.7704 43.2493H94.7442C95.2925 43.2493 95.737 43.7087 95.737 44.2754C95.737 44.8421 95.2925 45.3015 94.7442 45.3015H92.7704C92.222 45.3015 91.7775 44.8421 91.7775 44.2754ZM98.6858 44.2754C98.6858 43.7087 99.1303 43.2493 99.6786 43.2493H101.652C102.201 43.2493 102.645 43.7087 102.645 44.2754C102.645 44.8421 102.201 45.3015 101.652 45.3015H99.6786C99.1303 45.3015 98.6858 44.8421 98.6858 44.2754ZM105.594 44.2754C105.594 43.7087 106.039 43.2493 106.587 43.2493H108.561C109.109 43.2493 109.554 43.7087 109.554 44.2754C109.554 44.8421 109.109 45.3015 108.561 45.3015H106.587C106.039 45.3015 105.594 44.8421 105.594 44.2754ZM112.502 44.2754C112.502 43.7087 112.947 43.2493 113.495 43.2493H115.469C116.017 43.2493 116.462 43.7087 116.462 44.2754C116.462 44.8421 116.017 45.3015 115.469 45.3015H113.495C112.947 45.3015 112.502 44.8421 112.502 44.2754ZM119.411 44.2754C119.411 43.7087 119.855 43.2493 120.404 43.2493H122.377C122.926 43.2493 123.37 43.7087 123.37 44.2754C123.37 44.8421 122.926 45.3015 122.377 45.3015H120.404C119.855 45.3015 119.411 44.8421 119.411 44.2754ZM126.319 44.2754C126.319 43.7087 126.763 43.2493 127.312 43.2493H129.286C129.834 43.2493 130.279 43.7087 130.279 44.2754C130.279 44.8421 129.834 45.3015 129.286 45.3015H127.312C126.763 45.3015 126.319 44.8421 126.319 44.2754ZM133.227 44.2754C133.227 43.7087 133.672 43.2493 134.22 43.2493H136.194C136.742 43.2493 137.187 43.7087 137.187 44.2754C137.187 44.8421 136.742 45.3015 136.194 45.3015H134.22C133.672 45.3015 133.227 44.8421 133.227 44.2754ZM140.136 44.2754C140.136 43.7087 140.58 43.2493 141.128 43.2493H143.102C143.651 43.2493 144.095 43.7087 144.095 44.2754C144.095 44.8421 143.651 45.3015 143.102 45.3015H141.128C140.58 45.3015 140.136 44.8421 140.136 44.2754ZM147.044 44.2754C147.044 43.7087 147.488 43.2493 148.037 43.2493H150.011C150.559 43.2493 151.003 43.7087 151.003 44.2754C151.003 44.8421 150.559 45.3015 150.011 45.3015H148.037C147.488 45.3015 147.044 44.8421 147.044 44.2754ZM153.952 44.2754C153.952 43.7087 154.397 43.2493 154.945 43.2493H155.932C156.253 43.2493 156.569 43.2676 156.881 43.3032C157.426 43.3656 157.819 43.8728 157.759 44.4361C157.698 44.9994 157.208 45.4054 156.663 45.343C156.423 45.3157 156.18 45.3015 155.932 45.3015H154.945C154.397 45.3015 153.952 44.8421 153.952 44.2754ZM159.832 45.3223C160.174 44.8795 160.799 44.8073 161.227 45.161C161.724 45.5711 162.175 46.0375 162.571 46.5506C162.913 46.9937 162.842 47.6394 162.413 47.9927C161.985 48.346 161.36 48.2732 161.018 47.8301C160.714 47.4365 160.369 47.0788 159.988 46.7645C159.56 46.4108 159.49 45.7651 159.832 45.3223ZM20.7749 45.3241C21.1167 45.7672 21.0463 46.4129 20.6176 46.7662C20.2368 47.08 19.8907 47.4373 19.5865 47.8308C19.2443 48.2736 18.6195 48.3459 18.1911 47.9922C17.7626 47.6385 17.6927 46.9928 18.035 46.55C18.4318 46.0366 18.8831 45.5708 19.3796 45.1616C19.8083 44.8083 20.433 44.881 20.7749 45.3241ZM17.3336 50.1348C17.8786 50.1972 18.2715 50.7044 18.2111 51.2676C18.1846 51.5149 18.171 51.7668 18.171 52.0227V53.0758C18.171 53.6425 17.7265 54.1019 17.1781 54.1019C16.6298 54.1019 16.1852 53.6425 16.1852 53.0758V52.0227C16.1852 51.6913 16.2029 51.364 16.2375 51.0417C16.2978 50.4784 16.7886 50.0724 17.3336 50.1348ZM163.272 50.1349C163.817 50.0721 164.308 50.4778 164.368 51.041C164.403 51.3638 164.421 51.6914 164.421 52.0227V53.0758C164.421 53.6425 163.976 54.1019 163.428 54.1019C162.88 54.1019 162.435 53.6425 162.435 53.0758V52.0227C162.435 51.7675 162.422 51.5158 162.395 51.2684C162.334 50.7051 162.727 50.1977 163.272 50.1349ZM163.428 57.3147C163.976 57.3147 164.421 57.7741 164.421 58.3408V60.4468C164.421 61.0136 163.976 61.473 163.428 61.473C162.88 61.473 162.435 61.0136 162.435 60.4468V58.3408C162.435 57.7741 162.88 57.3147 163.428 57.3147ZM17.1781 57.3147C17.7265 57.3147 18.171 57.7741 18.171 58.3408V60.4469C18.171 61.0136 17.7265 61.473 17.1781 61.473C16.6298 61.473 16.1852 61.0136 16.1852 60.4469V58.3408C16.1852 57.7741 16.6298 57.3147 17.1781 57.3147ZM163.428 64.6858C163.976 64.6858 164.421 65.1452 164.421 65.7119V67.8179C164.421 68.3847 163.976 68.8441 163.428 68.8441C162.88 68.8441 162.435 68.3847 162.435 67.8179V65.7119C162.435 65.1452 162.88 64.6858 163.428 64.6858ZM17.1781 64.6858C17.7265 64.6858 18.171 65.1452 18.171 65.7119V67.8179C18.171 68.3847 17.7265 68.8441 17.1781 68.8441C16.6298 68.8441 16.1852 68.3847 16.1852 67.8179V65.7119C16.1852 65.1452 16.6298 64.6858 17.1781 64.6858ZM163.428 72.0569C163.976 72.0569 164.421 72.5163 164.421 73.083V75.189C164.421 75.7557 163.976 76.2152 163.428 76.2152C162.88 76.2152 162.435 75.7557 162.435 75.189V73.083C162.435 72.5163 162.88 72.0569 163.428 72.0569ZM17.1781 72.0569C17.7265 72.0569 18.171 72.5163 18.171 73.083V75.189C18.171 75.7557 17.7265 76.2152 17.1781 76.2152C16.6298 76.2152 16.1852 75.7557 16.1852 75.189V73.083C16.1852 72.5163 16.6298 72.0569 17.1781 72.0569ZM163.428 79.4279C163.976 79.4279 164.421 79.8874 164.421 80.4541V82.5601C164.421 83.1268 163.976 83.5862 163.428 83.5862C162.88 83.5862 162.435 83.1268 162.435 82.5601V80.4541C162.435 79.8874 162.88 79.4279 163.428 79.4279ZM17.1781 79.4279C17.7265 79.4279 18.171 79.8874 18.171 80.4541V82.5601C18.171 83.1268 17.7265 83.5862 17.1781 83.5862C16.6298 83.5862 16.1852 83.1268 16.1852 82.5601V80.4541C16.1852 79.8874 16.6298 79.4279 17.1781 79.4279ZM163.428 86.799C163.976 86.799 164.421 87.2584 164.421 87.8252V89.9312C164.421 90.4979 163.976 90.9573 163.428 90.9573C162.88 90.9573 162.435 90.4979 162.435 89.9312V87.8252C162.435 87.2584 162.88 86.799 163.428 86.799ZM17.1781 86.799C17.7265 86.799 18.171 87.2585 18.171 87.8252V89.9312C18.171 90.4979 17.7265 90.9573 17.1781 90.9573C16.6298 90.9573 16.1852 90.4979 16.1852 89.9312V87.8252C16.1852 87.2585 16.6298 86.799 17.1781 86.799ZM163.428 94.1701C163.976 94.1701 164.421 94.6295 164.421 95.1963V97.3023C164.421 97.869 163.976 98.3284 163.428 98.3284C162.88 98.3284 162.435 97.869 162.435 97.3023V95.1963C162.435 94.6295 162.88 94.1701 163.428 94.1701ZM17.1781 94.1701C17.7265 94.1701 18.171 94.6295 18.171 95.1963V97.3023C18.171 97.869 17.7265 98.3284 17.1781 98.3284C16.6298 98.3284 16.1852 97.869 16.1852 97.3023V95.1963C16.1852 94.6295 16.6298 94.1701 17.1781 94.1701ZM163.428 101.541C163.976 101.541 164.421 102.001 164.421 102.567V104.673C164.421 105.24 163.976 105.7 163.428 105.7C162.88 105.7 162.435 105.24 162.435 104.673V102.567C162.435 102.001 162.88 101.541 163.428 101.541ZM17.1781 101.541C17.7265 101.541 18.171 102.001 18.171 102.567V104.673C18.171 105.24 17.7265 105.7 17.1781 105.7C16.6298 105.7 16.1852 105.24 16.1852 104.673V102.567C16.1852 102.001 16.6298 101.541 17.1781 101.541ZM163.428 108.912C163.976 108.912 164.421 109.372 164.421 109.938V112.044C164.421 112.611 163.976 113.071 163.428 113.071C162.88 113.071 162.435 112.611 162.435 112.044V109.938C162.435 109.372 162.88 108.912 163.428 108.912ZM17.1781 108.912C17.7265 108.912 18.171 109.372 18.171 109.938V112.044C18.171 112.611 17.7265 113.071 17.1781 113.071C16.6298 113.071 16.1852 112.611 16.1852 112.044V109.938C16.1852 109.372 16.6298 108.912 17.1781 108.912ZM163.428 116.283C163.976 116.283 164.421 116.743 164.421 117.31V119.416C164.421 119.982 163.976 120.442 163.428 120.442C162.88 120.442 162.435 119.982 162.435 119.416V117.31C162.435 116.743 162.88 116.283 163.428 116.283ZM17.1781 116.283C17.7265 116.283 18.171 116.743 18.171 117.31V119.416C18.171 119.982 17.7265 120.442 17.1781 120.442C16.6298 120.442 16.1852 119.982 16.1852 119.416V117.31C16.1852 116.743 16.6298 116.283 17.1781 116.283ZM163.428 123.654C163.976 123.654 164.421 124.114 164.421 124.681V126.787C164.421 127.353 163.976 127.813 163.428 127.813C162.88 127.813 162.435 127.353 162.435 126.787V124.681C162.435 124.114 162.88 123.654 163.428 123.654ZM17.1781 123.654C17.7265 123.654 18.171 124.114 18.171 124.681V126.787C18.171 127.353 17.7265 127.813 17.1781 127.813C16.6298 127.813 16.1852 127.353 16.1852 126.787V124.681C16.1852 124.114 16.6298 123.654 17.1781 123.654ZM163.428 131.026C163.976 131.026 164.421 131.485 164.421 132.052V134.158C164.421 134.724 163.976 135.184 163.428 135.184C162.88 135.184 162.435 134.724 162.435 134.158V132.052C162.435 131.485 162.88 131.026 163.428 131.026ZM17.1781 131.026C17.7265 131.026 18.171 131.485 18.171 132.052V134.158C18.171 134.724 17.7265 135.184 17.1781 135.184C16.6298 135.184 16.1852 134.724 16.1852 134.158V132.052C16.1852 131.485 16.6298 131.026 17.1781 131.026ZM163.428 138.397C163.976 138.397 164.421 138.856 164.421 139.423V140.476C164.421 140.807 164.403 141.135 164.369 141.457C164.308 142.02 163.818 142.426 163.273 142.364C162.728 142.301 162.335 141.794 162.395 141.231C162.422 140.984 162.435 140.732 162.435 140.476V139.423C162.435 138.856 162.88 138.397 163.428 138.397ZM17.1781 138.397C17.7265 138.397 18.171 138.856 18.171 139.423V140.476C18.171 140.731 18.1847 140.983 18.2114 141.23C18.2721 141.793 17.8796 142.301 17.3346 142.364C16.7896 142.426 16.2986 142.021 16.2379 141.457C16.2031 141.135 16.1852 140.807 16.1852 140.476V139.423C16.1852 138.856 16.6298 138.397 17.1781 138.397ZM162.415 144.506C162.844 144.86 162.913 145.506 162.571 145.949C162.174 146.462 161.723 146.928 161.227 147.337C160.798 147.69 160.173 147.617 159.831 147.174C159.489 146.731 159.56 146.086 159.989 145.732C160.369 145.419 160.716 145.061 161.02 144.668C161.362 144.225 161.987 144.153 162.415 144.506ZM18.1929 144.506C18.6216 144.153 19.2463 144.225 19.5882 144.668C19.8918 145.062 20.2375 145.42 20.6183 145.734C21.0467 146.088 21.1166 146.733 20.7744 147.176C20.4322 147.619 19.8074 147.691 19.379 147.338C18.8822 146.927 18.4315 146.461 18.0356 145.948C17.6937 145.505 17.7641 144.859 18.1929 144.506ZM157.759 148.061C157.819 148.625 157.427 149.132 156.882 149.195C156.57 149.231 156.253 149.249 155.932 149.249H154.945C154.397 149.249 153.952 148.79 153.952 148.223C153.952 147.656 154.397 147.197 154.945 147.197H155.932C156.179 147.197 156.422 147.183 156.662 147.155C157.207 147.092 157.698 147.498 157.759 148.061ZM22.8475 148.062C22.9079 147.499 23.3986 147.093 23.9437 147.155C24.1829 147.183 24.4267 147.197 24.6743 147.197H25.6612C26.2096 147.197 26.6541 147.656 26.6541 148.223C26.6541 148.79 26.2096 149.249 25.6612 149.249H24.6743C24.3536 149.249 24.0369 149.231 23.7251 149.195C23.18 149.133 22.7872 148.626 22.8475 148.062ZM29.6028 148.223C29.6028 147.656 30.0474 147.197 30.5957 147.197H32.5695C33.1178 147.197 33.5624 147.656 33.5624 148.223C33.5624 148.79 33.1178 149.249 32.5695 149.249H30.5957C30.0474 149.249 29.6028 148.79 29.6028 148.223ZM36.5111 148.223C36.5111 147.656 36.9556 147.197 37.504 147.197H39.4778C40.0261 147.197 40.4707 147.656 40.4707 148.223C40.4707 148.79 40.0261 149.249 39.4778 149.249H37.504C36.9556 149.249 36.5111 148.79 36.5111 148.223ZM43.4194 148.223C43.4194 147.656 43.8639 147.197 44.4123 147.197H46.3861C46.9344 147.197 47.379 147.656 47.379 148.223C47.379 148.79 46.9344 149.249 46.3861 149.249H44.4123C43.8639 149.249 43.4194 148.79 43.4194 148.223ZM50.3277 148.223C50.3277 147.656 50.7722 147.197 51.3206 147.197H53.2944C53.8427 147.197 54.2873 147.656 54.2873 148.223C54.2873 148.79 53.8427 149.249 53.2944 149.249H51.3206C50.7722 149.249 50.3277 148.79 50.3277 148.223ZM57.236 148.223C57.236 147.656 57.6805 147.197 58.2289 147.197H60.2027C60.751 147.197 61.1956 147.656 61.1956 148.223C61.1956 148.79 60.751 149.249 60.2027 149.249H58.2289C57.6805 149.249 57.236 148.79 57.236 148.223ZM64.1443 148.223C64.1443 147.656 64.5888 147.197 65.1372 147.197H67.111C67.6593 147.197 68.1038 147.656 68.1038 148.223C68.1038 148.79 67.6593 149.249 67.111 149.249H65.1372C64.5888 149.249 64.1443 148.79 64.1443 148.223ZM71.0526 148.223C71.0526 147.656 71.4971 147.197 72.0455 147.197H74.0193C74.5676 147.197 75.0121 147.656 75.0121 148.223C75.0121 148.79 74.5676 149.249 74.0193 149.249H72.0455C71.4971 149.249 71.0526 148.79 71.0526 148.223ZM77.9609 148.223C77.9609 147.656 78.4054 147.197 78.9538 147.197H80.9276C81.4759 147.197 81.9204 147.656 81.9204 148.223C81.9204 148.79 81.4759 149.249 80.9276 149.249H78.9538C78.4054 149.249 77.9609 148.79 77.9609 148.223ZM84.8692 148.223C84.8692 147.656 85.3137 147.197 85.8621 147.197H87.8359C88.3842 147.197 88.8287 147.656 88.8287 148.223C88.8287 148.79 88.3842 149.249 87.8359 149.249H85.8621C85.3137 149.249 84.8692 148.79 84.8692 148.223ZM91.7775 148.223C91.7775 147.656 92.222 147.197 92.7704 147.197H94.7442C95.2925 147.197 95.737 147.656 95.737 148.223C95.737 148.79 95.2925 149.249 94.7442 149.249H92.7704C92.222 149.249 91.7775 148.79 91.7775 148.223ZM98.6858 148.223C98.6858 147.656 99.1303 147.197 99.6787 147.197H101.652C102.201 147.197 102.645 147.656 102.645 148.223C102.645 148.79 102.201 149.249 101.652 149.249H99.6787C99.1303 149.249 98.6858 148.79 98.6858 148.223ZM105.594 148.223C105.594 147.656 106.039 147.197 106.587 147.197H108.561C109.109 147.197 109.554 147.656 109.554 148.223C109.554 148.79 109.109 149.249 108.561 149.249H106.587C106.039 149.249 105.594 148.79 105.594 148.223ZM112.502 148.223C112.502 147.656 112.947 147.197 113.495 147.197H115.469C116.017 147.197 116.462 147.656 116.462 148.223C116.462 148.79 116.017 149.249 115.469 149.249H113.495C112.947 149.249 112.502 148.79 112.502 148.223ZM119.411 148.223C119.411 147.656 119.855 147.197 120.404 147.197H122.377C122.926 147.197 123.37 147.656 123.37 148.223C123.37 148.79 122.926 149.249 122.377 149.249H120.404C119.855 149.249 119.411 148.79 119.411 148.223ZM126.319 148.223C126.319 147.656 126.763 147.197 127.312 147.197H129.286C129.834 147.197 130.279 147.656 130.279 148.223C130.279 148.79 129.834 149.249 129.286 149.249H127.312C126.763 149.249 126.319 148.79 126.319 148.223ZM133.227 148.223C133.227 147.656 133.672 147.197 134.22 147.197H136.194C136.742 147.197 137.187 147.656 137.187 148.223C137.187 148.79 136.742 149.249 136.194 149.249H134.22C133.672 149.249 133.227 148.79 133.227 148.223ZM140.136 148.223C140.136 147.656 140.58 147.197 141.128 147.197H143.102C143.651 147.197 144.095 147.656 144.095 148.223C144.095 148.79 143.651 149.249 143.102 149.249H141.128C140.58 149.249 140.136 148.79 140.136 148.223ZM147.044 148.223C147.044 147.656 147.488 147.197 148.037 147.197H150.011C150.559 147.197 151.003 147.656 151.003 148.223C151.003 148.79 150.559 149.249 150.011 149.249H148.037C147.488 149.249 147.044 148.79 147.044 148.223Z" fill="#999999"/>
<path d="M192.459 118.442L38.7809 121.541C34.8499 121.599 31.6559 118.212 31.6559 113.965V7.54703C31.6559 3.29952 34.8499 0.0277813 38.7809 0.199978L192.459 10.3022C195.591 10.4744 198.171 13.6887 198.171 17.477V111.496C198.11 115.285 195.591 118.384 192.459 118.442Z" fill="#FFD493"/>
<path d="M163.946 71.9636V120.178C163.946 128.699 156.831 135.671 147.835 136.215L146.701 136.249H84.6196C75.4763 136.249 67.9951 129.618 67.4113 121.235L67.3746 120.178V71.9636H163.946ZM94.9665 104.106C91.1569 104.106 88.0685 106.985 88.0685 110.535C88.0685 114.085 91.1569 116.964 94.9665 116.964C98.7762 116.964 101.865 114.085 101.865 110.535C101.865 106.985 98.7762 104.106 94.9665 104.106ZM115.661 104.106C111.851 104.106 108.763 106.985 108.763 110.535C108.763 114.085 111.851 116.964 115.661 116.964C119.47 116.964 122.559 114.085 122.559 110.535C122.559 106.985 119.47 104.106 115.661 104.106ZM94.9665 84.8207C91.1569 84.8207 88.0685 87.6989 88.0685 91.2493C88.0685 94.7997 91.1569 97.6778 94.9665 97.6778C98.7762 97.6778 101.865 94.7997 101.865 91.2493C101.865 87.6989 98.7762 84.8207 94.9665 84.8207ZM115.661 84.8207C111.851 84.8207 108.763 87.6989 108.763 91.2493C108.763 94.7997 111.851 97.6778 115.661 97.6778C119.47 97.6778 122.559 94.7997 122.559 91.2493C122.559 87.6989 119.47 84.8207 115.661 84.8207ZM136.354 84.8207C132.545 84.8207 129.456 87.6989 129.456 91.2493C129.456 94.7997 132.545 97.6778 136.354 97.6778C140.164 97.6778 143.252 94.7997 143.252 91.2493C143.252 87.6989 140.164 84.8207 136.354 84.8207ZM146.701 46.2493C155.845 46.2493 163.326 52.8805 163.91 61.264L163.946 62.3207V65.535H67.3746V62.3207C67.3746 53.7997 74.4901 46.8276 83.4857 46.2835L84.6196 46.2493H146.701Z" fill="#B8884B"/>
</g>
<defs>
<clipPath id="clip0_24_571">
<rect width="198.359" height="158" fill="white" transform="translate(0.188599 0.249268)"/>
</clipPath>
</defs>
</svg>
