<svg width="87" height="79" viewBox="0 0 87 79" fill="none" xmlns="http://www.w3.org/2000/svg">
<g opacity="0.7" clip-path="url(#clip0_24_429)">
<path d="M53.528 30.1083L27.6561 29.3779C17.5832 29.1431 9.07202 38.169 9.07202 49.4643V69.3942C9.07202 70.7507 10.1652 71.8202 11.4666 71.7419L53.554 69.7855C62.1433 69.2898 68.9106 60.7596 68.9106 50.8469V48.5252C68.8845 38.5863 62.1172 30.317 53.528 30.1083Z" fill="#FFD493"/>
<path fill-rule="evenodd" clip-rule="evenodd" d="M21.3573 42.0759C21.3604 41.7878 21.596 41.5567 21.8835 41.5598L58.0885 41.9511C58.376 41.9542 58.6065 42.1903 58.6034 42.4785C58.6003 42.7666 58.3648 42.9976 58.0773 42.9945L21.8722 42.6032C21.5848 42.6001 21.3542 42.364 21.3573 42.0759ZM58.0833 51.3943L21.8782 51.4204C21.5907 51.4206 21.3575 51.1872 21.3573 50.8991C21.3571 50.6109 21.59 50.3772 21.8775 50.377L58.0825 50.3509C58.37 50.3507 58.6033 50.5841 58.6035 50.8722C58.6037 51.1604 58.3708 51.3941 58.0833 51.3943ZM58.6034 58.7666C58.609 59.0547 58.3805 59.2928 58.093 59.2984L21.888 60.0027C21.6005 60.0083 21.363 59.7793 21.3574 59.4912C21.3518 59.2031 21.5803 58.965 21.8678 58.9594L58.0728 58.2551C58.3603 58.2495 58.5978 58.4785 58.6034 58.7666Z" fill="#DD7E10"/>
<path opacity="0.7" d="M53.528 30.1079L43.1428 29.847C42.44 31.7513 42.0496 33.8643 42.0496 36.1077V37.0468C42.0496 46.0205 48.3224 53.3247 55.7664 53.2464L68.7544 53.116C68.8325 52.3595 68.8846 51.603 68.8846 50.8204V48.4987C68.8846 38.5859 62.1173 30.3166 53.528 30.1079Z" fill="#DCA553"/>
<path d="M74.949 17.1435L59.4883 16.2565C52.0963 15.8392 45.8496 22.7781 45.8496 31.6735V32.6126C45.8496 41.1167 51.5237 48.0557 58.4732 48.6035L58.4472 48.6296C58.4732 48.6296 80.7012 48.4209 84.8397 48.3687C86.037 48.3687 87 47.3774 87 46.1775V32.6126C87 24.4998 81.6642 17.5087 74.949 17.1435Z" fill="#FFBE5C"/>
<path fill-rule="evenodd" clip-rule="evenodd" d="M61.4666 32.4304C61.4666 31.2043 60.5556 30.2131 59.4364 30.2392C58.3172 30.2392 57.4062 31.2304 57.4062 32.4565C57.4062 33.6825 58.3172 34.6477 59.4364 34.6477C60.5296 34.6477 61.4666 33.6564 61.4666 32.4304ZM69.5873 32.6394C69.5873 31.4133 68.6763 30.4221 67.5311 30.4221C66.3859 30.4221 65.4749 31.4394 65.4749 32.6655C65.4749 33.8915 66.3859 34.8828 67.5311 34.8828C68.6763 34.8567 69.5873 33.8655 69.5873 32.6394ZM75.7039 30.6044C76.8492 30.6044 77.7862 31.5956 77.7862 32.8217C77.7862 34.0738 76.8752 35.0651 75.7039 35.0651C74.5587 35.0651 73.6217 34.0738 73.6217 32.8478C73.6217 31.6217 74.5587 30.6044 75.7039 30.6044Z" fill="white"/>
<path fill-rule="evenodd" clip-rule="evenodd" d="M0.118286 7.0999C0.118286 3.15969 3.31855 -0.0477295 7.24998 -0.0477295H27.7341C31.6909 -0.0477295 34.8637 3.13216 34.8918 7.07009L34.8918 7.07381V14.8214C34.8918 18.5862 31.9702 21.682 28.2807 21.9502V26.2211C28.2807 26.4321 28.1538 26.6224 27.9593 26.7031C27.7648 26.7839 27.5409 26.7392 27.392 26.59L22.7813 21.9691H7.24998C3.31855 21.9691 0.118286 18.7616 0.118286 14.8214V7.0999ZM7.24998 0.99572C3.89355 0.99572 1.15941 3.73597 1.15941 7.0999V14.8214C1.15941 18.1854 3.89355 20.9256 7.24998 20.9256H22.997C23.135 20.9256 23.2674 20.9806 23.3651 21.0784L27.2395 24.9616V21.4473C27.2395 21.1592 27.4726 20.9256 27.7601 20.9256C31.1165 20.9256 33.8507 18.1854 33.8507 14.8214V7.07563C33.8257 3.71029 31.1165 0.99572 27.7341 0.99572H7.24998Z" fill="#999999"/>
<path fill-rule="evenodd" clip-rule="evenodd" d="M7.79657 11.1437C7.79657 9.87591 8.82205 8.84814 10.087 8.84814C11.352 8.84814 12.3775 9.87591 12.3775 11.1437C12.3775 12.4116 11.352 13.4393 10.087 13.4393C8.82205 13.4393 7.79657 12.4116 7.79657 11.1437ZM10.087 9.89159C9.39704 9.89159 8.83769 10.4522 8.83769 11.1437C8.83769 11.8353 9.39704 12.3959 10.087 12.3959C10.777 12.3959 11.3364 11.8353 11.3364 11.1437C11.3364 10.4522 10.777 9.89159 10.087 9.89159Z" fill="#999999"/>
<path fill-rule="evenodd" clip-rule="evenodd" d="M15.2146 11.1437C15.2146 9.87591 16.2401 8.84814 17.5051 8.84814C18.7701 8.84814 19.7955 9.87591 19.7955 11.1437C19.7955 12.4116 18.7701 13.4393 17.5051 13.4393C16.2401 13.4393 15.2146 12.4116 15.2146 11.1437ZM17.5051 9.89159C16.8151 9.89159 16.2557 10.4522 16.2557 11.1437C16.2557 11.8353 16.8151 12.3959 17.5051 12.3959C18.1951 12.3959 18.7544 11.8353 18.7544 11.1437C18.7544 10.4522 18.1951 9.89159 17.5051 9.89159Z" fill="#999999"/>
<path fill-rule="evenodd" clip-rule="evenodd" d="M22.6064 11.1437C22.6064 9.87591 23.6319 8.84814 24.8969 8.84814C26.1618 8.84814 27.1873 9.87591 27.1873 11.1437C27.1873 12.4116 26.1618 13.4393 24.8969 13.4393C23.6319 13.4393 22.6064 12.4116 22.6064 11.1437ZM24.8969 9.89159C24.2069 9.89159 23.6475 10.4522 23.6475 11.1437C23.6475 11.8353 24.2069 12.3959 24.8969 12.3959C25.5869 12.3959 26.1462 11.8353 26.1462 11.1437C26.1462 10.4522 25.5869 9.89159 24.8969 9.89159Z" fill="#999999"/>
<path fill-rule="evenodd" clip-rule="evenodd" d="M76.0941 61.281C76.3816 61.281 76.6147 61.5146 76.6147 61.8027V63.707C76.6147 63.9952 76.3816 64.2288 76.0941 64.2288C75.8066 64.2288 75.5735 63.9952 75.5735 63.707V61.8027C75.5735 61.5146 75.8066 61.281 76.0941 61.281ZM71.6433 65.7422C71.6433 65.454 71.8764 65.2204 72.1639 65.2204H74.0639C74.3514 65.2204 74.5845 65.454 74.5845 65.7422C74.5845 66.0303 74.3514 66.2639 74.0639 66.2639H72.1639C71.8764 66.2639 71.6433 66.0303 71.6433 65.7422ZM77.6298 65.7422C77.6298 65.454 77.8628 65.2204 78.1503 65.2204H80.0504C80.3379 65.2204 80.5709 65.454 80.5709 65.7422C80.5709 66.0303 80.3379 66.2639 80.0504 66.2639H78.1503C77.8628 66.2639 77.6298 66.0303 77.6298 65.7422ZM76.0941 67.1239C76.3816 67.1239 76.6147 67.3575 76.6147 67.6456V69.7065C76.6147 69.9946 76.3816 70.2282 76.0941 70.2282C75.8066 70.2282 75.5736 69.9946 75.5736 69.7065V67.6456C75.5736 67.3575 75.8066 67.1239 76.0941 67.1239Z" fill="#999999"/>
</g>
<defs>
<clipPath id="clip0_24_429">
<rect width="87" height="79" fill="white"/>
</clipPath>
</defs>
</svg>
