<svg width="96" height="79" viewBox="0 0 96 79" fill="none" xmlns="http://www.w3.org/2000/svg">
<g opacity="0.66" clip-path="url(#clip0_24_321)">
<path fill-rule="evenodd" clip-rule="evenodd" d="M6.01714 27.3081C3.36738 27.3081 1.19151 29.4856 1.19151 32.1372V69.5184C1.19151 72.1701 3.36738 74.3476 6.01714 74.3476H63.6565C66.3096 74.3476 68.4789 72.1979 68.4524 69.5243L68.4524 69.5184V32.1372C68.4524 29.4856 66.2765 27.3081 63.6268 27.3081H6.01714ZM63.6565 75.5399H6.01714C2.70933 75.5399 0 72.8286 0 69.5184V32.1372C0 28.827 2.70933 26.1157 6.01714 26.1157H63.6268C66.9346 26.1157 69.6439 28.827 69.6439 32.1372V69.5153C69.6755 72.8619 66.9601 75.5399 63.6565 75.5399Z" fill="#999999"/>
<path d="M6.19574 33.7174C7.05121 33.7174 7.74471 33.0235 7.74471 32.1674C7.74471 31.3114 7.05121 30.6174 6.19574 30.6174C5.34027 30.6174 4.64677 31.3114 4.64677 32.1674C4.64677 33.0235 5.34027 33.7174 6.19574 33.7174Z" fill="#999999"/>
<path d="M11.23 33.7174C12.0855 33.7174 12.7789 33.0235 12.7789 32.1674C12.7789 31.3114 12.0855 30.6174 11.23 30.6174C10.3745 30.6174 9.68102 31.3114 9.68102 32.1674C9.68102 33.0235 10.3745 33.7174 11.23 33.7174Z" fill="#999999"/>
<path d="M16.2643 33.7174C17.1197 33.7174 17.8132 33.0235 17.8132 32.1674C17.8132 31.3114 17.1197 30.6174 16.2643 30.6174C15.4088 30.6174 14.7153 31.3114 14.7153 32.1674C14.7153 33.0235 15.4088 33.7174 16.2643 33.7174Z" fill="#999999"/>
<path fill-rule="evenodd" clip-rule="evenodd" d="M0.0892639 37.7111C0.0892639 37.3819 0.355993 37.115 0.68502 37.115H68.8693C69.1983 37.115 69.4651 37.3819 69.4651 37.7111C69.4651 38.0404 69.1983 38.3073 68.8693 38.3073H0.68502C0.355993 38.3073 0.0892639 38.0404 0.0892639 37.7111Z" fill="#999999"/>
<path d="M77.5567 69.0074L12.9469 72.5845C10.7724 72.7038 8.98512 71.0344 8.98512 68.8583V18.9572C8.98512 16.7811 10.7724 15.1117 12.9469 15.231L77.5567 18.8081C79.2248 18.8976 80.5652 20.5073 80.5652 22.3853V65.4302C80.5652 67.3082 79.2248 68.918 77.5567 69.0074Z" fill="#FFD493"/>
<path fill-rule="evenodd" clip-rule="evenodd" d="M16.6406 20.5071C16.6406 21.5206 15.8363 22.2956 14.8235 22.2359C13.8107 22.2061 13.0065 21.3417 13.0065 20.3283C13.0065 19.3148 13.8405 18.5398 14.8235 18.5994C15.8065 18.6292 16.6406 19.4936 16.6406 20.5071ZM22.5087 20.745C22.5087 21.7287 21.7045 22.5037 20.7215 22.4739C19.7385 22.4441 18.9342 21.5797 18.9342 20.596C18.9342 19.6123 19.7385 18.8373 20.7215 18.8672C21.7045 18.9268 22.5087 19.7614 22.5087 20.745ZM26.5003 22.7124C27.4535 22.772 28.228 21.997 28.228 21.0134C28.228 20.0297 27.4535 19.1951 26.5003 19.1653C25.5173 19.1057 24.7428 19.8807 24.7428 20.8643C24.7428 21.848 25.5471 22.6826 26.5003 22.7124Z" fill="#DD7E10"/>
<path fill-rule="evenodd" clip-rule="evenodd" d="M21.9129 65.8476V36.3958C19.8873 36.1275 17.5341 36.1871 14.8234 36.7535V66.1755L21.9129 65.8476ZM28.7343 39.1388V65.5799L23.0746 65.8183V36.605C25.2789 37.082 27.1258 38.0061 28.7343 39.1388ZM35.5855 46.2335C35.5557 46.2037 35.5334 46.1739 35.511 46.1441C35.4887 46.1142 35.4663 46.0844 35.4366 46.0546C35.2222 45.7941 35.0073 45.5307 34.7911 45.2655C33.3247 43.4675 31.7949 41.5918 29.9258 40.0331V65.5203L35.5855 65.2818V46.2335ZM42.4367 49.1546C40.4409 49.1248 38.5047 48.7969 36.777 47.3958V65.2219L42.4367 64.9834V49.1546ZM49.2879 48.9456C47.8777 48.8574 46.4675 48.9486 45.0814 49.0383L45.0813 49.0383C44.5936 49.0698 44.1089 49.1012 43.6282 49.1244V64.9235L49.2879 64.685V48.9456ZM61.5307 64.1783L57.3306 64.3571V53.0295C61.5009 57.7692 61.5307 64.1783 61.5307 64.1783ZM54.888 50.8534C55.3348 51.1515 55.7519 51.4794 56.1391 51.8371V64.4167L50.4794 64.6552V49.0946C51.9688 49.3331 53.4284 49.8399 54.888 50.8534Z" fill="#FFD493"/>
<path fill-rule="evenodd" clip-rule="evenodd" d="M14.7937 29.5991C15.1228 29.5991 15.3895 29.866 15.3895 30.1953V65.5509L73.2098 62.8672C73.5385 62.8519 73.8173 63.1062 73.8325 63.4351C73.8478 63.764 73.5937 64.0431 73.265 64.0583L14.8213 66.771C14.6587 66.7785 14.5001 66.7191 14.3824 66.6066C14.2646 66.4942 14.198 66.3383 14.198 66.1754V30.1953C14.198 29.866 14.4647 29.5991 14.7937 29.5991Z" fill="#DD7E10"/>
<path fill-rule="evenodd" clip-rule="evenodd" d="M14.7969 29.2415C14.979 29.2424 15.1507 29.3267 15.2629 29.4702L17.4076 32.2127C17.6104 32.472 17.5648 32.8467 17.3056 33.0496C17.0465 33.2526 16.6721 33.2069 16.4693 32.9476L14.7886 30.7984L13.1142 32.8929C12.9087 33.1501 12.5338 33.1917 12.2769 32.9861C12.0199 32.7804 11.9783 32.4052 12.1838 32.1481L14.3285 29.4652C14.4423 29.3229 14.6148 29.2405 14.7969 29.2415ZM70.0914 60.9445C70.2969 60.6874 70.6718 60.6457 70.9287 60.8514L73.6096 62.9977C73.7528 63.1123 73.8353 63.2866 73.8332 63.47C73.8311 63.6535 73.7447 63.8258 73.599 63.9371L70.8287 66.0536C70.5672 66.2534 70.1933 66.2032 69.9937 65.9415C69.794 65.6798 69.8442 65.3057 70.1057 65.1059L72.2701 63.4523L70.1844 61.7825C69.9275 61.5768 69.8858 61.2017 70.0914 60.9445Z" fill="#DD7E10"/>
<path fill-rule="evenodd" clip-rule="evenodd" d="M57.8375 29.1597C57.8498 28.8307 58.1262 28.5739 58.455 28.5861L73.6468 29.1525C73.9756 29.1648 74.2322 29.4414 74.22 29.7705C74.2077 30.0995 73.9313 30.3563 73.6025 30.3441L58.4107 29.7777C58.0819 29.7654 57.8253 29.4887 57.8375 29.1597ZM57.8373 34.5324C57.8457 34.2033 58.1191 33.9432 58.448 33.9516L73.6398 34.3391C73.9687 34.3475 74.2286 34.6212 74.2202 34.9503C74.2118 35.2795 73.9384 35.5395 73.6095 35.5311L58.4177 35.1436C58.0888 35.1352 57.8289 34.8616 57.8373 34.5324ZM57.8371 39.9992C57.8391 39.67 58.1073 39.4046 58.4364 39.4066L73.6282 39.496C73.9572 39.4979 74.2223 39.7664 74.2204 40.0957C74.2185 40.4249 73.9502 40.6903 73.6211 40.6884L58.4294 40.5989C58.1003 40.597 57.8352 40.3285 57.8371 39.9992Z" fill="#DD7E10"/>
<path fill-rule="evenodd" clip-rule="evenodd" d="M56.586 29.2112C56.586 29.9266 55.9903 30.493 55.2754 30.4632C54.5604 30.4334 53.9647 29.8074 53.9647 29.0919C53.9647 28.3765 54.5604 27.7803 55.2754 27.8399C56.02 27.8697 56.586 28.4957 56.586 29.2112ZM56.586 34.5177C56.586 35.2331 55.9903 35.7995 55.2754 35.7697C54.5604 35.7399 53.9647 35.1139 53.9647 34.3985C53.9647 33.6532 54.5604 33.0868 55.2754 33.1465C56.02 33.1763 56.586 33.8023 56.586 34.5177ZM55.2754 41.0758C55.9903 41.1056 56.586 40.5393 56.586 39.8238C56.586 39.1084 56.02 38.4824 55.2754 38.4526C54.5604 38.393 53.9647 38.9892 53.9647 39.7046C53.9647 40.42 54.5604 41.046 55.2754 41.0758Z" fill="#DD7E10"/>
<path d="M80.5653 39.7638V22.355C80.5653 20.477 79.2248 18.8673 77.5567 18.7779L65.4927 18.1221C64.9267 19.851 64.599 21.729 64.599 23.7263C64.599 32.7287 71.1226 39.9725 78.927 39.883C79.4631 39.9128 80.0291 39.8532 80.5653 39.7638Z" fill="#DCA553" fill-opacity="0.7"/>
<path d="M95.9654 22.9228C95.9654 14.4569 90.0376 7.21314 82.4715 6.766C74.6671 6.31886 68.1436 13.2347 68.1436 22.2371C68.1436 31.2396 74.6671 38.4833 82.4715 38.3939C90.0376 38.3343 95.9654 31.3887 95.9654 22.9228Z" fill="#FFD493"/>
<path d="M93.2549 13.4735C90.8123 9.65788 86.9398 7.03464 82.4717 6.76636V22.5952L93.2549 13.4735Z" fill="#FFBE5C"/>
<path d="M93.2549 13.4736L82.4717 22.5954L95.9656 22.9233C95.9656 19.4057 94.9528 16.1267 93.2549 13.4736V13.4736Z" fill="#FFBE5C"/>
<path d="M82.5012 22.5949V6.766C74.6967 6.31886 68.1732 13.2347 68.1732 22.2371L82.5012 22.5949Z" fill="#FFD493"/>
<path fill-rule="evenodd" clip-rule="evenodd" d="M64.599 -0.209839C64.928 -0.209839 65.1947 0.0570848 65.1947 0.386352V2.53264C65.1947 2.86191 64.928 3.12883 64.599 3.12883C64.2699 3.12883 64.0032 2.86191 64.0032 2.53264V0.386352C64.0032 0.0570848 64.2699 -0.209839 64.599 -0.209839ZM59.4755 4.88806C59.4755 4.55879 59.7422 4.29187 60.0712 4.29187H62.2457C62.5748 4.29187 62.8415 4.55879 62.8415 4.88806C62.8415 5.21732 62.5748 5.48425 62.2457 5.48425H60.0712C59.7422 5.48425 59.4755 5.21732 59.4755 4.88806ZM66.3267 4.88806C66.3267 4.55879 66.5934 4.29187 66.9224 4.29187H69.0969C69.426 4.29187 69.6927 4.55879 69.6927 4.88806C69.6927 5.21732 69.426 5.48425 69.0969 5.48425H66.9224C66.5934 5.48425 66.3267 5.21732 66.3267 4.88806ZM64.599 6.46703C64.928 6.46703 65.1947 6.73395 65.1947 7.06322V9.38837C65.1947 9.71763 64.928 9.98456 64.599 9.98456C64.2699 9.98456 64.0032 9.71763 64.0032 9.38837V7.06322C64.0032 6.73395 64.2699 6.46703 64.599 6.46703Z" fill="#999999"/>
</g>
<defs>
<clipPath id="clip0_24_321">
<rect width="96" height="79" fill="white"/>
</clipPath>
</defs>
</svg>
