<svg width="178" height="54" viewBox="0 0 178 54" fill="none" xmlns="http://www.w3.org/2000/svg">
<rect x="0.656364" y="1.52642" width="175.905" height="51.1964" rx="5.90727" fill="black"/>
<rect x="0.656364" y="1.52642" width="175.905" height="51.1964" rx="5.90727" stroke="#A6A6A6" stroke-width="1.31273"/>
<path d="M89.444 29.4234C86.3564 29.4234 83.8399 31.7718 83.8399 35.0064C83.8399 38.2213 86.3564 40.5894 89.444 40.5894C92.5328 40.5894 95.0493 38.2213 95.0493 35.0064C95.048 31.7718 92.5315 29.4234 89.444 29.4234ZM89.444 38.3919C87.7519 38.3919 86.2934 36.9965 86.2934 35.0077C86.2934 32.9979 87.7532 31.6235 89.444 31.6235C91.1361 31.6235 92.5945 32.9979 92.5945 35.0077C92.5945 36.9952 91.1361 38.3919 89.444 38.3919ZM77.2172 29.4234C74.1297 29.4234 71.6132 31.7718 71.6132 35.0064C71.6132 38.2213 74.1297 40.5894 77.2172 40.5894C80.3061 40.5894 82.8226 38.2213 82.8226 35.0064C82.8226 31.7718 80.3061 29.4234 77.2172 29.4234ZM77.2172 38.3919C75.5251 38.3919 74.0667 36.9965 74.0667 35.0077C74.0667 32.9979 75.5264 31.6235 77.2172 31.6235C78.9093 31.6235 80.3678 32.9979 80.3678 35.0077C80.3691 36.9952 78.9093 38.3919 77.2172 38.3919ZM62.6748 31.1378V33.5059H68.3432C68.1739 34.8384 67.7302 35.8111 67.0528 36.4871C66.2284 37.3115 64.938 38.2213 62.6748 38.2213C59.1856 38.2213 56.4578 35.4081 56.4578 31.9189C56.4578 28.4296 59.1856 25.6165 62.6748 25.6165C64.5573 25.6165 65.9317 26.3568 66.9465 27.3086L68.6176 25.6375C67.1998 24.284 65.3187 23.2483 62.6748 23.2483C57.8952 23.2483 53.8769 27.1392 53.8769 31.9189C53.8769 36.6985 57.8952 40.5894 62.6748 40.5894C65.2544 40.5894 67.2011 39.7427 68.7226 38.1569C70.2874 36.5922 70.7744 34.392 70.7744 32.6159C70.7744 32.0672 70.7324 31.5592 70.647 31.1365H62.6748V31.1378ZM122.152 32.9769C121.687 31.7298 120.269 29.4234 117.372 29.4234C114.496 29.4234 112.106 31.6865 112.106 35.0064C112.106 38.1359 114.475 40.5894 117.647 40.5894C120.205 40.5894 121.686 39.0247 122.3 38.1149L120.397 36.8455C119.763 37.7762 118.895 38.3893 117.647 38.3893C116.4 38.3893 115.511 37.8183 114.94 36.6972L122.405 33.6096L122.152 32.9769ZM114.538 34.8384C114.475 32.6802 116.209 31.5815 117.458 31.5815C118.43 31.5815 119.255 32.0685 119.53 32.7656L114.538 34.8384ZM108.469 40.252H110.922V23.8416H108.469V40.252ZM104.45 30.6718H104.366C103.816 30.0154 102.758 29.4234 101.427 29.4234C98.6344 29.4234 96.0759 31.8768 96.0759 35.0287C96.0759 38.1582 98.6344 40.5907 101.427 40.5907C102.759 40.5907 103.816 39.9987 104.366 39.3226H104.45V40.126C104.45 42.2618 103.308 43.4039 101.469 43.4039C99.9668 43.4039 99.0361 42.3262 98.6554 41.4164L96.5196 42.3052C97.1326 43.7846 98.7604 45.604 101.469 45.604C104.345 45.604 106.777 43.9119 106.777 39.7873V29.7634H104.451V30.6718H104.45ZM101.638 38.3919C99.9458 38.3919 98.5294 36.9742 98.5294 35.0287C98.5294 33.0609 99.9458 31.6235 101.638 31.6235C103.308 31.6235 104.619 33.0609 104.619 35.0287C104.619 36.9742 103.308 38.3919 101.638 38.3919ZM133.644 23.8416H127.774V40.252H130.223V34.035H133.642C136.357 34.035 139.027 32.0698 139.027 28.939C139.027 25.8081 136.358 23.8416 133.644 23.8416ZM133.707 31.7508H130.223V26.1258H133.707C135.538 26.1258 136.577 27.642 136.577 28.939C136.577 30.2097 135.538 31.7508 133.707 31.7508ZM148.845 29.3945C147.071 29.3945 145.235 30.1756 144.475 31.907L146.649 32.8141C147.113 31.907 147.98 31.6104 148.887 31.6104C150.154 31.6104 151.441 32.3704 151.462 33.7212V33.8906C151.019 33.6372 150.068 33.2578 148.908 33.2578C146.565 33.2578 144.178 34.5456 144.178 36.9519C144.178 39.148 146.1 40.5619 148.253 40.5619C149.899 40.5619 150.807 39.8228 151.377 38.9564H151.461V40.2232H153.827V33.9313C153.828 31.0196 151.652 29.3945 148.845 29.3945ZM148.548 38.388C147.747 38.388 146.628 37.9863 146.628 36.9939C146.628 35.7271 148.022 35.2414 149.226 35.2414C150.301 35.2414 150.809 35.4737 151.462 35.7901C151.272 37.3115 149.963 38.388 148.548 38.388ZM162.441 29.7529L159.633 36.8678H159.549L156.635 29.7529H153.996L158.366 39.6968L155.875 45.2286H158.429L165.165 29.7529H162.441ZM140.379 40.252H142.827V23.8416H140.379V40.252Z" fill="white"/>
<path d="M62.247 14.3163C62.247 15.4163 61.9214 16.2919 61.269 16.9457C60.5286 17.7228 59.5624 18.1114 58.3757 18.1114C57.2389 18.1114 56.2714 17.7175 55.4772 16.9299C54.6817 16.1409 54.284 15.1643 54.284 13.9986C54.284 12.8316 54.6817 11.8549 55.4772 11.0673C56.2714 10.2783 57.2389 9.88449 58.3757 9.88449C58.9402 9.88449 59.4797 9.99476 59.9917 10.214C60.505 10.4345 60.9159 10.7273 61.223 11.0935L60.5312 11.7866C60.0101 11.1631 59.292 10.852 58.3744 10.852C57.5448 10.852 56.828 11.1434 56.2229 11.7262C55.6177 12.3091 55.3158 13.0665 55.3158 13.9973C55.3158 14.928 55.6177 15.6854 56.2229 16.2683C56.828 16.8511 57.5448 17.1426 58.3744 17.1426C59.2539 17.1426 59.9878 16.8498 60.5746 16.263C60.9552 15.881 61.1758 15.3494 61.2349 14.6681H58.3744V13.7216H62.1905C62.2299 13.9277 62.247 14.1259 62.247 14.3163Z" fill="white"/>
<path d="M68.2988 11.0266H64.7124V13.5234H67.947V14.4699H64.7124V16.9667H68.2988V17.9355H63.7003V10.0592H68.2988V11.0266Z" fill="white"/>
<path d="M72.5663 17.9355H71.5542V11.0266H69.3541V10.0592H74.7664V11.0266H72.5663V17.9355Z" fill="white"/>
<path d="M78.6822 17.9355V10.0592H79.6943V17.9355H78.6822Z" fill="white"/>
<path d="M84.1828 17.9355H83.1707V11.0266H80.9705V10.0592H86.3829V11.0266H84.1828V17.9355Z" fill="white"/>
<path d="M96.6285 16.9181C95.8539 17.7137 94.8917 18.1114 93.7404 18.1114C92.5892 18.1114 91.627 17.7137 90.8538 16.9181C90.0793 16.1226 89.6933 15.1486 89.6933 13.9973C89.6933 12.8461 90.0793 11.872 90.8538 11.0765C91.627 10.281 92.5892 9.88193 93.7404 9.88193C94.8851 9.88193 95.8461 10.2823 96.6232 11.0818C97.4003 11.8812 97.7889 12.8526 97.7889 13.9973C97.7889 15.1486 97.4016 16.1226 96.6285 16.9181ZM91.6007 16.2578C92.1836 16.8486 92.8964 17.1426 93.7404 17.1426C94.5845 17.1426 95.2987 16.8473 95.8802 16.2578C96.463 15.6671 96.7558 14.9136 96.7558 13.9973C96.7558 13.081 96.463 12.3275 95.8802 11.7368C95.2987 11.1461 94.5845 10.852 93.7404 10.852C92.8964 10.852 92.1836 11.1474 91.6007 11.7368C91.0192 12.3275 90.7264 13.081 90.7264 13.9973C90.7264 14.9136 91.0192 15.6671 91.6007 16.2578Z" fill="white"/>
<path d="M99.2093 17.9355V10.0592H100.441L104.269 16.1857H104.312L104.269 14.6681V10.0592H105.281V17.9355H104.224L100.219 11.511H100.175L100.219 13.0285V17.9355H99.2093Z" fill="white"/>
<path d="M62.247 14.3163C62.247 15.4163 61.9214 16.2919 61.269 16.9457C60.5286 17.7228 59.5624 18.1114 58.3757 18.1114C57.2389 18.1114 56.2714 17.7175 55.4772 16.9299C54.6817 16.1409 54.284 15.1643 54.284 13.9986C54.284 12.8316 54.6817 11.8549 55.4772 11.0673C56.2714 10.2783 57.2389 9.88449 58.3757 9.88449C58.9402 9.88449 59.4797 9.99476 59.9917 10.214C60.505 10.4345 60.9159 10.7273 61.223 11.0935L60.5312 11.7866C60.0101 11.1631 59.292 10.852 58.3744 10.852C57.5448 10.852 56.828 11.1434 56.2229 11.7262C55.6177 12.3091 55.3158 13.0665 55.3158 13.9973C55.3158 14.928 55.6177 15.6854 56.2229 16.2683C56.828 16.8511 57.5448 17.1426 58.3744 17.1426C59.2539 17.1426 59.9878 16.8498 60.5746 16.263C60.9552 15.881 61.1758 15.3494 61.2349 14.6681H58.3744V13.7216H62.1905C62.2299 13.9277 62.247 14.1259 62.247 14.3163Z" stroke="white" stroke-width="0.262545" stroke-miterlimit="10"/>
<path d="M68.2988 11.0266H64.7124V13.5234H67.947V14.4699H64.7124V16.9667H68.2988V17.9355H63.7003V10.0592H68.2988V11.0266Z" stroke="white" stroke-width="0.262545" stroke-miterlimit="10"/>
<path d="M72.5663 17.9355H71.5542V11.0266H69.3541V10.0592H74.7664V11.0266H72.5663V17.9355Z" stroke="white" stroke-width="0.262545" stroke-miterlimit="10"/>
<path d="M78.6822 17.9355V10.0592H79.6943V17.9355H78.6822Z" stroke="white" stroke-width="0.262545" stroke-miterlimit="10"/>
<path d="M84.1828 17.9355H83.1707V11.0266H80.9705V10.0592H86.3829V11.0266H84.1828V17.9355Z" stroke="white" stroke-width="0.262545" stroke-miterlimit="10"/>
<path d="M96.6285 16.9181C95.8539 17.7137 94.8917 18.1114 93.7404 18.1114C92.5892 18.1114 91.627 17.7137 90.8538 16.9181C90.0793 16.1226 89.6933 15.1486 89.6933 13.9973C89.6933 12.8461 90.0793 11.872 90.8538 11.0765C91.627 10.281 92.5892 9.88193 93.7404 9.88193C94.8851 9.88193 95.8461 10.2823 96.6232 11.0818C97.4003 11.8812 97.7889 12.8526 97.7889 13.9973C97.7889 15.1486 97.4016 16.1226 96.6285 16.9181ZM91.6007 16.2578C92.1836 16.8486 92.8964 17.1426 93.7404 17.1426C94.5845 17.1426 95.2987 16.8473 95.8802 16.2578C96.463 15.6671 96.7558 14.9136 96.7558 13.9973C96.7558 13.081 96.463 12.3275 95.8802 11.7368C95.2987 11.1461 94.5845 10.852 93.7404 10.852C92.8964 10.852 92.1836 11.1474 91.6007 11.7368C91.0192 12.3275 90.7264 13.081 90.7264 13.9973C90.7264 14.9136 91.0192 15.6671 91.6007 16.2578Z" stroke="white" stroke-width="0.262545" stroke-miterlimit="10"/>
<path d="M99.2093 17.9355V10.0592H100.441L104.269 16.1857H104.312L104.269 14.6681V10.0592H105.281V17.9355H104.224L100.219 11.511H100.175L100.219 13.0285V17.9355H99.2093Z" stroke="white" stroke-width="0.262545" stroke-miterlimit="10"/>
<g filter="url(#filter0_ii_4_168)">
<path d="M13.6996 10.7654C13.3176 11.1697 13.0918 11.7972 13.0918 12.6098V41.642C13.0918 42.4559 13.3176 43.0821 13.6996 43.4864L13.7968 43.5809L30.0601 27.3176V27.1259V26.9342L13.7968 10.6696L13.6996 10.7654Z" fill="url(#paint0_linear_4_168)"/>
<path d="M35.4804 32.7405L30.0601 27.3176V27.1259V26.9343L35.4817 21.5127L35.6038 21.5823L42.027 25.2317C43.8609 26.274 43.8609 27.9792 42.027 29.0228L35.6038 32.6722L35.4804 32.7405Z" fill="url(#paint1_linear_4_168)"/>
<g filter="url(#filter1_i_4_168)">
<path d="M35.6038 32.6709L30.0588 27.1259L13.6996 43.4864C14.3035 44.127 15.3025 44.2058 16.4275 43.5678L35.6038 32.6709Z" fill="url(#paint2_linear_4_168)"/>
</g>
<path d="M35.6038 21.581L16.4275 10.6853C15.3025 10.046 14.3035 10.1261 13.6996 10.7667L30.0601 27.1272L35.6038 21.581Z" fill="url(#paint3_linear_4_168)"/>
</g>
<defs>
<filter id="filter0_ii_4_168" x="13.0918" y="10.2441" width="30.3106" height="33.7643" filterUnits="userSpaceOnUse" color-interpolation-filters="sRGB">
<feFlood flood-opacity="0" result="BackgroundImageFix"/>
<feBlend mode="normal" in="SourceGraphic" in2="BackgroundImageFix" result="shape"/>
<feColorMatrix in="SourceAlpha" type="matrix" values="0 0 0 0 0 0 0 0 0 0 0 0 0 0 0 0 0 0 127 0" result="hardAlpha"/>
<feOffset dy="-0.196909"/>
<feComposite in2="hardAlpha" operator="arithmetic" k2="-1" k3="1"/>
<feColorMatrix type="matrix" values="0 0 0 0 0 0 0 0 0 0 0 0 0 0 0 0 0 0 0.12 0"/>
<feBlend mode="normal" in2="shape" result="effect1_innerShadow_4_168"/>
<feColorMatrix in="SourceAlpha" type="matrix" values="0 0 0 0 0 0 0 0 0 0 0 0 0 0 0 0 0 0 127 0" result="hardAlpha"/>
<feOffset dy="0.196909"/>
<feComposite in2="hardAlpha" operator="arithmetic" k2="-1" k3="1"/>
<feColorMatrix type="matrix" values="0 0 0 0 1 0 0 0 0 1 0 0 0 0 1 0 0 0 0.25 0"/>
<feBlend mode="normal" in2="effect1_innerShadow_4_168" result="effect2_innerShadow_4_168"/>
</filter>
<filter id="filter1_i_4_168" x="13.6996" y="27.1259" width="21.9042" height="16.8826" filterUnits="userSpaceOnUse" color-interpolation-filters="sRGB">
<feFlood flood-opacity="0" result="BackgroundImageFix"/>
<feBlend mode="normal" in="SourceGraphic" in2="BackgroundImageFix" result="shape"/>
<feColorMatrix in="SourceAlpha" type="matrix" values="0 0 0 0 0 0 0 0 0 0 0 0 0 0 0 0 0 0 127 0" result="hardAlpha"/>
<feOffset dy="-0.196909"/>
<feComposite in2="hardAlpha" operator="arithmetic" k2="-1" k3="1"/>
<feColorMatrix type="matrix" values="0 0 0 0 0 0 0 0 0 0 0 0 0 0 0 0 0 0 0.08 0"/>
<feBlend mode="normal" in2="shape" result="effect1_innerShadow_4_168"/>
</filter>
<linearGradient id="paint0_linear_4_168" x1="28.6185" y1="12.3026" x2="6.58832" y2="34.3328" gradientUnits="userSpaceOnUse">
<stop stop-color="#00A0FF"/>
<stop offset="0.0066" stop-color="#00A1FF"/>
<stop offset="0.2601" stop-color="#00BEFF"/>
<stop offset="0.5122" stop-color="#00D2FF"/>
<stop offset="0.7604" stop-color="#00DFFF"/>
<stop offset="1" stop-color="#00E3FF"/>
</linearGradient>
<linearGradient id="paint1_linear_4_168" x1="44.4142" y1="27.1259" x2="12.6515" y2="27.1259" gradientUnits="userSpaceOnUse">
<stop stop-color="#FFE000"/>
<stop offset="0.4087" stop-color="#FFBD00"/>
<stop offset="0.7754" stop-color="#FFA500"/>
<stop offset="1" stop-color="#FF9C00"/>
</linearGradient>
<linearGradient id="paint2_linear_4_168" x1="32.5925" y1="30.1372" x2="2.71683" y2="60.0129" gradientUnits="userSpaceOnUse">
<stop stop-color="#FF3A44"/>
<stop offset="1" stop-color="#C31162"/>
</linearGradient>
<linearGradient id="paint3_linear_4_168" x1="9.5795" y1="1.10214" x2="22.9198" y2="14.4425" gradientUnits="userSpaceOnUse">
<stop stop-color="#32A071"/>
<stop offset="0.0685" stop-color="#2DA771"/>
<stop offset="0.4762" stop-color="#15CF74"/>
<stop offset="0.8009" stop-color="#06E775"/>
<stop offset="1" stop-color="#00F076"/>
</linearGradient>
</defs>
</svg>
