<svg width="129" height="34" viewBox="0 0 129 34" fill="none" xmlns="http://www.w3.org/2000/svg">
<g opacity="0.7">
<path d="M52.8753 20.3485C52.8753 21.9329 52.5035 23.0969 51.7598 23.8406C51.0161 24.5842 49.8683 24.9561 48.3163 24.9561C46.7804 24.9561 45.1476 24.8752 43.4177 24.7136V21.4398C44.6787 21.5206 45.9721 21.561 47.2977 21.561C47.6696 21.561 47.9606 21.4559 48.1708 21.2458C48.3971 21.0194 48.5103 20.7204 48.5103 20.3485V11.1334H45.3577V7.73834H52.8753V20.3485Z" fill="#FFF7E6"/>
<path d="M63.787 24.7136H55.0569V21.3185H57.2394V11.1334H55.0569V7.73834H63.787V11.1334H61.6045V21.3185H63.787V24.7136Z" fill="#FFF7E6"/>
<path d="M80.5179 24.3498C76.7348 24.754 73.2589 24.9561 70.0902 24.9561C68.5059 24.9561 67.3418 24.5842 66.5982 23.8406C65.8545 23.0969 65.4827 21.9329 65.4827 20.3485V12.5884C65.4827 10.8909 65.8626 9.6622 66.6224 8.90236C67.3984 8.12635 68.6352 7.73834 70.3327 7.73834H79.0628V11.1334H71.3027C70.3327 11.1334 69.8477 11.6184 69.8477 12.5884V20.3485C69.8477 20.7204 69.9528 21.0194 70.163 21.2458C70.3893 21.4559 70.6884 21.561 71.0602 21.561C72.9194 21.561 74.617 21.5206 76.1528 21.4398V17.9235H73.0003V15.0134H80.5179V24.3498Z" fill="#FFF7E6"/>
<path d="M97.4978 24.3498C93.7148 24.754 90.2389 24.9561 87.0702 24.9561C85.4858 24.9561 84.3218 24.5842 83.5781 23.8406C82.8345 23.0969 82.4626 21.9329 82.4626 20.3485V12.5884C82.4626 10.8909 82.8426 9.6622 83.6024 8.90236C84.3784 8.12635 85.6152 7.73834 87.3127 7.73834H96.0428V11.1334H88.2827C87.3127 11.1334 86.8277 11.6184 86.8277 12.5884V20.3485C86.8277 20.7204 86.9328 21.0194 87.1429 21.2458C87.3693 21.4559 87.6684 21.561 88.0402 21.561C89.8994 21.561 91.5969 21.5206 93.1328 21.4398V17.9235H89.9802V15.0134H97.4978V24.3498Z" fill="#FFF7E6"/>
<path d="M104.293 21.3185H113.144V24.7136H99.9276V7.73834H104.293V21.3185Z" fill="#FFF7E6"/>
<path d="M128.306 24.7136H114.847V7.73834H128.306V11.1334H119.212V14.4072H126.366V17.8022H119.212V21.3185H128.306V24.7136Z" fill="#FFF7E6"/>
</g>
<g clip-path="url(#clip0_6_304)">
<path opacity="0.7" fill-rule="evenodd" clip-rule="evenodd" d="M2.58224 5.87105C3.07452 5.87319 3.546 6.0697 3.89409 6.4178C4.24219 6.76589 4.43872 7.23739 4.44085 7.72967C4.45389 8.21232 4.65482 8.67084 5.00081 9.00761C5.34681 9.34439 5.81056 9.53284 6.2934 9.53284C6.77623 9.53284 7.23998 9.34439 7.58598 9.00761C7.93197 8.67084 8.1329 8.21232 8.14594 7.72967V1.94296C8.14807 1.45069 8.34454 0.979174 8.69263 0.631077C9.04073 0.282981 9.51227 0.0864848 10.0046 0.0843506C10.4949 0.0889717 10.9637 0.286654 11.3093 0.634559C11.655 0.982464 11.8496 1.45256 11.851 1.94296V14.0922C11.8443 14.3397 11.8873 14.586 11.9773 14.8166C12.0674 15.0472 12.2029 15.2574 12.3755 15.4349C12.5482 15.6123 12.7547 15.7533 12.9828 15.8496C13.2108 15.9459 13.4559 15.9955 13.7035 15.9955C13.9511 15.9955 14.1962 15.9459 14.4242 15.8496C14.6523 15.7533 14.8588 15.6123 15.0315 15.4349C15.2042 15.2574 15.3396 15.0472 15.4296 14.8166C15.5197 14.586 15.5627 14.3397 15.556 14.0922V7.72967C15.5582 7.23739 15.7547 6.76589 16.1028 6.4178C16.4509 6.0697 16.9224 5.87319 17.4147 5.87105C17.905 5.87567 18.3738 6.07337 18.7194 6.42128C19.0651 6.76918 19.2597 7.23926 19.2611 7.72967V14.0922C19.2611 14.5834 19.4562 15.0544 19.8035 15.4017C20.1508 15.749 20.6218 15.9441 21.1129 15.9441C21.6041 15.9441 22.0751 15.749 22.4224 15.4017C22.7697 15.0544 22.9648 14.5834 22.9648 14.0922V1.94296C22.967 1.45045 23.1637 0.978733 23.512 0.630599C23.8604 0.282464 24.3322 0.0861291 24.8248 0.0843506C25.3157 0.0868541 25.7856 0.283896 26.1315 0.632298C26.4773 0.980701 26.671 1.45204 26.6699 1.94296V7.72967C26.6829 8.21232 26.8838 8.67084 27.2298 9.00761C27.5758 9.34439 28.0395 9.53284 28.5224 9.53284C29.0052 9.53284 29.469 9.34439 29.815 9.00761C30.161 8.67084 30.3619 8.21232 30.3749 7.72967C30.3771 7.23716 30.5738 6.76545 30.9221 6.41732C31.2705 6.06918 31.7424 5.87283 32.2349 5.87105C32.7258 5.87356 33.1958 6.07061 33.5416 6.41902C33.8875 6.76742 34.0811 7.23874 34.08 7.72967V25.7967C34.0782 26.2856 33.8832 26.7538 33.5376 27.0995C33.192 27.4451 32.7237 27.6401 32.2349 27.6418C31.7445 27.6408 31.2743 27.4466 30.9261 27.1012C30.5779 26.7558 30.3799 26.2871 30.3749 25.7967C30.3816 25.5493 30.3387 25.303 30.2486 25.0723C30.1585 24.8417 30.0231 24.6315 29.8504 24.4541C29.6777 24.2767 29.4712 24.1357 29.2431 24.0394C29.015 23.9431 28.77 23.8935 28.5224 23.8935C28.2748 23.8935 28.0298 23.9431 27.8017 24.0394C27.5736 24.1357 27.3671 24.2767 27.1944 24.4541C27.0217 24.6315 26.8863 24.8417 26.7962 25.0723C26.7061 25.303 26.6632 25.5493 26.6699 25.7967V31.5767C26.6703 31.8192 26.6228 32.0593 26.5302 32.2834C26.4376 32.5075 26.3017 32.7111 26.1303 32.8826C25.959 33.0542 25.7554 33.1902 25.5314 33.2829C25.3073 33.3757 25.0672 33.4233 24.8248 33.4232C24.3337 33.4239 23.8624 33.23 23.514 32.8839C23.1657 32.5378 22.9686 32.0677 22.9661 31.5767V19.4112C22.9661 18.9201 22.7711 18.4491 22.4238 18.1018C22.0765 17.7545 21.6055 17.5594 21.1143 17.5594C20.6232 17.5594 20.1521 17.7545 19.8048 18.1018C19.4576 18.4491 19.2624 18.9201 19.2624 19.4112V25.7873C19.2582 26.2756 19.0623 26.7426 18.7169 27.0878C18.3715 27.4329 17.9043 27.6285 17.416 27.6324C16.9259 27.631 16.4559 27.4366 16.1081 27.0912C15.7602 26.7459 15.5624 26.2774 15.5574 25.7873V19.4112C15.5444 18.9286 15.3435 18.4701 14.9975 18.1333C14.6515 17.7965 14.1877 17.6081 13.7049 17.6081C13.222 17.6081 12.7582 17.7965 12.4122 18.1333C12.0662 18.4701 11.8654 18.9286 11.8523 19.4112V31.5767C11.8509 32.066 11.6559 32.5348 11.3099 32.8808C10.964 33.2267 10.4951 33.4217 10.0059 33.4232C9.51471 33.4242 9.04319 33.2304 8.69474 32.8843C8.3463 32.5381 8.1494 32.0679 8.14726 31.5767V25.7913C8.15394 25.5438 8.11096 25.2975 8.02086 25.0669C7.93077 24.8363 7.79543 24.6261 7.62274 24.4487C7.45006 24.2713 7.24354 24.1303 7.01546 24.034C6.78737 23.9377 6.54229 23.8881 6.29472 23.8881C6.04714 23.8881 5.80206 23.9377 5.57397 24.034C5.34589 24.1303 5.13944 24.2713 4.96676 24.4487C4.79407 24.6261 4.65866 24.8363 4.56857 25.0669C4.47848 25.2975 4.43549 25.5438 4.44217 25.7913C4.4372 26.2815 4.23939 26.7499 3.89152 27.0953C3.54365 27.4406 3.07373 27.635 2.58356 27.6364C2.09529 27.6326 1.62813 27.437 1.28273 27.0918C0.937328 26.7467 0.741396 26.2796 0.737156 25.7913V7.72967C0.738557 7.23926 0.93314 6.76918 1.27877 6.42128C1.6244 6.07337 2.09318 5.87567 2.58356 5.87105H2.58224ZM8.14594 13.0581C8.15262 12.8107 8.10964 12.5643 8.01954 12.3337C7.92945 12.1031 7.79404 11.8929 7.62135 11.7155C7.44867 11.5381 7.24222 11.3971 7.01414 11.3008C6.78605 11.2045 6.54097 11.1549 6.2934 11.1549C6.04582 11.1549 5.80074 11.2045 5.57265 11.3008C5.34457 11.3971 5.13806 11.5381 4.96537 11.7155C4.79269 11.8929 4.65734 12.1031 4.56725 12.3337C4.47716 12.5643 4.43417 12.8107 4.44085 13.0581V20.4683C4.45389 20.9509 4.65482 21.4094 5.00081 21.7462C5.34681 22.083 5.81056 22.2714 6.2934 22.2714C6.77623 22.2714 7.23998 22.083 7.58598 21.7462C7.93197 21.4094 8.1329 20.9509 8.14594 20.4683V13.0581ZM26.6645 20.4683V13.0581C26.6578 12.8107 26.7007 12.5643 26.7908 12.3337C26.8809 12.1031 27.0163 11.8929 27.189 11.7155C27.3617 11.5381 27.5682 11.3971 27.7963 11.3008C28.0244 11.2045 28.2695 11.1549 28.517 11.1549C28.7646 11.1549 29.0096 11.2045 29.2377 11.3008C29.4658 11.3971 29.6723 11.5381 29.845 11.7155C30.0177 11.8929 30.1531 12.1031 30.2432 12.3337C30.3333 12.5643 30.3762 12.8107 30.3695 13.0581V20.4683C30.3565 20.9509 30.1556 21.4094 29.8096 21.7462C29.4636 22.083 28.9999 22.2714 28.517 22.2714C28.0342 22.2714 27.5704 22.083 27.2244 21.7462C26.8784 21.4094 26.6775 20.9509 26.6645 20.4683Z" fill="#FFF7E6"/>
</g>
<defs>
<clipPath id="clip0_6_304">
<rect width="33.3442" height="33.3442" fill="white" transform="translate(0.737057 0.0843506)"/>
</clipPath>
</defs>
</svg>
