<svg width="156" height="43" viewBox="0 0 156 43" fill="none" xmlns="http://www.w3.org/2000/svg">
<path fill-rule="evenodd" clip-rule="evenodd" d="M10.7976 13.1593C13.2329 9.8837 17.1325 7.76153 21.5278 7.76153C25.949 7.76153 29.8686 9.90871 32.3008 13.2172C32.1971 13.3236 32.1028 13.4339 32.0177 13.5441C31.572 14.1211 31.237 14.8643 30.9682 15.6189C30.4276 17.1368 30.015 19.1194 29.6332 20.9759L29.5989 21.1429C29.2179 22.996 28.8637 24.7194 28.4355 25.9988C28.2431 26.5737 28.0605 26.9797 27.8989 27.2401C27.7301 26.9779 27.5385 26.5666 27.3355 25.9836C26.8773 24.6674 26.4924 22.8773 26.0839 20.9658L26.0706 20.9032L26.0705 20.9031C25.6782 19.0671 25.2619 17.1191 24.7428 15.628C24.4821 14.879 24.1621 14.1432 23.7436 13.5716C23.3329 13.0106 22.6492 12.3775 21.6493 12.3775C20.6557 12.3775 19.9689 13.0037 19.5522 13.5584C19.1256 14.1263 18.7931 14.859 18.5191 15.6085C17.9674 17.1176 17.5163 19.0917 17.0965 20.9508L17.0531 21.1428L17.0531 21.1429C16.6375 22.9845 16.2488 24.7063 15.8078 25.9881C15.6393 26.4776 15.4804 26.8498 15.3366 27.1159C15.196 26.8511 15.0411 26.4814 14.8773 25.9957C14.4541 24.7414 14.0834 23.0679 13.6853 21.2703L13.6155 20.9558C13.203 19.0955 12.7555 17.1179 12.1959 15.604C11.9179 14.8518 11.5778 14.1154 11.1377 13.5449C11.0381 13.4157 10.9249 13.2847 10.7976 13.1593ZM9.32371 15.6745C9.4397 15.9035 9.56237 16.1873 9.68923 16.5305C10.1736 17.8409 10.5839 19.6289 11.0065 21.5344L11.0887 21.9057C11.4735 23.6443 11.8737 25.4528 12.3451 26.85C12.5958 27.5932 12.8986 28.3211 13.288 28.8869C13.6562 29.4218 14.3169 30.1126 15.3327 30.1126C16.3456 30.1126 17.0078 29.4252 17.3785 28.8924C17.7712 28.328 18.079 27.6011 18.3348 26.8576C18.8251 25.4326 19.2426 23.5816 19.6422 21.8102L19.6422 21.8102L19.7033 21.5394C20.1338 19.6328 20.5482 17.8412 21.029 16.5261C21.2518 15.9168 21.4603 15.4923 21.6419 15.229C21.814 15.49 22.0105 15.9077 22.219 16.5066C22.6771 17.8227 23.062 19.6129 23.4705 21.5243L23.4839 21.5869C23.8763 23.4229 24.2926 25.371 24.8117 26.8622C25.0724 27.6112 25.3924 28.347 25.8109 28.9186C26.2216 29.4795 26.9053 30.1126 27.9052 30.1126C28.9101 30.1126 29.5913 29.4739 29.9972 28.9079C30.4092 28.3335 30.7192 27.5954 30.9697 26.847C31.4506 25.4101 31.8336 23.5456 32.1979 21.7718L32.2508 21.5142C32.6434 19.6051 33.0204 17.822 33.4857 16.5156C33.5869 16.2314 33.6859 15.9891 33.781 15.7856C34.4943 17.4205 34.8899 19.2259 34.8899 21.1236C34.8899 28.5033 28.9075 34.4857 21.5278 34.4857C14.1482 34.4857 8.16576 28.5033 8.16576 21.1236C8.16576 19.1828 8.57955 17.3386 9.32371 15.6745ZM21.5278 5.08911C12.6722 5.08911 5.49335 12.268 5.49335 21.1236C5.49335 29.9792 12.6722 37.1581 21.5278 37.1581C30.3834 37.1581 37.5623 29.9792 37.5623 21.1236C37.5623 12.268 30.3834 5.08911 21.5278 5.08911ZM21.8239 15.0117C21.8302 15.0081 21.8333 15.0056 21.8333 15.0053C21.8333 15.0051 21.8324 15.0055 21.8306 15.0067C21.8291 15.0078 21.8268 15.0094 21.8239 15.0117ZM21.4639 15.0071C21.4577 15.0033 21.4547 15.0007 21.4547 15.0004C21.4547 15 21.4578 15.0019 21.4639 15.0071ZM27.7038 27.4921C27.7024 27.4932 27.7018 27.4939 27.7018 27.494C27.7018 27.4943 27.7048 27.4924 27.7107 27.4872C27.7076 27.4892 27.7053 27.4909 27.7038 27.4921ZM28.097 27.4874C28.0955 27.4863 28.0933 27.4848 28.0905 27.4831C28.0967 27.4882 28.0998 27.4901 28.0998 27.4898C28.0998 27.4896 28.0989 27.4888 28.097 27.4874ZM15.0588 27.5178C15.0588 27.5173 15.0626 27.5137 15.0703 27.5083C15.0627 27.5155 15.0588 27.5182 15.0588 27.5178ZM15.6 27.5108C15.6077 27.5163 15.6115 27.52 15.6115 27.5205C15.6114 27.5209 15.6076 27.5181 15.6 27.5108Z" fill="#F9F0FF"/>
<path d="M46.4161 30.6163L42.5278 17.3158H45.9334L48.2396 26.8889L50.9211 17.3158H54.7289L57.4105 26.8889L59.7434 17.3158H63.149L59.2339 30.6163H55.6675L52.825 20.6677L49.9826 30.6163H46.4161Z" fill="#F6F6F6"/>
<path d="M68.1466 30.9381C67.0024 30.9381 66.0639 30.7593 65.3309 30.4018C64.598 30.0264 64.0527 29.5347 63.6952 28.9269C63.3376 28.3191 63.1589 27.6487 63.1589 26.9158C63.1589 25.6822 63.6416 24.6811 64.6069 23.9124C65.5723 23.1437 67.0203 22.7593 68.951 22.7593H72.3298V22.4376C72.3298 21.5258 72.0706 20.8554 71.5522 20.4264C71.0337 19.9973 70.3901 19.7828 69.6214 19.7828C68.9242 19.7828 68.3164 19.9526 67.798 20.2923C67.2795 20.6141 66.9578 21.0968 66.8326 21.7403H63.4807C63.57 20.775 63.8918 19.9348 64.446 19.2197C65.0181 18.5046 65.751 17.9593 66.6449 17.5839C67.5388 17.1906 68.5399 16.994 69.6482 16.994C71.5432 16.994 73.0359 17.4677 74.1264 18.4152C75.217 19.3627 75.7622 20.7035 75.7622 22.4376V30.6163H72.8393L72.5175 28.4711C72.1242 29.1861 71.57 29.7761 70.8549 30.2409C70.1577 30.7057 69.255 30.9381 68.1466 30.9381ZM68.9242 28.2565C69.9075 28.2565 70.6672 27.9348 71.2036 27.2912C71.7577 26.6476 72.1063 25.8521 72.2494 24.9046H69.3265C68.4147 24.9046 67.7622 25.0744 67.3689 25.4141C66.9756 25.7359 66.779 26.1381 66.779 26.6208C66.779 27.1392 66.9756 27.5415 67.3689 27.8275C67.7622 28.1135 68.2807 28.2565 68.9242 28.2565Z" fill="#F6F6F6"/>
<path d="M81.1655 30.6163L76.2851 17.3158H79.8784L83.2572 27.3716L86.6359 17.3158H90.2292L85.322 30.6163H81.1655Z" fill="#F6F6F6"/>
<path d="M97.1294 30.9381C95.7886 30.9381 94.5998 30.6521 93.5629 30.08C92.5261 29.5079 91.7127 28.7035 91.1227 27.6666C90.5328 26.6297 90.2378 25.432 90.2378 24.0733C90.2378 22.6968 90.5238 21.4722 91.0959 20.3996C91.6858 19.3269 92.4903 18.4957 93.5093 17.9057C94.5462 17.2979 95.7618 16.994 97.1562 16.994C98.4613 16.994 99.6143 17.28 100.615 17.8521C101.617 18.4242 102.394 19.2107 102.948 20.2119C103.52 21.1951 103.807 22.2945 103.807 23.5102C103.807 23.7068 103.798 23.9124 103.78 24.1269C103.78 24.3415 103.771 24.5649 103.753 24.7973H93.6434C93.7149 25.8342 94.0724 26.6476 94.716 27.2375C95.3775 27.8275 96.173 28.1225 97.1026 28.1225C97.7998 28.1225 98.3808 27.9705 98.8456 27.6666C99.3283 27.3448 99.6858 26.9336 99.9182 26.4331H103.404C103.154 27.2733 102.734 28.042 102.144 28.7392C101.572 29.4186 100.857 29.9549 99.9987 30.3482C99.1585 30.7415 98.202 30.9381 97.1294 30.9381ZM97.1562 19.7828C96.316 19.7828 95.5741 20.0242 94.9305 20.5068C94.287 20.9716 93.8758 21.6867 93.697 22.6521H100.32C100.267 21.7761 99.9451 21.0789 99.3551 20.5605C98.7652 20.042 98.0322 19.7828 97.1562 19.7828Z" fill="#F6F6F6"/>
<path d="M105.621 30.6163V11.3091H109.053V30.6163H105.621Z" fill="#F6F6F6"/>
<path d="M117.95 30.9381C116.609 30.9381 115.421 30.6521 114.384 30.08C113.347 29.5079 112.534 28.7035 111.944 27.6666C111.354 26.6297 111.059 25.432 111.059 24.0733C111.059 22.6968 111.345 21.4722 111.917 20.3996C112.507 19.3269 113.311 18.4957 114.33 17.9057C115.367 17.2979 116.583 16.994 117.977 16.994C119.282 16.994 120.435 17.28 121.436 17.8521C122.437 18.4242 123.215 19.2107 123.769 20.2119C124.341 21.1951 124.627 22.2945 124.627 23.5102C124.627 23.7068 124.618 23.9124 124.601 24.1269C124.601 24.3415 124.592 24.5649 124.574 24.7973H114.464C114.536 25.8342 114.893 26.6476 115.537 27.2375C116.198 27.8275 116.994 28.1225 117.923 28.1225C118.621 28.1225 119.202 27.9705 119.666 27.6666C120.149 27.3448 120.507 26.9336 120.739 26.4331H124.225C123.975 27.2733 123.555 28.042 122.965 28.7392C122.393 29.4186 121.678 29.9549 120.82 30.3482C119.979 30.7415 119.023 30.9381 117.95 30.9381ZM117.977 19.7828C117.137 19.7828 116.395 20.0242 115.751 20.5068C115.108 20.9716 114.697 21.6867 114.518 22.6521H121.141C121.088 21.7761 120.766 21.0789 120.176 20.5605C119.586 20.042 118.853 19.7828 117.977 19.7828Z" fill="#F6F6F6"/>
<path d="M131.939 30.9381C130.759 30.9381 129.722 30.7504 128.828 30.375C127.934 29.9817 127.219 29.4454 126.683 28.766C126.147 28.0867 125.825 27.3001 125.718 26.4063H129.177C129.284 26.9247 129.57 27.3716 130.035 27.747C130.518 28.1046 131.134 28.2834 131.885 28.2834C132.636 28.2834 133.181 28.1314 133.521 27.8275C133.878 27.5236 134.057 27.175 134.057 26.7817C134.057 26.2096 133.807 25.8253 133.306 25.6286C132.806 25.4141 132.109 25.2085 131.215 25.0119C130.643 24.8867 130.062 24.7348 129.472 24.556C128.882 24.3772 128.337 24.1538 127.836 23.8856C127.353 23.5996 126.96 23.242 126.656 22.813C126.352 22.366 126.2 21.8208 126.2 21.1772C126.2 19.9973 126.665 19.0052 127.595 18.2007C128.542 17.3962 129.865 16.994 131.563 16.994C133.137 16.994 134.388 17.3605 135.318 18.0934C136.265 18.8264 136.828 19.8364 137.007 21.1236H133.762C133.566 20.1404 132.824 19.6487 131.537 19.6487C130.893 19.6487 130.392 19.7739 130.035 20.0242C129.695 20.2744 129.525 20.5873 129.525 20.9627C129.525 21.356 129.785 21.6688 130.303 21.9012C130.821 22.1336 131.51 22.3482 132.368 22.5448C133.297 22.7593 134.147 23.0007 134.915 23.2688C135.702 23.5191 136.328 23.9035 136.792 24.4219C137.257 24.9225 137.49 25.6465 137.49 26.594C137.507 27.4163 137.293 28.1582 136.846 28.8197C136.399 29.4811 135.756 29.9996 134.915 30.375C134.075 30.7504 133.083 30.9381 131.939 30.9381Z" fill="#F6F6F6"/>
<path d="M144.955 30.9381C143.775 30.9381 142.738 30.7504 141.844 30.375C140.95 29.9817 140.235 29.4454 139.699 28.766C139.163 28.0867 138.841 27.3001 138.734 26.4063H142.193C142.3 26.9247 142.586 27.3716 143.051 27.747C143.534 28.1046 144.15 28.2834 144.901 28.2834C145.652 28.2834 146.197 28.1314 146.537 27.8275C146.894 27.5236 147.073 27.175 147.073 26.7817C147.073 26.2096 146.823 25.8253 146.322 25.6286C145.822 25.4141 145.125 25.2085 144.231 25.0119C143.659 24.8867 143.078 24.7348 142.488 24.556C141.898 24.3772 141.353 24.1538 140.852 23.8856C140.369 23.5996 139.976 23.242 139.672 22.813C139.368 22.366 139.216 21.8208 139.216 21.1772C139.216 19.9973 139.681 19.0052 140.611 18.2007C141.558 17.3962 142.881 16.994 144.579 16.994C146.153 16.994 147.404 17.3605 148.334 18.0934C149.281 18.8264 149.844 19.8364 150.023 21.1236H146.778C146.582 20.1404 145.84 19.6487 144.553 19.6487C143.909 19.6487 143.408 19.7739 143.051 20.0242C142.711 20.2744 142.541 20.5873 142.541 20.9627C142.541 21.356 142.801 21.6688 143.319 21.9012C143.838 22.1336 144.526 22.3482 145.384 22.5448C146.313 22.7593 147.163 23.0007 147.931 23.2688C148.718 23.5191 149.344 23.9035 149.808 24.4219C150.273 24.9225 150.506 25.6465 150.506 26.594C150.524 27.4163 150.309 28.1582 149.862 28.8197C149.415 29.4811 148.772 29.9996 147.931 30.375C147.091 30.7504 146.099 30.9381 144.955 30.9381Z" fill="#F6F6F6"/>
</svg>
