<svg width="155" height="42" viewBox="0 0 155 42" fill="none" xmlns="http://www.w3.org/2000/svg">
<path fill-rule="evenodd" clip-rule="evenodd" d="M10.2698 13.0357C12.705 9.76012 16.6047 7.63793 21 7.63793C25.4212 7.63793 29.3408 9.78513 31.773 13.0936C31.6693 13.2001 31.575 13.3104 31.4899 13.4206C31.0442 13.9975 30.7092 14.7407 30.4404 15.4954C29.8998 17.0132 29.4872 18.9958 29.1054 20.8524L29.0711 21.0193C28.6901 22.8724 28.3358 24.5959 27.9077 25.8753C27.7153 26.4501 27.5327 26.8562 27.3711 27.1166C27.2023 26.8544 27.0107 26.443 26.8077 25.8601C26.3495 24.5439 25.9646 22.7537 25.5561 20.8423L25.5428 20.7797L25.5427 20.7796C25.1504 18.9436 24.7341 16.9956 24.215 15.5044C23.9543 14.7554 23.6343 14.0197 23.2158 13.4481C22.8051 12.8871 22.1214 12.254 21.1215 12.254C20.1278 12.254 19.4411 12.8802 19.0244 13.4349C18.5978 14.0028 18.2653 14.7355 17.9913 15.4849C17.4395 16.9941 16.9885 18.9681 16.5687 20.8272L16.5253 21.0193L16.5253 21.0194C16.1096 22.861 15.721 24.5827 15.28 25.8646C15.1115 26.3541 14.9526 26.7263 14.8088 26.9924C14.6682 26.7275 14.5133 26.3579 14.3495 25.8722C13.9263 24.6179 13.5556 22.9443 13.1574 21.1468L13.0877 20.8322C12.6752 18.972 12.2276 16.9944 11.6681 15.4805C11.39 14.7283 11.05 13.9919 10.6099 13.4213C10.5103 13.2922 10.397 13.1611 10.2698 13.0357ZM8.79587 15.5509C8.91187 15.7799 9.03454 16.0638 9.16142 16.407C9.64576 17.7174 10.0561 19.5054 10.4787 21.4109L10.5609 21.7821C10.9457 23.5208 11.3459 25.3293 11.8173 26.7265C12.068 27.4696 12.3708 28.1976 12.7602 28.7633C13.1284 29.2983 13.789 29.9891 14.8049 29.9891C15.8177 29.9891 16.4799 29.3017 16.8507 28.7689C17.2434 28.2045 17.5512 27.4776 17.807 26.7341C18.2973 25.309 18.7148 23.458 19.1144 21.6866L19.1755 21.4159C19.606 19.5093 20.0204 17.7177 20.5012 16.4026C20.724 15.7933 20.9325 15.3688 21.1141 15.1054C21.2861 15.3665 21.4827 15.7842 21.6911 16.383C22.1493 17.6992 22.5342 19.4894 22.9427 21.4008L22.9561 21.4634L22.9561 21.4634C23.3485 23.2994 23.7647 25.2475 24.2838 26.7387C24.5446 27.4877 24.8646 28.2234 25.2831 28.795C25.6938 29.356 26.3775 29.9891 27.3774 29.9891C28.3823 29.9891 29.0635 29.3504 29.4694 28.7844C29.8814 28.2099 30.1914 27.4719 30.4419 26.7234C30.9228 25.2866 31.3058 23.4221 31.6701 21.6483L31.6701 21.6483L31.723 21.3907C32.1156 19.4816 32.4926 17.6985 32.9579 16.3921C33.0591 16.1079 33.1581 15.8656 33.2532 15.662C33.9665 17.297 34.3621 19.1023 34.3621 21C34.3621 28.3797 28.3797 34.3621 21 34.3621C13.6203 34.3621 7.63793 28.3797 7.63793 21C7.63793 19.0592 8.05171 17.215 8.79587 15.5509ZM21 4.96552C12.1444 4.96552 4.96552 12.1444 4.96552 21C4.96552 29.8556 12.1444 37.0345 21 37.0345C29.8556 37.0345 37.0345 29.8556 37.0345 21C37.0345 12.1444 29.8556 4.96552 21 4.96552ZM21.3055 14.8817C21.3055 14.8821 21.3024 14.8846 21.2961 14.8882C21.3023 14.8832 21.3055 14.8814 21.3055 14.8817ZM20.9361 14.8836C20.9299 14.8797 20.9268 14.8772 20.9269 14.8768C20.9269 14.8765 20.93 14.8784 20.9361 14.8836ZM27.1739 27.3705C27.1739 27.3701 27.1769 27.3676 27.1829 27.3637C27.177 27.3688 27.174 27.3708 27.1739 27.3705ZM27.5627 27.3595C27.5689 27.3634 27.572 27.3659 27.572 27.3663C27.572 27.3666 27.5689 27.3647 27.5627 27.3595ZM14.531 27.3942C14.531 27.3938 14.5348 27.3902 14.5425 27.3847C14.5349 27.392 14.531 27.3947 14.531 27.3942ZM15.0722 27.3873C15.0799 27.3928 15.0837 27.3965 15.0837 27.3969C15.0836 27.3974 15.0798 27.3946 15.0722 27.3873Z" fill="#FFA940"/>
<path d="M45.8883 30.4927L42 17.1922H45.4056L47.7117 26.7654L50.3933 17.1922H54.2011L56.8827 26.7654L59.2156 17.1922H62.6212L58.7061 30.4927H55.1397L52.2972 20.5441L49.4547 30.4927H45.8883Z" fill="#242A31"/>
<path d="M67.6187 30.8145C66.4746 30.8145 65.5361 30.6357 64.8031 30.2782C64.0702 29.9028 63.5249 29.4112 63.1674 28.8033C62.8098 28.1955 62.631 27.5251 62.631 26.7922C62.631 25.5587 63.1137 24.5575 64.0791 23.7888C65.0445 23.0201 66.4925 22.6358 68.4232 22.6358H71.802V22.314C71.802 21.4022 71.5428 20.7318 71.0243 20.3028C70.5059 19.8737 69.8623 19.6592 69.0936 19.6592C68.3964 19.6592 67.7886 19.8291 67.2701 20.1687C66.7517 20.4905 66.4299 20.9732 66.3048 21.6168H62.9528C63.0422 20.6514 63.364 19.8112 63.9182 19.0961C64.4903 18.381 65.2232 17.8358 66.1171 17.4603C67.0109 17.067 68.012 16.8704 69.1204 16.8704C71.0154 16.8704 72.5081 17.3441 73.5986 18.2916C74.6891 19.2391 75.2344 20.5799 75.2344 22.314V30.4927H72.3115L71.9897 28.3475C71.5964 29.0626 71.0422 29.6525 70.3271 30.1173C69.6299 30.5821 68.7271 30.8145 67.6187 30.8145ZM68.3964 28.1329C69.3796 28.1329 70.1394 27.8112 70.6757 27.1676C71.2299 26.524 71.5785 25.7285 71.7215 24.781H68.7986C67.8869 24.781 67.2344 24.9508 66.8411 25.2905C66.4478 25.6123 66.2512 26.0145 66.2512 26.4972C66.2512 27.0156 66.4478 27.4179 66.8411 27.7039C67.2344 27.9899 67.7528 28.1329 68.3964 28.1329Z" fill="#242A31"/>
<path d="M80.6377 30.4927L75.7573 17.1922H79.3506L82.7293 27.248L86.1081 17.1922H89.7014L84.7941 30.4927H80.6377Z" fill="#242A31"/>
<path d="M96.6016 30.8145C95.2608 30.8145 94.072 30.5285 93.0351 29.9564C91.9982 29.3843 91.1848 28.5799 90.5949 27.543C90.005 26.5061 89.71 25.3084 89.71 23.9497C89.71 22.5732 89.996 21.3486 90.5681 20.276C91.158 19.2034 91.9625 18.3721 92.9815 17.7821C94.0184 17.1743 95.234 16.8704 96.6284 16.8704C97.9334 16.8704 99.0865 17.1564 100.088 17.7285C101.089 18.3006 101.866 19.0872 102.421 20.0883C102.993 21.0715 103.279 22.1709 103.279 23.3866C103.279 23.5832 103.27 23.7888 103.252 24.0033C103.252 24.2179 103.243 24.4413 103.225 24.6737H93.1156C93.1871 25.7106 93.5446 26.524 94.1882 27.114C94.8496 27.7039 95.6452 27.9989 96.5748 27.9989C97.272 27.9989 97.853 27.8469 98.3178 27.543C98.8005 27.2212 99.158 26.81 99.3904 26.3095H102.876C102.626 27.1497 102.206 27.9184 101.616 28.6156C101.044 29.295 100.329 29.8313 99.4709 30.2246C98.6306 30.6179 97.6742 30.8145 96.6016 30.8145ZM96.6284 19.6592C95.7882 19.6592 95.0463 19.9006 94.4027 20.3832C93.7591 20.848 93.348 21.5631 93.1692 22.5285H99.7927C99.739 21.6525 99.4172 20.9553 98.8273 20.4369C98.2373 19.9184 97.5044 19.6592 96.6284 19.6592Z" fill="#242A31"/>
<path d="M105.093 30.4927V11.1855H108.525V30.4927H105.093Z" fill="#242A31"/>
<path d="M117.422 30.8145C116.082 30.8145 114.893 30.5285 113.856 29.9564C112.819 29.3843 112.006 28.5799 111.416 27.543C110.826 26.5061 110.531 25.3084 110.531 23.9497C110.531 22.5732 110.817 21.3486 111.389 20.276C111.979 19.2034 112.783 18.3721 113.802 17.7821C114.839 17.1743 116.055 16.8704 117.449 16.8704C118.754 16.8704 119.907 17.1564 120.908 17.7285C121.91 18.3006 122.687 19.0872 123.241 20.0883C123.813 21.0715 124.1 22.1709 124.1 23.3866C124.1 23.5832 124.091 23.7888 124.073 24.0033C124.073 24.2179 124.064 24.4413 124.046 24.6737H113.936C114.008 25.7106 114.365 26.524 115.009 27.114C115.67 27.7039 116.466 27.9989 117.396 27.9989C118.093 27.9989 118.674 27.8469 119.139 27.543C119.621 27.2212 119.979 26.81 120.211 26.3095H123.697C123.447 27.1497 123.027 27.9184 122.437 28.6156C121.865 29.295 121.15 29.8313 120.292 30.2246C119.451 30.6179 118.495 30.8145 117.422 30.8145ZM117.449 19.6592C116.609 19.6592 115.867 19.9006 115.224 20.3832C114.58 20.848 114.169 21.5631 113.99 22.5285H120.613C120.56 21.6525 120.238 20.9553 119.648 20.4369C119.058 19.9184 118.325 19.6592 117.449 19.6592Z" fill="#242A31"/>
<path d="M131.411 30.8145C130.231 30.8145 129.194 30.6268 128.3 30.2514C127.407 29.8581 126.691 29.3218 126.155 28.6424C125.619 27.9631 125.297 27.1765 125.19 26.2827H128.649C128.756 26.8011 129.042 27.248 129.507 27.6235C129.99 27.981 130.606 28.1598 131.357 28.1598C132.108 28.1598 132.653 28.0078 132.993 27.7039C133.351 27.4 133.529 27.0514 133.529 26.6581C133.529 26.086 133.279 25.7017 132.779 25.505C132.278 25.2905 131.581 25.0849 130.687 24.8883C130.115 24.7631 129.534 24.6112 128.944 24.4324C128.354 24.2536 127.809 24.0302 127.308 23.762C126.825 23.476 126.432 23.1184 126.128 22.6894C125.824 22.2425 125.672 21.6972 125.672 21.0536C125.672 19.8737 126.137 18.8816 127.067 18.0771C128.014 17.2726 129.337 16.8704 131.036 16.8704C132.609 16.8704 133.86 17.2369 134.79 17.9698C135.737 18.7028 136.3 19.7129 136.479 21H133.234C133.038 20.0168 132.296 19.5251 131.009 19.5251C130.365 19.5251 129.865 19.6503 129.507 19.9006C129.167 20.1508 128.998 20.4637 128.998 20.8391C128.998 21.2324 129.257 21.5452 129.775 21.7777C130.294 22.0101 130.982 22.2246 131.84 22.4212C132.77 22.6358 133.619 22.8771 134.387 23.1452C135.174 23.3955 135.8 23.7799 136.265 24.2983C136.729 24.7989 136.962 25.5229 136.962 26.4704C136.98 27.2927 136.765 28.0346 136.318 28.6961C135.871 29.3575 135.228 29.876 134.387 30.2514C133.547 30.6268 132.555 30.8145 131.411 30.8145Z" fill="#242A31"/>
<path d="M144.427 30.8145C143.247 30.8145 142.21 30.6268 141.316 30.2514C140.423 29.8581 139.707 29.3218 139.171 28.6424C138.635 27.9631 138.313 27.1765 138.206 26.2827H141.665C141.772 26.8011 142.058 27.248 142.523 27.6235C143.006 27.981 143.623 28.1598 144.373 28.1598C145.124 28.1598 145.669 28.0078 146.009 27.7039C146.367 27.4 146.545 27.0514 146.545 26.6581C146.545 26.086 146.295 25.7017 145.795 25.505C145.294 25.2905 144.597 25.0849 143.703 24.8883C143.131 24.7631 142.55 24.6112 141.96 24.4324C141.37 24.2536 140.825 24.0302 140.324 23.762C139.842 23.476 139.448 23.1184 139.144 22.6894C138.84 22.2425 138.688 21.6972 138.688 21.0536C138.688 19.8737 139.153 18.8816 140.083 18.0771C141.03 17.2726 142.353 16.8704 144.052 16.8704C145.625 16.8704 146.876 17.2369 147.806 17.9698C148.753 18.7028 149.316 19.7129 149.495 21H146.25C146.054 20.0168 145.312 19.5251 144.025 19.5251C143.381 19.5251 142.881 19.6503 142.523 19.9006C142.183 20.1508 142.014 20.4637 142.014 20.8391C142.014 21.2324 142.273 21.5452 142.791 21.7777C143.31 22.0101 143.998 22.2246 144.856 22.4212C145.786 22.6358 146.635 22.8771 147.404 23.1452C148.19 23.3955 148.816 23.7799 149.281 24.2983C149.745 24.7989 149.978 25.5229 149.978 26.4704C149.996 27.2927 149.781 28.0346 149.334 28.6961C148.887 29.3575 148.244 29.876 147.404 30.2514C146.563 30.6268 145.571 30.8145 144.427 30.8145Z" fill="#242A31"/>
</svg>
