<svg width="24" height="25" viewBox="0 0 24 25" fill="none" xmlns="http://www.w3.org/2000/svg">
<mask id="mask0_28_169" style="mask-type:alpha" maskUnits="userSpaceOnUse" x="2" y="3" width="20" height="19">
<path fill-rule="evenodd" clip-rule="evenodd" d="M2 4.83068C2 4.43285 2.15051 4.05132 2.41842 3.77002C2.68633 3.48871 3.04969 3.33068 3.42857 3.33068H20.5714C20.9503 3.33068 21.3137 3.48871 21.5816 3.77002C21.8495 4.05132 22 4.43285 22 4.83068C22 5.2285 21.8495 5.61003 21.5816 5.89134C21.3137 6.17264 20.9503 6.33068 20.5714 6.33068H3.42857C3.04969 6.33068 2.68633 6.17264 2.41842 5.89134C2.15051 5.61003 2 5.2285 2 4.83068ZM2 12.3307C2 11.9329 2.15051 11.5513 2.41842 11.27C2.68633 10.9887 3.04969 10.8307 3.42857 10.8307H20.5714C20.9503 10.8307 21.3137 10.9887 21.5816 11.27C21.8495 11.5513 22 11.9329 22 12.3307C22 12.7285 21.8495 13.11 21.5816 13.3913C21.3137 13.6726 20.9503 13.8307 20.5714 13.8307H3.42857C3.04969 13.8307 2.68633 13.6726 2.41842 13.3913C2.15051 13.11 2 12.7285 2 12.3307ZM2 19.8307C2 19.4329 2.15051 19.0513 2.41842 18.77C2.68633 18.4887 3.04969 18.3307 3.42857 18.3307H20.5714C20.9503 18.3307 21.3137 18.4887 21.5816 18.77C21.8495 19.0513 22 19.4329 22 19.8307C22 20.2285 21.8495 20.61 21.5816 20.8913C21.3137 21.1726 20.9503 21.3307 20.5714 21.3307H3.42857C3.04969 21.3307 2.68633 21.1726 2.41842 20.8913C2.15051 20.61 2 20.2285 2 19.8307Z" fill="#006FFD"/>
</mask>
<g mask="url(#mask0_28_169)">
<rect y="0.330677" width="24" height="24" fill="#2A3342"/>
</g>
</svg>
