<svg width="82" height="70" viewBox="0 0 82 70" fill="none" xmlns="http://www.w3.org/2000/svg">
<g opacity="0.8" clip-path="url(#clip0_24_292)">
<path fill-rule="evenodd" clip-rule="evenodd" d="M4.57838 18.72C4.45207 18.72 4.3275 18.727 4.20504 18.7407C3.9263 18.7718 3.67515 18.5707 3.64409 18.2915C3.61303 18.0124 3.81381 17.7608 4.09255 17.7297C4.25228 17.7119 4.4144 17.7028 4.57838 17.7028H5.08315C5.36362 17.7028 5.59098 17.9305 5.59098 18.2114C5.59098 18.4922 5.36362 18.72 5.08315 18.72H4.57838ZM7.09919 18.2114C7.09919 17.9305 7.32656 17.7028 7.60702 17.7028H8.61657C8.89703 17.7028 9.1244 17.9305 9.1244 18.2114C9.1244 18.4922 8.89703 18.72 8.61657 18.72H7.60702C7.32656 18.72 7.09919 18.4922 7.09919 18.2114ZM10.6326 18.2114C10.6326 17.9305 10.86 17.7028 11.1404 17.7028H12.15C12.4304 17.7028 12.6578 17.9305 12.6578 18.2114C12.6578 18.4922 12.4304 18.72 12.15 18.72H11.1404C10.86 18.72 10.6326 18.4922 10.6326 18.2114ZM14.166 18.2114C14.166 17.9305 14.3934 17.7028 14.6739 17.7028H15.6834C15.9639 17.7028 16.1912 17.9305 16.1912 18.2114C16.1912 18.4922 15.9639 18.72 15.6834 18.72H14.6739C14.3934 18.72 14.166 18.4922 14.166 18.2114ZM17.6994 18.2114C17.6994 17.9305 17.9268 17.7028 18.2073 17.7028H19.2168C19.4973 17.7028 19.7246 17.9305 19.7246 18.2114C19.7246 18.4922 19.4973 18.72 19.2168 18.72H18.2073C17.9268 18.72 17.6994 18.4922 17.6994 18.2114ZM21.2329 18.2114C21.2329 17.9305 21.4602 17.7028 21.7407 17.7028H22.7502C23.0307 17.7028 23.2581 17.9305 23.2581 18.2114C23.2581 18.4922 23.0307 18.72 22.7502 18.72H21.7407C21.4602 18.72 21.2329 18.4922 21.2329 18.2114ZM24.7663 18.2114C24.7663 17.9305 24.9936 17.7028 25.2741 17.7028H26.2836C26.5641 17.7028 26.7915 17.9305 26.7915 18.2114C26.7915 18.4922 26.5641 18.72 26.2836 18.72H25.2741C24.9936 18.72 24.7663 18.4922 24.7663 18.2114ZM28.2997 18.2114C28.2997 17.9305 28.527 17.7028 28.8075 17.7028H29.8171C30.0975 17.7028 30.3249 17.9305 30.3249 18.2114C30.3249 18.4922 30.0975 18.72 29.8171 18.72H28.8075C28.527 18.72 28.2997 18.4922 28.2997 18.2114ZM31.8331 18.2114C31.8331 17.9305 32.0605 17.7028 32.3409 17.7028H33.3505C33.6309 17.7028 33.8583 17.9305 33.8583 18.2114C33.8583 18.4922 33.6309 18.72 33.3505 18.72H32.3409C32.0605 18.72 31.8331 18.4922 31.8331 18.2114ZM35.3665 18.2114C35.3665 17.9305 35.5939 17.7028 35.8743 17.7028H36.8839C37.1643 17.7028 37.3917 17.9305 37.3917 18.2114C37.3917 18.4922 37.1643 18.72 36.8839 18.72H35.8743C35.5939 18.72 35.3665 18.4922 35.3665 18.2114ZM38.8999 18.2114C38.8999 17.9305 39.1273 17.7028 39.4078 17.7028H40.4173C40.6978 17.7028 40.9251 17.9305 40.9251 18.2114C40.9251 18.4922 40.6978 18.72 40.4173 18.72H39.4078C39.1273 18.72 38.8999 18.4922 38.8999 18.2114ZM42.4333 18.2114C42.4333 17.9305 42.6607 17.7028 42.9412 17.7028H43.9507C44.2312 17.7028 44.4585 17.9305 44.4585 18.2114C44.4585 18.4922 44.2312 18.72 43.9507 18.72H42.9412C42.6607 18.72 42.4333 18.4922 42.4333 18.2114ZM45.9668 18.2114C45.9668 17.9305 46.1941 17.7028 46.4746 17.7028H47.4841C47.7646 17.7028 47.992 17.9305 47.992 18.2114C47.992 18.4922 47.7646 18.72 47.4841 18.72H46.4746C46.1941 18.72 45.9668 18.4922 45.9668 18.2114ZM49.5002 18.2114C49.5002 17.9305 49.7275 17.7028 50.008 17.7028H51.0175C51.298 17.7028 51.5254 17.9305 51.5254 18.2114C51.5254 18.4922 51.298 18.72 51.0175 18.72H50.008C49.7275 18.72 49.5002 18.4922 49.5002 18.2114ZM53.0336 18.2114C53.0336 17.9305 53.2609 17.7028 53.5414 17.7028H54.551C54.8314 17.7028 55.0588 17.9305 55.0588 18.2114C55.0588 18.4922 54.8314 18.72 54.551 18.72H53.5414C53.2609 18.72 53.0336 18.4922 53.0336 18.2114ZM56.567 18.2114C56.567 17.9305 56.7944 17.7028 57.0748 17.7028H58.0844C58.3648 17.7028 58.5922 17.9305 58.5922 18.2114C58.5922 18.4922 58.3648 18.72 58.0844 18.72H57.0748C56.7944 18.72 56.567 18.4922 56.567 18.2114ZM60.1004 18.2114C60.1004 17.9305 60.3278 17.7028 60.6082 17.7028H61.6178C61.8982 17.7028 62.1256 17.9305 62.1256 18.2114C62.1256 18.4922 61.8982 18.72 61.6178 18.72H60.6082C60.3278 18.72 60.1004 18.4922 60.1004 18.2114ZM63.6338 18.2114C63.6338 17.9305 63.8612 17.7028 64.1416 17.7028H65.1512C65.4317 17.7028 65.659 17.9305 65.659 18.2114C65.659 18.4922 65.4317 18.72 65.1512 18.72H64.1416C63.8612 18.72 63.6338 18.4922 63.6338 18.2114ZM67.1672 18.2114C67.1672 17.9305 67.3946 17.7028 67.6751 17.7028H68.6846C68.9651 17.7028 69.1924 17.9305 69.1924 18.2114C69.1924 18.4922 68.9651 18.72 68.6846 18.72H67.6751C67.3946 18.72 67.1672 18.4922 67.1672 18.2114ZM70.7006 18.2114C70.7006 17.9305 70.928 17.7028 71.2085 17.7028H71.7133C71.8773 17.7028 72.0393 17.7118 72.1988 17.7295C72.4775 17.7604 72.6785 18.0118 72.6476 18.291C72.6167 18.5702 72.3657 18.7714 72.087 18.7405C71.9646 18.727 71.8399 18.72 71.7133 18.72H71.2085C70.928 18.72 70.7006 18.4922 70.7006 18.2114ZM73.708 18.7302C73.883 18.5108 74.2025 18.475 74.4217 18.6503C74.6758 18.8535 74.9063 19.0847 75.1088 19.3391C75.2836 19.5587 75.2476 19.8787 75.0283 20.0538C74.8091 20.2289 74.4895 20.1928 74.3147 19.9732C74.1594 19.7781 73.9826 19.6009 73.7878 19.4451C73.5687 19.2697 73.5329 18.9497 73.708 18.7302ZM2.58393 18.7312C2.75879 18.9508 2.72277 19.2708 2.50348 19.4459C2.30869 19.6015 2.13168 19.7785 1.97611 19.9736C1.80107 20.193 1.48152 20.2288 1.26238 20.0535C1.04324 19.8782 1.00749 19.5582 1.18253 19.3387C1.38549 19.0843 1.61632 18.8534 1.87027 18.6506C2.08956 18.4755 2.40908 18.5115 2.58393 18.7312ZM0.823809 21.1155C1.10257 21.1464 1.30352 21.3978 1.27265 21.677C1.25909 21.7996 1.25211 21.9244 1.25211 22.0513V22.5732C1.25211 22.8541 1.02474 23.0818 0.744278 23.0818C0.463813 23.0818 0.23645 22.8541 0.23645 22.5732V22.0513C0.23645 21.887 0.2455 21.7247 0.263163 21.565C0.294038 21.2858 0.545048 21.0846 0.823809 21.1155ZM75.4673 21.1156C75.7461 21.0845 75.9972 21.2855 76.0283 21.5647C76.0461 21.7247 76.0552 21.887 76.0552 22.0513V22.5732C76.0552 22.8541 75.8278 23.0818 75.5474 23.0818C75.2669 23.0818 75.0395 22.8541 75.0395 22.5732V22.0513C75.0395 21.9248 75.0325 21.8 75.0189 21.6774C74.9878 21.3982 75.1886 21.1467 75.4673 21.1156ZM75.5474 24.6742C75.8278 24.6742 76.0552 24.9019 76.0552 25.1828V26.2266C76.0552 26.5075 75.8278 26.7352 75.5474 26.7352C75.2669 26.7352 75.0395 26.5075 75.0395 26.2266V25.1828C75.0395 24.9019 75.2669 24.6742 75.5474 24.6742ZM0.744278 24.6742C1.02474 24.6742 1.25211 24.9019 1.25211 25.1828V26.2266C1.25211 26.5075 1.02474 26.7352 0.744278 26.7352C0.463813 26.7352 0.23645 26.5075 0.23645 26.2266V25.1828C0.23645 24.9019 0.463813 24.6742 0.744278 24.6742ZM75.5474 28.3276C75.8278 28.3276 76.0552 28.5553 76.0552 28.8362V29.88C76.0552 30.1609 75.8278 30.3886 75.5474 30.3886C75.2669 30.3886 75.0395 30.1609 75.0395 29.88V28.8362C75.0395 28.5553 75.2669 28.3276 75.5474 28.3276ZM0.744278 28.3276C1.02474 28.3276 1.25211 28.5553 1.25211 28.8362V29.88C1.25211 30.1609 1.02474 30.3886 0.744278 30.3886C0.463813 30.3886 0.23645 30.1609 0.23645 29.88V28.8362C0.23645 28.5553 0.463813 28.3276 0.744278 28.3276ZM75.5474 31.981C75.8278 31.981 76.0552 32.2087 76.0552 32.4896V33.5335C76.0552 33.8144 75.8278 34.0421 75.5474 34.0421C75.2669 34.0421 75.0395 33.8144 75.0395 33.5335V32.4896C75.0395 32.2087 75.2669 31.981 75.5474 31.981ZM0.744278 31.981C1.02474 31.981 1.25211 32.2087 1.25211 32.4896V33.5335C1.25211 33.8144 1.02474 34.0421 0.744278 34.0421C0.463813 34.0421 0.23645 33.8144 0.23645 33.5335V32.4896C0.23645 32.2087 0.463813 31.981 0.744278 31.981ZM75.5474 35.6345C75.8278 35.6345 76.0552 35.8622 76.0552 36.1431V37.1869C76.0552 37.4678 75.8278 37.6955 75.5474 37.6955C75.2669 37.6955 75.0395 37.4678 75.0395 37.1869V36.1431C75.0395 35.8622 75.2669 35.6345 75.5474 35.6345ZM0.744278 35.6345C1.02474 35.6345 1.25211 35.8622 1.25211 36.1431V37.1869C1.25211 37.4678 1.02474 37.6955 0.744278 37.6955C0.463813 37.6955 0.23645 37.4678 0.23645 37.1869V36.1431C0.23645 35.8622 0.463813 35.6345 0.744278 35.6345ZM75.5474 39.2879C75.8278 39.2879 76.0552 39.5156 76.0552 39.7965V40.8403C76.0552 41.1212 75.8278 41.3489 75.5474 41.3489C75.2669 41.3489 75.0395 41.1212 75.0395 40.8403V39.7965C75.0395 39.5156 75.2669 39.2879 75.5474 39.2879ZM0.744278 39.2879C1.02474 39.2879 1.25211 39.5156 1.25211 39.7965V40.8403C1.25211 41.1212 1.02474 41.3489 0.744278 41.3489C0.463813 41.3489 0.23645 41.1212 0.23645 40.8403V39.7965C0.23645 39.5156 0.463813 39.2879 0.744278 39.2879ZM75.5474 42.9413C75.8278 42.9413 76.0552 43.169 76.0552 43.4499V44.4937C76.0552 44.7746 75.8278 45.0023 75.5474 45.0023C75.2669 45.0023 75.0395 44.7746 75.0395 44.4937V43.4499C75.0395 43.169 75.2669 42.9413 75.5474 42.9413ZM0.744278 42.9413C1.02474 42.9413 1.25211 43.169 1.25211 43.4499V44.4937C1.25211 44.7746 1.02474 45.0023 0.744278 45.0023C0.463813 45.0023 0.23645 44.7746 0.23645 44.4937V43.4499C0.23645 43.169 0.463813 42.9413 0.744278 42.9413ZM75.5474 46.5947C75.8278 46.5947 76.0552 46.8224 76.0552 47.1033V48.1472C76.0552 48.4281 75.8278 48.6558 75.5474 48.6558C75.2669 48.6558 75.0395 48.4281 75.0395 48.1472V47.1033C75.0395 46.8224 75.2669 46.5947 75.5474 46.5947ZM0.744278 46.5947C1.02474 46.5947 1.25211 46.8224 1.25211 47.1033V48.1472C1.25211 48.4281 1.02474 48.6558 0.744278 48.6558C0.463813 48.6558 0.23645 48.4281 0.23645 48.1472V47.1033C0.23645 46.8224 0.463813 46.5947 0.744278 46.5947ZM75.5474 50.2482C75.8278 50.2482 76.0552 50.4759 76.0552 50.7568V51.8006C76.0552 52.0815 75.8278 52.3092 75.5474 52.3092C75.2669 52.3092 75.0395 52.0815 75.0395 51.8006V50.7568C75.0395 50.4759 75.2669 50.2482 75.5474 50.2482ZM0.744278 50.2482C1.02474 50.2482 1.25211 50.4759 1.25211 50.7568V51.8006C1.25211 52.0815 1.02474 52.3092 0.744278 52.3092C0.463813 52.3092 0.23645 52.0815 0.23645 51.8006V50.7568C0.23645 50.4759 0.463813 50.2482 0.744278 50.2482ZM75.5474 53.9016C75.8278 53.9016 76.0552 54.1293 76.0552 54.4102V55.454C76.0552 55.7349 75.8278 55.9626 75.5474 55.9626C75.2669 55.9626 75.0395 55.7349 75.0395 55.454V54.4102C75.0395 54.1293 75.2669 53.9016 75.5474 53.9016ZM0.744278 53.9016C1.02474 53.9016 1.25211 54.1293 1.25211 54.4102V55.454C1.25211 55.7349 1.02474 55.9626 0.744278 55.9626C0.463813 55.9626 0.23645 55.7349 0.23645 55.454V54.4102C0.23645 54.1293 0.463813 53.9016 0.744278 53.9016ZM75.5474 57.555C75.8278 57.555 76.0552 57.7827 76.0552 58.0636V59.1074C76.0552 59.3883 75.8278 59.616 75.5474 59.616C75.2669 59.616 75.0395 59.3883 75.0395 59.1074V58.0636C75.0395 57.7827 75.2669 57.555 75.5474 57.555ZM0.744278 57.555C1.02474 57.555 1.25211 57.7827 1.25211 58.0636V59.1074C1.25211 59.3883 1.02474 59.616 0.744278 59.616C0.463813 59.616 0.23645 59.3883 0.23645 59.1074V58.0636C0.23645 57.7827 0.463813 57.555 0.744278 57.555ZM75.5474 61.2084C75.8278 61.2084 76.0552 61.4361 76.0552 61.717V62.7609C76.0552 63.0418 75.8278 63.2695 75.5474 63.2695C75.2669 63.2695 75.0395 63.0418 75.0395 62.7609V61.717C75.0395 61.4361 75.2669 61.2084 75.5474 61.2084ZM0.744278 61.2084C1.02474 61.2084 1.25211 61.4361 1.25211 61.717V62.7609C1.25211 63.0418 1.02474 63.2695 0.744278 63.2695C0.463813 63.2695 0.23645 63.0418 0.23645 62.7609V61.717C0.23645 61.4361 0.463813 61.2084 0.744278 61.2084ZM75.5474 64.8619C75.8278 64.8619 76.0552 65.0896 76.0552 65.3705V65.8924C76.0552 66.0567 76.0461 66.2189 76.0285 66.3786C75.9976 66.6578 75.7466 66.8591 75.4678 66.8281C75.1891 66.7972 74.9881 66.5458 75.019 66.2666C75.0326 66.1441 75.0395 66.0192 75.0395 65.8924V65.3705C75.0395 65.0896 75.2669 64.8619 75.5474 64.8619ZM0.744278 64.8619C1.02474 64.8619 1.25211 65.0896 1.25211 65.3705V65.8924C1.25211 66.0189 1.25913 66.1436 1.27278 66.2663C1.30384 66.5454 1.10306 66.797 0.82432 66.8281C0.54558 66.8592 0.294434 66.6581 0.263369 66.3789C0.245568 66.219 0.23645 66.0566 0.23645 65.8924V65.3705C0.23645 65.0896 0.463813 64.8619 0.744278 64.8619ZM75.0293 67.8901C75.2484 68.0654 75.2841 68.3854 75.1091 68.6049C74.9061 68.8594 74.6753 69.0903 74.4214 69.2931C74.2021 69.4682 73.8826 69.4321 73.7077 69.2125C73.5328 68.9929 73.5689 68.6729 73.7882 68.4977C73.9829 68.3422 74.16 68.1651 74.3155 67.9701C74.4906 67.7506 74.8101 67.7148 75.0293 67.8901ZM1.26329 67.8898C1.48258 67.7147 1.80209 67.7508 1.97695 67.9704C2.13227 68.1655 2.30906 68.3428 2.50383 68.4986C2.72297 68.6739 2.75872 68.9939 2.58367 69.2134C2.40863 69.4329 2.08909 69.4687 1.86995 69.2934C1.61586 69.0901 1.38534 68.8589 1.18284 68.6046C1.00799 68.385 1.04401 68.065 1.26329 67.8898ZM72.6475 69.6521C72.6786 69.9313 72.4778 70.1828 72.1991 70.2139C72.0394 70.2318 71.8772 70.2409 71.7133 70.2409H71.2085C70.928 70.2409 70.7007 70.0132 70.7007 69.7323C70.7007 69.4514 70.928 69.2237 71.2085 69.2237H71.7133C71.8396 69.2237 71.9641 69.2167 72.0866 69.203C72.3653 69.1719 72.6165 69.373 72.6475 69.6521ZM3.64403 69.6526C3.67491 69.3735 3.92592 69.1722 4.20468 69.2031C4.32706 69.2167 4.45173 69.2237 4.57838 69.2237H5.08316C5.36363 69.2237 5.59099 69.4514 5.59099 69.7323C5.59099 70.0132 5.36363 70.2409 5.08316 70.2409H4.57838C4.41435 70.2409 4.25235 70.2318 4.09287 70.2141C3.81411 70.1832 3.61316 69.9318 3.64403 69.6526ZM7.0992 69.7323C7.0992 69.4514 7.32656 69.2237 7.60703 69.2237H8.61657C8.89704 69.2237 9.1244 69.4514 9.1244 69.7323C9.1244 70.0132 8.89704 70.2409 8.61657 70.2409H7.60703C7.32656 70.2409 7.0992 70.0132 7.0992 69.7323ZM10.6326 69.7323C10.6326 69.4514 10.86 69.2237 11.1404 69.2237H12.15C12.4305 69.2237 12.6578 69.4514 12.6578 69.7323C12.6578 70.0132 12.4305 70.2409 12.15 70.2409H11.1404C10.86 70.2409 10.6326 70.0132 10.6326 69.7323ZM14.166 69.7323C14.166 69.4514 14.3934 69.2237 14.6739 69.2237H15.6834C15.9639 69.2237 16.1912 69.4514 16.1912 69.7323C16.1912 70.0132 15.9639 70.2409 15.6834 70.2409H14.6739C14.3934 70.2409 14.166 70.0132 14.166 69.7323ZM17.6994 69.7323C17.6994 69.4514 17.9268 69.2237 18.2073 69.2237H19.2168C19.4973 69.2237 19.7246 69.4514 19.7246 69.7323C19.7246 70.0132 19.4973 70.2409 19.2168 70.2409H18.2073C17.9268 70.2409 17.6994 70.0132 17.6994 69.7323ZM21.2329 69.7323C21.2329 69.4514 21.4602 69.2237 21.7407 69.2237H22.7502C23.0307 69.2237 23.2581 69.4514 23.2581 69.7323C23.2581 70.0132 23.0307 70.2409 22.7502 70.2409H21.7407C21.4602 70.2409 21.2329 70.0132 21.2329 69.7323ZM24.7663 69.7323C24.7663 69.4514 24.9936 69.2237 25.2741 69.2237H26.2836C26.5641 69.2237 26.7915 69.4514 26.7915 69.7323C26.7915 70.0132 26.5641 70.2409 26.2836 70.2409H25.2741C24.9936 70.2409 24.7663 70.0132 24.7663 69.7323ZM28.2997 69.7323C28.2997 69.4514 28.527 69.2237 28.8075 69.2237H29.8171C30.0975 69.2237 30.3249 69.4514 30.3249 69.7323C30.3249 70.0132 30.0975 70.2409 29.8171 70.2409H28.8075C28.527 70.2409 28.2997 70.0132 28.2997 69.7323ZM31.8331 69.7323C31.8331 69.4514 32.0605 69.2237 32.3409 69.2237H33.3505C33.6309 69.2237 33.8583 69.4514 33.8583 69.7323C33.8583 70.0132 33.6309 70.2409 33.3505 70.2409H32.3409C32.0605 70.2409 31.8331 70.0132 31.8331 69.7323ZM35.3665 69.7323C35.3665 69.4514 35.5939 69.2237 35.8743 69.2237H36.8839C37.1643 69.2237 37.3917 69.4514 37.3917 69.7323C37.3917 70.0132 37.1643 70.2409 36.8839 70.2409H35.8743C35.5939 70.2409 35.3665 70.0132 35.3665 69.7323ZM38.8999 69.7323C38.8999 69.4514 39.1273 69.2237 39.4078 69.2237H40.4173C40.6978 69.2237 40.9251 69.4514 40.9251 69.7323C40.9251 70.0132 40.6978 70.2409 40.4173 70.2409H39.4078C39.1273 70.2409 38.8999 70.0132 38.8999 69.7323ZM42.4333 69.7323C42.4333 69.4514 42.6607 69.2237 42.9412 69.2237H43.9507C44.2312 69.2237 44.4585 69.4514 44.4585 69.7323C44.4585 70.0132 44.2312 70.2409 43.9507 70.2409H42.9412C42.6607 70.2409 42.4333 70.0132 42.4333 69.7323ZM45.9668 69.7323C45.9668 69.4514 46.1941 69.2237 46.4746 69.2237H47.4841C47.7646 69.2237 47.992 69.4514 47.992 69.7323C47.992 70.0132 47.7646 70.2409 47.4841 70.2409H46.4746C46.1941 70.2409 45.9668 70.0132 45.9668 69.7323ZM49.5002 69.7323C49.5002 69.4514 49.7275 69.2237 50.008 69.2237H51.0175C51.298 69.2237 51.5254 69.4514 51.5254 69.7323C51.5254 70.0132 51.298 70.2409 51.0175 70.2409H50.008C49.7275 70.2409 49.5002 70.0132 49.5002 69.7323ZM53.0336 69.7323C53.0336 69.4514 53.2609 69.2237 53.5414 69.2237H54.551C54.8314 69.2237 55.0588 69.4514 55.0588 69.7323C55.0588 70.0132 54.8314 70.2409 54.551 70.2409H53.5414C53.2609 70.2409 53.0336 70.0132 53.0336 69.7323ZM56.567 69.7323C56.567 69.4514 56.7944 69.2237 57.0748 69.2237H58.0844C58.3648 69.2237 58.5922 69.4514 58.5922 69.7323C58.5922 70.0132 58.3648 70.2409 58.0844 70.2409H57.0748C56.7944 70.2409 56.567 70.0132 56.567 69.7323ZM60.1004 69.7323C60.1004 69.4514 60.3278 69.2237 60.6082 69.2237H61.6178C61.8983 69.2237 62.1256 69.4514 62.1256 69.7323C62.1256 70.0132 61.8983 70.2409 61.6178 70.2409H60.6082C60.3278 70.2409 60.1004 70.0132 60.1004 69.7323ZM63.6338 69.7323C63.6338 69.4514 63.8612 69.2237 64.1417 69.2237H65.1512C65.4317 69.2237 65.659 69.4514 65.659 69.7323C65.659 70.0132 65.4317 70.2409 65.1512 70.2409H64.1417C63.8612 70.2409 63.6338 70.0132 63.6338 69.7323ZM67.1672 69.7323C67.1672 69.4514 67.3946 69.2237 67.6751 69.2237H68.6846C68.9651 69.2237 69.1924 69.4514 69.1924 69.7323C69.1924 70.0132 68.9651 70.2409 68.6846 70.2409H67.6751C67.3946 70.2409 67.1672 70.0132 67.1672 69.7323Z" fill="#999999"/>
<path d="M79.4831 52.3638L15.9538 53.737C14.3287 53.7624 13.0084 52.262 13.0084 50.3802V3.23324C13.0084 1.35143 14.3287 -0.0980696 15.9538 -0.02178L79.4831 4.45388C80.778 4.53017 81.8445 5.95424 81.8445 7.63261V49.2867C81.8191 50.9651 80.778 52.3383 79.4831 52.3638Z" fill="#FFD493"/>
<path opacity="0.6" d="M75.2426 31.588L56.5292 30.9268C55.4881 30.9268 54.6502 30.0876 54.6502 29.0195V9.74369C54.6502 8.70107 55.4881 7.88731 56.5292 7.93817L75.2426 9.13338C76.1821 9.18424 76.9439 10.0234 76.9439 11.0406V29.7824C76.9693 30.7742 76.1821 31.588 75.2426 31.588Z" fill="white"/>
<path d="M20.6767 20.2713C19.8388 20.2204 19.1278 20.8816 19.1278 21.7462V54.4745C19.1278 58.4924 20.8544 60.9082 23.3428 60.9082C25.8311 60.9082 49.4197 60.0945 51.0956 60.0945C48.6072 59.4842 48.0232 57.3481 48.0232 53.4827V23.2212C48.0232 22.4328 47.4138 21.7971 46.6521 21.7462L20.6767 20.2713Z" fill="#FFBE5C"/>
<path d="M44.0367 26.8325C45.0884 26.8325 45.941 25.9786 45.941 24.9253C45.941 23.872 45.0884 23.0181 44.0367 23.0181C42.9849 23.0181 42.1323 23.872 42.1323 24.9253C42.1323 25.9786 42.9849 26.8325 44.0367 26.8325Z" fill="#DCA553" fill-opacity="0.7"/>
<path d="M22.7332 25.5861C23.7849 25.5861 24.6375 24.7322 24.6375 23.6788C24.6375 22.6255 23.7849 21.7716 22.7332 21.7716C21.6814 21.7716 20.8288 22.6255 20.8288 23.6788C20.8288 24.7322 21.6814 25.5861 22.7332 25.5861Z" fill="#DCA553" fill-opacity="0.7"/>
<path d="M23.4949 25.5861C24.5467 25.5861 25.3993 24.7322 25.3993 23.6788C25.3993 22.6255 24.5467 21.7716 23.4949 21.7716C22.4432 21.7716 21.5906 22.6255 21.5906 23.6788C21.5906 24.7322 22.4432 25.5861 23.4949 25.5861Z" fill="#FFD493"/>
<path d="M44.7476 26.8325C45.7994 26.8325 46.652 25.9786 46.652 24.9253C46.652 23.872 45.7994 23.0181 44.7476 23.0181C43.6959 23.0181 42.8433 23.872 42.8433 24.9253C42.8433 25.9786 43.6959 26.8325 44.7476 26.8325Z" fill="#FFD493"/>
<path d="M27.2275 56.6359C27.2275 56.6359 26.1357 60.8319 23.3427 60.8827C28.167 60.8827 48.6833 60.3487 51.0955 60.069C53.5076 59.7892 53.8885 55.7205 53.8885 55.7205L27.2275 56.6359Z" fill="#FFD493"/>
<path fill-rule="evenodd" clip-rule="evenodd" d="M22.2256 30.7116C22.232 30.4308 22.4646 30.2084 22.745 30.2149L44.7593 30.7235C45.0397 30.7299 45.2618 30.9628 45.2553 31.2436C45.2488 31.5245 45.0163 31.7469 44.7359 31.7404L22.7215 31.2318C22.4411 31.2253 22.2191 30.9924 22.2256 30.7116ZM22.2254 36.5914C22.2287 36.3105 22.4586 36.0854 22.7391 36.0887L44.7534 36.343C45.0339 36.3462 45.2586 36.5765 45.2554 36.8574C45.2521 37.1383 45.0222 37.3633 44.7417 37.3601L22.7274 37.1058C22.4469 37.1025 22.2222 36.8722 22.2254 36.5914ZM45.2554 42.5928C45.2586 42.8737 45.0339 43.104 44.7534 43.1072L22.7391 43.3615C22.4586 43.3648 22.2287 43.1397 22.2254 42.8588C22.2222 42.578 22.4469 42.3477 22.7274 42.3444L44.7417 42.0901C45.0222 42.0869 45.2521 42.3119 45.2554 42.5928Z" fill="white"/>
<path d="M19.6481 5.26903C19.3684 5.248 19.1247 5.45801 19.1037 5.73811C19.0827 6.01822 19.2924 6.26233 19.5721 6.28337L47.2995 8.36862C47.5791 8.38965 47.8229 8.17964 47.8439 7.89953C47.8649 7.61943 47.6552 7.37531 47.3755 7.35428L19.6481 5.26903Z" fill="#DD7E10"/>
<path d="M19.6393 11.7272C19.3593 11.7111 19.1193 11.9253 19.1031 12.2057C19.0869 12.4861 19.3008 12.7266 19.5808 12.7427L47.3082 14.3448C47.5882 14.361 47.8283 14.1468 47.8445 13.8664C47.8606 13.5859 47.6467 13.3455 47.3667 13.3293L19.6393 11.7272Z" fill="#DD7E10"/>
<path d="M74.8363 20.6531C74.8363 15.796 71.0276 11.7273 66.3048 11.5238C61.5566 11.3204 57.6971 15.1094 57.6971 20.0174C57.6971 24.9254 61.5566 28.9941 66.3048 29.1467C71.0276 29.2993 74.8363 25.4848 74.8363 20.6531Z" fill="#FFBE5C"/>
<path d="M73.0844 15.2361C71.5356 13.0746 69.0726 11.6251 66.3049 11.4979V20.3221L73.0844 15.2361Z" fill="#FFD493"/>
<path d="M73.0844 15.2361L66.3049 20.3221L74.8364 20.6526C74.8364 18.6437 74.1763 16.7619 73.0844 15.2361V15.2361Z" fill="#FFBE5C"/>
<path d="M66.305 20.3221V11.4979C61.5568 11.2945 57.6973 15.0835 57.6973 19.9915L66.305 20.3221Z" fill="#FFBE5C"/>
</g>
<defs>
<clipPath id="clip0_24_292">
<rect width="82" height="70" fill="white"/>
</clipPath>
</defs>
</svg>
