<svg width="123" height="31" viewBox="0 0 123 31" fill="none" xmlns="http://www.w3.org/2000/svg">
<g clip-path="url(#clip0_6_307)">
<path opacity="0.7" d="M28.3114 2.34787C28.4881 2.41011 28.6421 2.52395 28.7534 2.67467C28.8648 2.82539 28.9283 3.00605 28.9359 3.19328C29.0319 4.19315 29.0728 5.19754 29.0585 6.2019C29.0479 6.66266 29.0373 7.1234 29.0067 7.58415C28.8334 7.51229 28.6696 7.44043 28.4952 7.3728C28.0556 7.19949 27.6255 7.0357 27.1848 6.88141C27.1954 6.64681 27.206 6.42171 27.206 6.18605C27.2155 5.43892 27.1954 4.68121 27.1341 3.914C26.4176 3.68891 25.6705 3.48389 24.9149 3.30002C23.9638 3.07493 23.0127 2.89 22.0489 2.75684C21.5068 2.68604 20.9848 2.62368 20.4839 2.57296C19.983 2.52224 19.4493 2.49159 18.9072 2.46728C18.4845 2.45672 18.0882 2.4472 17.6591 2.4472L17.0346 2.45672C16.8497 2.45672 16.6351 2.46728 16.41 2.46728C15.8679 2.48842 15.3459 2.52858 14.8334 2.57296C14.3208 2.61734 13.8104 2.68604 13.2683 2.75684C12.3172 2.89 11.3545 3.07387 10.4023 3.30002C9.6446 3.48389 8.90804 3.68891 8.18309 3.914C8.0584 5.59624 8.10303 7.28675 8.31627 8.96007C8.42943 9.89614 8.59346 10.8254 8.80766 11.7436C8.93025 12.2656 9.07397 12.7877 9.23037 13.2886L9.24095 13.3298L9.25044 13.371L9.26102 13.4122L9.28109 13.4524L9.29167 13.4936L9.3022 13.5348L9.31277 13.576L9.35292 13.688V13.6986L9.3635 13.7388L9.43538 13.9332L9.44487 13.9744L9.50725 14.1382L9.51675 14.1689C9.83284 15.0853 10.1987 15.9839 10.6126 16.8605L10.6327 16.8911L10.6433 16.9228L10.6528 16.9429L10.6739 16.9735L10.6834 17.0042L10.694 17.0348L10.7141 17.0549C10.8684 17.3719 11.0311 17.689 11.196 18.006C11.3186 18.211 11.4305 18.4287 11.5436 18.62C11.6767 18.856 11.7997 19.0607 11.9124 19.234C12.2601 19.7972 12.6279 20.3499 13.0178 20.8825C13.4078 21.4151 13.8051 21.9266 14.2458 22.4381C14.4099 22.6325 14.5942 22.8372 14.7985 23.0521C14.9929 23.2634 15.1768 23.4748 15.3512 23.6555C15.8013 24.1162 16.2716 24.5569 16.7429 24.986L16.9373 25.1498C16.8042 25.2554 16.6711 25.3611 16.5284 25.4668C16.1596 25.7426 15.7813 26.0089 15.4019 26.2752C13.357 24.4421 11.5977 22.3135 10.1825 19.96V19.9494L10.1719 19.9399L10.1614 19.9293C10.08 19.7962 10.0081 19.663 9.93626 19.551C9.81367 19.3259 9.68052 19.0998 9.5685 18.8852C9.23034 18.2713 8.92285 17.6372 8.62696 16.9714C8.33106 16.3057 8.07427 15.6515 7.83861 14.9963C7.50942 14.0702 7.2293 13.1273 6.99949 12.1716C6.30422 9.23125 6.09684 6.19665 6.38556 3.18906C6.39421 3.00154 6.45938 2.82104 6.57255 2.67128C6.68572 2.52152 6.84159 2.40951 7.01962 2.34998C7.99184 2.02239 8.98519 1.736 9.98806 1.48977C10.9709 1.26468 11.9832 1.06707 13.0178 0.917006C13.5462 0.845146 14.1021 0.783854 14.6854 0.733129C15.2487 0.681348 15.8014 0.64119 16.3435 0.620054C16.5485 0.620054 16.7662 0.609489 16.9986 0.609489L17.6644 0.599976L18.3292 0.609489C18.5648 0.609489 18.7899 0.620054 18.9843 0.620054C19.537 0.64119 20.0897 0.681348 20.653 0.733129C21.2363 0.783854 21.789 0.845146 22.311 0.917006C23.3541 1.07024 24.3675 1.26468 25.3503 1.48977C26.3437 1.736 27.336 2.01816 28.3188 2.34998L28.3114 2.34787ZM22.3131 20.8836C22.682 20.3615 23.0529 19.8268 23.3879 19.2762C23.5035 19.0686 23.6932 18.9122 23.919 18.8382C24.1448 18.7641 24.3902 18.7779 24.6063 18.8768C26.3848 19.7269 27.9993 20.8842 29.3755 22.2954C29.5365 22.4439 29.6401 22.6443 29.6682 22.8615C29.6962 23.0787 29.6469 23.2988 29.5288 23.4832C29.2424 23.9334 28.9254 24.4037 28.6083 24.8644C28.2913 25.3252 27.9426 25.7754 27.6054 26.2055C27.3592 26.5225 27.0929 26.8501 26.8065 27.1777C26.5613 27.4641 26.2845 27.7811 25.978 28.1193C25.5479 28.5906 25.1326 29.0196 24.7099 29.4392H24.6993C24.2904 29.8492 23.8539 30.2487 23.3995 30.6471C23.2655 30.7776 23.0954 30.8651 22.9111 30.898C22.7269 30.931 22.537 30.908 22.366 30.832C21.0188 30.2136 19.7218 29.4914 18.4866 28.672C18.6504 28.5494 18.8142 28.4268 18.978 28.2936C19.3256 28.0168 19.6744 27.741 20.0009 27.4482C20.8357 27.9788 21.7005 28.4604 22.5911 28.8907C22.8669 28.635 23.1332 28.3792 23.4101 28.1129C23.8391 27.6902 24.2386 27.2844 24.6074 26.8744C24.8525 26.6187 25.1083 26.3122 25.3957 25.9846C25.6409 25.6876 25.8967 25.3801 26.1429 25.0536C26.48 24.6436 26.7875 24.224 27.0844 23.7939C27.2482 23.5826 27.4015 23.3437 27.5547 23.1186C27.0941 22.677 26.6013 22.2701 26.0805 21.9012C25.5872 21.5435 25.0712 21.2184 24.5356 20.928C24.2999 21.2862 24.0547 21.6349 23.8085 21.9721C23.3794 22.566 22.9388 23.1186 22.4886 23.6513C22.2836 23.8859 22.0891 24.1014 21.9052 24.3065C21.8228 24.4121 21.7309 24.5009 21.6389 24.6024L21.6284 24.6129L21.6189 24.6235L21.6083 24.633L21.5977 24.6436L21.5882 24.6541L21.5776 24.6647L21.5671 24.6742L21.547 24.6953V24.7049C20.5697 25.7342 19.5198 26.692 18.4052 27.5708C16.721 28.864 14.8938 29.9597 12.9597 30.8362C12.7839 30.9151 12.588 30.9377 12.3989 30.901C12.2097 30.8643 12.0365 30.7701 11.9029 30.6312C11.4517 30.2423 11.0322 29.8429 10.6126 29.4434C10.1899 29.0344 9.77355 28.598 9.34451 28.1235C9.02748 27.7853 8.75162 27.4683 8.50539 27.1819C8.22957 26.8543 7.96329 26.5267 7.70755 26.2097C7.36938 25.7701 7.0418 25.3294 6.7142 24.8687C6.3866 24.4079 6.08014 23.9376 5.79376 23.4875C5.56761 23.1292 5.33297 22.7477 5.09731 22.3514C4.88596 21.9625 4.66721 21.5736 4.46325 21.189C4.198 20.6976 3.95179 20.1956 3.71613 19.6947C3.48047 19.1938 3.27652 18.6908 3.062 18.1687C2.67311 17.2177 2.33495 16.2454 2.038 15.2521C1.74105 14.2587 1.49588 13.2569 1.29826 12.2435C1.25979 12.0568 1.28055 11.8628 1.35765 11.6885C1.43476 11.5142 1.56435 11.3683 1.72835 11.2712C2.91993 10.4242 4.17564 9.67131 5.4841 9.01925C5.53483 9.51065 5.59716 9.99148 5.67853 10.4723C5.69861 10.6361 5.72926 10.7999 5.75991 10.9637C4.89126 11.418 4.0507 11.9241 3.2427 12.4791C3.4065 13.2463 3.60094 13.9935 3.81546 14.7205C4.09234 15.6621 4.41997 16.5825 4.77822 17.4681C4.97266 17.9489 5.17661 18.4298 5.4017 18.9106C5.62679 19.3914 5.85292 19.8617 6.09809 20.3129C6.29254 20.6923 6.49757 21.0527 6.70259 21.4183C6.90654 21.7565 7.12529 22.1147 7.35672 22.493C7.64416 22.9432 7.93052 23.3839 8.22747 23.7929C8.52442 24.2018 8.84147 24.6383 9.16907 25.0525C9.42481 25.3791 9.66999 25.6866 9.92573 25.9835C10.2026 26.3111 10.4689 26.6176 10.7035 26.8733C11.0829 27.2834 11.4813 27.6923 11.9114 28.1119C12.1777 28.3782 12.4546 28.6339 12.7198 28.8801C14.2598 28.1394 15.7207 27.2443 17.08 26.2086C19.0723 24.6978 20.8341 22.9051 22.31 20.8868L22.3131 20.8836ZM33.5825 11.267C33.746 11.3651 33.8756 11.5107 33.9542 11.6845C34.0327 11.8582 34.0564 12.0517 34.0222 12.2392C33.8172 13.2527 33.5719 14.2555 33.275 15.2478C32.978 16.2401 32.6409 17.2134 32.2616 18.1645C32.2231 18.2594 32.1676 18.3464 32.0977 18.4213C31.9372 18.6075 31.7098 18.7229 31.4648 18.7427C31.2197 18.7625 30.9768 18.685 30.7884 18.527C30.0969 17.925 29.3649 17.371 28.5978 16.8689C27.8439 16.3758 27.0572 15.9348 26.2433 15.549C26.0298 15.4527 25.86 15.2801 25.7673 15.065C25.6746 14.8499 25.6657 14.6079 25.7424 14.3866C26.0485 13.5253 26.3046 12.6471 26.5096 11.7563C26.6015 11.4086 26.6734 11.0599 26.7452 10.6995C26.9809 10.7914 27.206 10.8844 27.4417 10.9859C27.7893 11.1402 28.137 11.3029 28.4847 11.4678C28.4339 11.7129 28.379 11.9486 28.3209 12.1843C28.1581 12.8701 27.9732 13.5581 27.7587 14.2312C28.3928 14.5588 29.0173 14.9266 29.6207 15.3155C30.0814 15.623 30.5422 15.9495 30.9829 16.2877C31.1667 15.7762 31.3411 15.2542 31.4943 14.7226C31.7194 13.9956 31.9033 13.2432 32.0777 12.4812C30.7346 11.5629 29.3051 10.7778 27.8094 10.1373C26.8882 9.73917 25.9451 9.39375 24.9847 9.10273C24.107 8.83768 23.2151 8.62246 22.3131 8.4581C21.6791 8.34608 21.0239 8.25415 20.3581 8.18229C19.6924 8.11043 19.0382 8.06921 18.383 8.04913L18.0153 8.03857H17.2988L16.9405 8.04913C16.2853 8.06921 15.6196 8.11043 14.9644 8.18229C14.3092 8.25415 13.6445 8.34608 12.9999 8.4581C12.109 8.6219 11.2192 8.84699 10.3283 9.10273C9.99015 9.20841 9.65306 9.31409 9.31489 9.43034C9.28424 9.23589 9.25359 9.05201 9.23352 8.85756C9.17222 8.41795 9.12786 7.98784 9.10039 7.54717C11.8618 6.6342 14.7518 6.17036 17.6602 6.17337C21.2577 6.1783 24.8202 6.88026 28.1508 8.24041C30.0715 9.04076 31.8949 10.0572 33.5857 11.2702L33.5825 11.267ZM16.5305 19.3629C16.3773 19.1685 16.2441 18.9941 16.1215 18.8408C15.1477 17.5076 14.3207 16.073 13.6551 14.562C13.5631 14.358 13.4701 14.153 13.3888 13.948C13.3074 13.743 13.245 13.5697 13.1774 13.3752C13.1481 13.3077 13.1275 13.2367 13.1161 13.1639C13.0943 13.0435 13.0967 12.92 13.1231 12.8006C13.1495 12.6812 13.1994 12.5682 13.2699 12.4683C13.3405 12.3683 13.4302 12.2834 13.5339 12.2185C13.6375 12.1536 13.7531 12.11 13.8738 12.0902C14.0682 12.049 14.2965 12.0184 14.529 11.9845L15.1937 11.8915C15.6037 11.8514 16.0127 11.8207 16.4322 11.7859C16.8518 11.751 17.2776 11.7552 17.6612 11.7552C18.0448 11.7552 18.4591 11.7647 18.8987 11.7859C19.3214 11.8165 19.7283 11.8472 20.1278 11.8915L20.7924 11.9845C21.0387 12.0152 21.2532 12.0458 21.4582 12.0902C21.5105 12.0986 21.5618 12.1121 21.6114 12.1304C21.843 12.214 22.0322 12.3858 22.1378 12.6083C22.2433 12.8307 22.2565 13.0859 22.1747 13.3182C22.0923 13.5295 22.0109 13.7472 21.9285 13.9522C21.846 14.1573 21.7647 14.3623 21.6727 14.5662C21.3402 15.3193 20.9677 16.0541 20.5568 16.7675C20.1439 17.4859 19.6895 18.1796 19.1957 18.8451C19.0421 19.0487 18.9093 19.2227 18.7973 19.3671C18.6229 19.5785 18.4897 19.756 18.3746 19.8786C18.3385 19.9244 18.297 19.9655 18.2509 20.0012C18.158 20.0795 18.0504 20.1385 17.9344 20.1748C17.8184 20.2111 17.6963 20.2239 17.5753 20.2125C17.4543 20.201 17.3368 20.1656 17.2296 20.1083C17.1224 20.051 17.0278 19.9729 16.9511 19.8786C16.7979 19.7042 16.6647 19.5404 16.5284 19.3671L16.5305 19.3629Z" fill="#FFF7E6"/>
</g>
<g opacity="0.7">
<path d="M43.963 13.9043C44.6178 12.8858 45.7697 12.3766 47.4187 12.3766V14.5409C47.2247 14.5045 47.0489 14.4863 46.8913 14.4863C46.0061 14.4863 45.315 14.747 44.8179 15.2684C44.3207 15.7777 44.0722 16.5173 44.0722 17.4873V22.1979H41.7987V12.4857H43.963V13.9043Z" fill="#FFF7E6"/>
<path d="M58.3888 17.3964C58.3888 17.554 58.3767 17.7783 58.3524 18.0693H50.7317C50.8651 18.7847 51.2107 19.3546 51.7684 19.779C52.3383 20.1912 53.0416 20.3974 53.8782 20.3974C54.9452 20.3974 55.8243 20.0457 56.5154 19.3425L57.734 20.7429C57.2975 21.2643 56.7458 21.6584 56.0789 21.9251C55.412 22.1919 54.6603 22.3253 53.8237 22.3253C52.7566 22.3253 51.8169 22.1131 51.0045 21.6887C50.1922 21.2643 49.5617 20.6762 49.113 19.9245C48.6765 19.1606 48.4583 18.2997 48.4583 17.3418C48.4583 16.3961 48.6705 15.5473 49.0948 14.7955C49.5313 14.0316 50.1315 13.4375 50.8954 13.0131C51.6593 12.5888 52.5202 12.3766 53.4781 12.3766C54.4238 12.3766 55.2665 12.5888 56.0062 13.0131C56.7579 13.4254 57.34 14.0135 57.7522 14.7773C58.1766 15.5291 58.3888 16.4021 58.3888 17.3964ZM53.4781 14.1953C52.7506 14.1953 52.1322 14.4136 51.6229 14.8501C51.1258 15.2745 50.8227 15.8444 50.7135 16.5597H56.2244C56.1274 15.8565 55.8304 15.2866 55.3332 14.8501C54.8361 14.4136 54.2177 14.1953 53.4781 14.1953Z" fill="#FFF7E6"/>
<path d="M63.5736 22.3253C62.7854 22.3253 62.0155 22.2222 61.2637 22.0161C60.512 21.8099 59.9118 21.5493 59.4631 21.234L60.3361 19.5062C60.7727 19.7972 61.294 20.0336 61.9003 20.2155C62.5187 20.3852 63.1249 20.4701 63.7191 20.4701C65.0771 20.4701 65.7561 20.1124 65.7561 19.397C65.7561 19.0575 65.5803 18.8211 65.2287 18.6877C64.8891 18.5543 64.3375 18.427 63.5736 18.3058C62.7733 18.1845 62.1185 18.0451 61.6093 17.8875C61.1122 17.7298 60.6756 17.457 60.2998 17.069C59.936 16.6689 59.7541 16.1172 59.7541 15.4139C59.7541 14.4924 60.1361 13.7588 60.9 13.2132C61.676 12.6554 62.7187 12.3766 64.0283 12.3766C64.6951 12.3766 65.362 12.4554 66.0289 12.613C66.6958 12.7585 67.2414 12.9586 67.6658 13.2132L66.7928 14.941C65.9683 14.456 65.0407 14.2135 64.0101 14.2135C63.3432 14.2135 62.8339 14.3166 62.4823 14.5227C62.1428 14.7167 61.973 14.9774 61.973 15.3048C61.973 15.6685 62.1549 15.9292 62.5187 16.0869C62.8946 16.2324 63.4705 16.3718 64.2465 16.5052C65.0225 16.6264 65.6591 16.7659 66.1562 16.9235C66.6534 17.0811 67.0777 17.3479 67.4294 17.7238C67.7931 18.0996 67.975 18.6331 67.975 19.3243C67.975 20.2337 67.5809 20.9612 66.7928 21.5068C66.0047 22.0524 64.9316 22.3253 63.5736 22.3253Z" fill="#FFF7E6"/>
<path d="M79.0631 17.3964C79.0631 17.554 79.051 17.7783 79.0268 18.0693H71.4061C71.5395 18.7847 71.885 19.3546 72.4428 19.779C73.0127 20.1912 73.7159 20.3974 74.5526 20.3974C75.6196 20.3974 76.4987 20.0457 77.1898 19.3425L78.4084 20.7429C77.9719 21.2643 77.4202 21.6584 76.7533 21.9251C76.0864 22.1919 75.3346 22.3253 74.498 22.3253C73.431 22.3253 72.4913 22.1131 71.6789 21.6887C70.8665 21.2643 70.236 20.6762 69.7874 19.9245C69.3509 19.1606 69.1326 18.2997 69.1326 17.3418C69.1326 16.3961 69.3448 15.5473 69.7692 14.7955C70.2057 14.0316 70.8059 13.4375 71.5698 13.0131C72.3337 12.5888 73.1946 12.3766 74.1524 12.3766C75.0982 12.3766 75.9409 12.5888 76.6805 13.0131C77.4323 13.4254 78.0143 14.0135 78.4266 14.7773C78.8509 15.5291 79.0631 16.4021 79.0631 17.3964ZM74.1524 14.1953C73.4249 14.1953 72.8065 14.4136 72.2973 14.8501C71.8002 15.2745 71.497 15.8444 71.3879 16.5597H76.8988C76.8018 15.8565 76.5047 15.2866 76.0076 14.8501C75.5105 14.4136 74.8921 14.1953 74.1524 14.1953Z" fill="#FFF7E6"/>
<path d="M85.7029 22.3253C84.6966 22.3253 83.7932 22.1131 82.993 21.6887C82.1927 21.2643 81.5683 20.6762 81.1196 19.9245C80.671 19.1606 80.4467 18.2997 80.4467 17.3418C80.4467 16.3839 80.671 15.5291 81.1196 14.7773C81.5683 14.0256 82.1866 13.4375 82.9748 13.0131C83.775 12.5888 84.6844 12.3766 85.7029 12.3766C86.6608 12.3766 87.4975 12.5706 88.2129 12.9586C88.9404 13.3466 89.486 13.9043 89.8498 14.6318L88.1037 15.6504C87.8248 15.2017 87.4732 14.8683 87.0488 14.65C86.6366 14.4197 86.1819 14.3045 85.6848 14.3045C84.836 14.3045 84.1327 14.5833 83.575 15.1411C83.0172 15.6867 82.7383 16.4203 82.7383 17.3418C82.7383 18.2633 83.0112 19.003 83.5568 19.5607C84.1145 20.1064 84.8239 20.3792 85.6848 20.3792C86.1819 20.3792 86.6366 20.27 87.0488 20.0518C87.4732 19.8214 87.8248 19.4819 88.1037 19.0333L89.8498 20.0518C89.4739 20.7793 88.9222 21.3431 88.1947 21.7433C87.4793 22.1313 86.6487 22.3253 85.7029 22.3253Z" fill="#FFF7E6"/>
<path d="M101.218 12.4857V22.1979H99.0537V20.9612C98.69 21.3977 98.2353 21.7372 97.6897 21.9797C97.144 22.2101 96.556 22.3253 95.9255 22.3253C94.6281 22.3253 93.6035 21.9676 92.8517 21.2522C92.1121 20.5247 91.7423 19.4516 91.7423 18.033V12.4857H94.0157V17.7238C94.0157 18.5968 94.2097 19.2515 94.5977 19.688C94.9979 20.1124 95.5617 20.3246 96.2892 20.3246C97.1016 20.3246 97.7442 20.076 98.2171 19.5789C98.7021 19.0697 98.9446 18.3421 98.9446 17.3964V12.4857H101.218Z" fill="#FFF7E6"/>
<path d="M106.359 13.9043C107.014 12.8858 108.166 12.3766 109.815 12.3766V14.5409C109.621 14.5045 109.445 14.4863 109.287 14.4863C108.402 14.4863 107.711 14.747 107.214 15.2684C106.717 15.7777 106.468 16.5173 106.468 17.4873V22.1979H104.195V12.4857H106.359V13.9043Z" fill="#FFF7E6"/>
<path d="M117.127 12.3766C118.073 12.3766 118.915 12.5827 119.655 12.9949C120.407 13.4072 120.995 13.9892 121.419 14.741C121.844 15.4927 122.056 16.3597 122.056 17.3418C122.056 18.324 121.844 19.197 121.419 19.9609C120.995 20.7126 120.407 21.2946 119.655 21.7069C118.915 22.1191 118.073 22.3253 117.127 22.3253C116.46 22.3253 115.848 22.2101 115.29 21.9797C114.744 21.7493 114.284 21.4037 113.908 20.943V22.1979H111.743V8.70264H114.017V13.6679C114.405 13.2435 114.86 12.9222 115.381 12.7039C115.914 12.4857 116.496 12.3766 117.127 12.3766ZM116.872 20.3792C117.709 20.3792 118.394 20.1003 118.928 19.5425C119.473 18.9848 119.746 18.2512 119.746 17.3418C119.746 16.4324 119.473 15.6989 118.928 15.1411C118.394 14.5833 117.709 14.3045 116.872 14.3045C116.327 14.3045 115.836 14.4318 115.399 14.6864C114.963 14.9289 114.617 15.2805 114.362 15.7413C114.108 16.2021 113.98 16.7356 113.98 17.3418C113.98 17.9481 114.108 18.4816 114.362 18.9423C114.617 19.4031 114.963 19.7608 115.399 20.0154C115.836 20.2579 116.327 20.3792 116.872 20.3792Z" fill="#FFF7E6"/>
</g>
<defs>
<clipPath id="clip0_6_307">
<rect width="33.3442" height="30.3129" fill="white" transform="translate(0.900513 0.599976)"/>
</clipPath>
</defs>
</svg>
