<svg width="108" height="31" viewBox="0 0 108 31" fill="none" xmlns="http://www.w3.org/2000/svg">
<g opacity="0.7">
<path d="M36.9171 10.7063C36.9171 16.1626 42.7827 16.8992 42.7827 20.8278C42.7827 22.1919 42.1825 22.6829 41.2276 22.6829C40.2728 22.6829 39.6726 22.1919 39.6726 20.8278V19.4637H36.8353V20.6368C36.8353 23.6923 38.3631 25.4384 41.3095 25.4384C44.2559 25.4384 45.7837 23.6923 45.7837 20.6368C45.7837 15.1805 39.9181 14.4439 39.9181 10.5153C39.9181 9.15124 40.4638 8.63289 41.4186 8.63289C42.3735 8.63289 42.9191 9.15124 42.9191 10.5153V11.3065H45.7564V10.7063C45.7564 7.65075 44.2559 5.90472 41.3368 5.90472C38.4176 5.90472 36.9171 7.65075 36.9171 10.7063Z" fill="#FFF7E6"/>
<path d="M50.1266 25.2201H53.1275V18.8908L56.9197 6.12298H54.0551L51.7635 14.8258L49.4718 6.12298H46.3344L50.1266 18.8908V25.2201Z" fill="#FFF7E6"/>
<path d="M62.2801 6.12298L58.106 6.12298V25.2201H60.725V11.7157L62.9621 25.2201H65.7994L67.8728 11.5247V25.2201H70.7101V6.12298H66.536L64.4899 19.6819L62.2801 6.12298Z" fill="#FFF7E6"/>
<path d="M72.0201 8.85114H75.1575V25.2201H78.1584V8.85114H81.2958V6.12298H72.0201V8.85114Z" fill="#FFF7E6"/>
<path d="M91.9478 25.2201C91.6477 24.5108 91.6204 23.8288 91.6204 22.9012V19.9548C91.6204 17.9632 91.1293 16.5173 89.6289 15.8898C90.9657 15.2623 91.5931 13.9801 91.5931 12.0158V10.5153C91.5931 7.5689 90.2563 6.12298 87.1462 6.12298H82.6175V25.2201H85.6185V17.4449H86.6552C88.0193 17.4449 88.6194 18.0996 88.6194 19.8729V22.8739C88.6194 24.4289 88.7286 24.729 88.8923 25.2201H91.9478ZM87.0644 8.85114C88.1284 8.85114 88.5922 9.45134 88.5922 10.8154V12.6978C88.5922 14.2256 87.9101 14.7167 86.7916 14.7167H85.6185V8.85114H87.0644Z" fill="#FFF7E6"/>
<path d="M93.5941 25.2201H96.5951V6.12298H93.5941V25.2201Z" fill="#FFF7E6"/>
<path d="M104.655 18.0996V20.8278C104.655 22.1919 104.055 22.6829 103.1 22.6829C102.145 22.6829 101.545 22.1919 101.545 20.8278V10.5153C101.545 9.15124 102.145 8.63289 103.1 8.63289C104.055 8.63289 104.655 9.15124 104.655 10.5153V12.5614L107.492 12.5614V10.7063C107.492 7.65075 105.964 5.90472 103.018 5.90472C100.072 5.90472 98.5438 7.65075 98.5438 10.7063V20.6368C98.5438 23.6923 100.072 25.4384 103.018 25.4384C105.964 25.4384 107.492 23.6923 107.492 20.6368V18.0996H104.655Z" fill="#FFF7E6"/>
</g>
<g clip-path="url(#clip0_6_305)">
<path opacity="0.7" fill-rule="evenodd" clip-rule="evenodd" d="M10.7711 10.2108L9.13126 13.0459L7.57092 10.3393L9.20262 7.50419H20.6001L23.0201 3.30665L6.78056 3.30665L3.5804 8.85748C5.98104 13.0047 8.37797 17.152 10.7711 21.2992H15.6112C14.3955 19.195 13.1806 17.0911 11.9663 14.9876L11.6298 14.4053H22.7223L27.493 22.6657L22.7223 30.913H5.22027L0.498553 22.5862L2.86962 18.4682L4.44012 21.1738L3.59061 22.6556L6.79077 28.2064H21.1528L24.3632 22.6556L21.163 17.1047H16.323C17.3496 18.8928 18.3769 20.6805 19.4048 22.4679L19.5211 22.6525L18.741 24.0058H9.21078C6.32607 19.0175 3.4451 14.033 0.567869 9.05225L0.459763 8.85442L5.22027 0.593933L27.7194 0.593933L22.1726 10.2108H10.7711Z" fill="#FFF7E6"/>
</g>
<defs>
<clipPath id="clip0_6_305">
<rect width="27.2606" height="30.3129" fill="white" transform="translate(0.459793 0.599976)"/>
</clipPath>
</defs>
</svg>
