<svg width="70" height="88" viewBox="0 0 70 88" fill="none" xmlns="http://www.w3.org/2000/svg">
<g opacity="0.78" clip-path="url(#clip0_24_582)">
<path fill-rule="evenodd" clip-rule="evenodd" d="M6.5918 21.5737C6.4526 21.5737 6.31469 21.5789 6.17825 21.5891C5.88585 21.611 5.6312 21.3899 5.60946 21.0951C5.58772 20.8004 5.80714 20.5437 6.09954 20.5218C6.26214 20.5096 6.4263 20.5034 6.5918 20.5034H7.12612C7.41933 20.5034 7.65702 20.743 7.65702 21.0386C7.65702 21.3341 7.41933 21.5737 7.12612 21.5737H6.5918ZM9.26681 21.0386C9.26681 20.743 9.5045 20.5034 9.7977 20.5034H10.8663C11.1595 20.5034 11.3972 20.743 11.3972 21.0386C11.3972 21.3341 11.1595 21.5737 10.8663 21.5737H9.7977C9.5045 21.5737 9.26681 21.3341 9.26681 21.0386ZM13.007 21.0386C13.007 20.743 13.2447 20.5034 13.5379 20.5034H14.6066C14.8998 20.5034 15.1375 20.743 15.1375 21.0386C15.1375 21.3341 14.8998 21.5737 14.6066 21.5737H13.5379C13.2447 21.5737 13.007 21.3341 13.007 21.0386ZM16.7472 21.0386C16.7472 20.743 16.9849 20.5034 17.2781 20.5034H18.3468C18.64 20.5034 18.8777 20.743 18.8777 21.0386C18.8777 21.3341 18.64 21.5737 18.3468 21.5737H17.2781C16.9849 21.5737 16.7472 21.3341 16.7472 21.0386ZM20.4875 21.0386C20.4875 20.743 20.7251 20.5034 21.0184 20.5034H22.087C22.3802 20.5034 22.6179 20.743 22.6179 21.0386C22.6179 21.3341 22.3802 21.5737 22.087 21.5737H21.0184C20.7251 21.5737 20.4875 21.3341 20.4875 21.0386ZM24.2277 21.0386C24.2277 20.743 24.4654 20.5034 24.7586 20.5034H25.8272C26.1204 20.5034 26.3581 20.743 26.3581 21.0386C26.3581 21.3341 26.1204 21.5737 25.8272 21.5737H24.7586C24.4654 21.5737 24.2277 21.3341 24.2277 21.0386ZM27.9679 21.0386C27.9679 20.743 28.2056 20.5034 28.4988 20.5034H29.5674C29.8606 20.5034 30.0983 20.743 30.0983 21.0386C30.0983 21.3341 29.8606 21.5737 29.5674 21.5737H28.4988C28.2056 21.5737 27.9679 21.3341 27.9679 21.0386ZM31.7081 21.0386C31.7081 20.743 31.9458 20.5034 32.239 20.5034H33.3076C33.6008 20.5034 33.8385 20.743 33.8385 21.0386C33.8385 21.3341 33.6008 21.5737 33.3076 21.5737H32.239C31.9458 21.5737 31.7081 21.3341 31.7081 21.0386ZM35.4483 21.0386C35.4483 20.743 35.686 20.5034 35.9792 20.5034H37.0479C37.3411 20.5034 37.5788 20.743 37.5788 21.0386C37.5788 21.3341 37.3411 21.5737 37.0479 21.5737H35.9792C35.686 21.5737 35.4483 21.3341 35.4483 21.0386ZM39.1885 21.0386C39.1885 20.743 39.4262 20.5034 39.7194 20.5034H40.7881C41.0813 20.5034 41.319 20.743 41.319 21.0386C41.319 21.3341 41.0813 21.5737 40.7881 21.5737H39.7194C39.4262 21.5737 39.1885 21.3341 39.1885 21.0386ZM42.9288 21.0386C42.9288 20.743 43.1664 20.5034 43.4596 20.5034H43.994C44.1594 20.5034 44.3237 20.5096 44.4864 20.5219C44.7788 20.5439 44.9981 20.8007 44.9763 21.0954C44.9544 21.3901 44.6997 21.6112 44.4073 21.5892C44.2708 21.5789 44.133 21.5737 43.994 21.5737H43.4596C43.1664 21.5737 42.9288 21.3341 42.9288 21.0386ZM4.44288 21.4107C4.57055 21.6767 4.46007 21.9967 4.19612 22.1254C3.9471 22.2468 3.70836 22.3866 3.48161 22.5429C3.23959 22.7097 2.90921 22.6472 2.7437 22.4032C2.57819 22.1592 2.64022 21.8262 2.88225 21.6594C3.15225 21.4733 3.43677 21.3067 3.73378 21.1619C3.99774 21.0332 4.31521 21.1446 4.44288 21.4107ZM46.1427 21.4116C46.2704 21.1456 46.5879 21.0342 46.8518 21.1629C47.1486 21.3076 47.4331 21.474 47.7032 21.6601C47.9453 21.8268 48.0075 22.1598 47.8421 22.4038C47.6767 22.6479 47.3463 22.7105 47.1042 22.5438C46.8772 22.3875 46.6384 22.2478 46.3894 22.1264C46.1255 21.9977 46.015 21.6777 46.1427 21.4116ZM48.6973 23.2638C48.9391 23.0966 49.2696 23.1586 49.4355 23.4023C49.6206 23.6742 49.7863 23.9608 49.9303 24.26C50.0583 24.5259 49.9483 24.8461 49.6845 24.9751C49.4207 25.1041 49.1031 24.9932 48.9751 24.7273C48.8543 24.4766 48.7154 24.2362 48.56 24.0078C48.3941 23.7641 48.4556 23.431 48.6973 23.2638ZM1.88906 23.2638C2.13089 23.4309 2.19254 23.764 2.02674 24.0078C1.87129 24.2363 1.73237 24.4769 1.61167 24.7275C1.48364 24.9934 1.16602 25.1043 0.902238 24.9753C0.638459 24.8462 0.52841 24.5261 0.656438 24.2602C0.80038 23.9613 0.96592 23.6747 1.15099 23.4026C1.31678 23.1588 1.64722 23.0967 1.88906 23.2638ZM49.9986 26.1507C50.291 26.1288 50.5457 26.3499 50.5675 26.6446C50.5796 26.8085 50.5858 26.974 50.5858 27.1409V27.6948C50.5858 27.9903 50.3481 28.2299 50.0549 28.2299C49.7617 28.2299 49.524 27.9903 49.524 27.6948V27.1409C49.524 27.0006 49.5188 26.8617 49.5086 26.7242C49.4868 26.4295 49.7062 26.1727 49.9986 26.1507ZM0.587493 26.1508C0.87988 26.1729 1.09914 26.4297 1.07723 26.7244C1.06701 26.8619 1.0618 27.0008 1.0618 27.1409V27.6948C1.0618 27.9903 0.824106 28.2299 0.530899 28.2299C0.237692 28.2299 0 27.9903 0 27.6948V27.1409C0 26.9741 0.00620293 26.8085 0.0184012 26.6444C0.0403143 26.3497 0.295105 26.1287 0.587493 26.1508ZM0.530899 29.929C0.824106 29.929 1.0618 30.1686 1.0618 30.4641V31.5718C1.0618 31.8674 0.824106 32.107 0.530899 32.107C0.237692 32.107 0 31.8674 0 31.5718V30.4641C0 30.1686 0.237692 29.929 0.530899 29.929ZM50.0549 29.929C50.3481 29.929 50.5858 30.1686 50.5858 30.4641V31.5718C50.5858 31.8674 50.3481 32.107 50.0549 32.107C49.7617 32.107 49.524 31.8674 49.524 31.5718V30.4641C49.524 30.1686 49.7617 29.929 50.0549 29.929ZM0.530899 33.806C0.824106 33.806 1.0618 34.0456 1.0618 34.3412V35.4489C1.0618 35.7444 0.824106 35.984 0.530899 35.984C0.237692 35.984 0 35.7444 0 35.4489V34.3412C0 34.0456 0.237692 33.806 0.530899 33.806ZM50.0549 33.806C50.3481 33.806 50.5858 34.0456 50.5858 34.3412V35.4489C50.5858 35.7444 50.3481 35.984 50.0549 35.984C49.7617 35.984 49.524 35.7444 49.524 35.4489V34.3412C49.524 34.0456 49.7617 33.806 50.0549 33.806ZM0.530899 37.6831C0.824106 37.6831 1.0618 37.9227 1.0618 38.2182V39.326C1.0618 39.6215 0.824106 39.8611 0.530899 39.8611C0.237692 39.8611 0 39.6215 0 39.326V38.2182C0 37.9227 0.237692 37.6831 0.530899 37.6831ZM50.0549 37.6831C50.3481 37.6831 50.5858 37.9227 50.5858 38.2182V39.326C50.5858 39.6215 50.3481 39.8611 50.0549 39.8611C49.7617 39.8611 49.524 39.6215 49.524 39.326V38.2182C49.524 37.9227 49.7617 37.6831 50.0549 37.6831ZM0.530899 41.5602C0.824106 41.5602 1.0618 41.7997 1.0618 42.0953V43.203C1.0618 43.4986 0.824106 43.7382 0.530899 43.7382C0.237692 43.7382 0 43.4986 0 43.203V42.0953C0 41.7997 0.237692 41.5602 0.530899 41.5602ZM50.0549 41.5602C50.3481 41.5602 50.5858 41.7997 50.5858 42.0953V43.203C50.5858 43.4986 50.3481 43.7382 50.0549 43.7382C49.7617 43.7382 49.524 43.4986 49.524 43.203V42.0953C49.524 41.7997 49.7617 41.5602 50.0549 41.5602ZM50.0549 45.4372C50.3481 45.4372 50.5858 45.6768 50.5858 45.9723V47.0801C50.5858 47.3756 50.3481 47.6152 50.0549 47.6152C49.7617 47.6152 49.524 47.3756 49.524 47.0801V45.9723C49.524 45.6768 49.7617 45.4372 50.0549 45.4372ZM0.530899 45.4372C0.824106 45.4372 1.0618 45.6768 1.0618 45.9724V47.0801C1.0618 47.3756 0.824106 47.6152 0.530899 47.6152C0.237692 47.6152 0 47.3756 0 47.0801V45.9724C0 45.6768 0.237692 45.4372 0.530899 45.4372ZM50.0549 49.3143C50.3481 49.3143 50.5858 49.5539 50.5858 49.8494V50.9571C50.5858 51.2527 50.3481 51.4923 50.0549 51.4923C49.7617 51.4923 49.524 51.2527 49.524 50.9571V49.8494C49.524 49.5539 49.7617 49.3143 50.0549 49.3143ZM0.530899 49.3143C0.824106 49.3143 1.0618 49.5539 1.0618 49.8494V50.9571C1.0618 51.2527 0.824106 51.4923 0.530899 51.4923C0.237692 51.4923 0 51.2527 0 50.9571V49.8494C0 49.5539 0.237692 49.3143 0.530899 49.3143ZM50.0549 53.1913C50.3481 53.1913 50.5858 53.4309 50.5858 53.7265V54.8342C50.5858 55.1298 50.3481 55.3693 50.0549 55.3693C49.7617 55.3693 49.524 55.1298 49.524 54.8342V53.7265C49.524 53.4309 49.7617 53.1913 50.0549 53.1913ZM0.530899 53.1913C0.824106 53.1913 1.0618 53.4309 1.0618 53.7265V54.8342C1.0618 55.1298 0.824106 55.3693 0.530899 55.3693C0.237692 55.3693 0 55.1298 0 54.8342V53.7265C0 53.4309 0.237692 53.1913 0.530899 53.1913ZM0.530899 57.0684C0.824106 57.0684 1.0618 57.308 1.0618 57.6035V58.7113C1.0618 59.0068 0.824106 59.2464 0.530899 59.2464C0.237692 59.2464 0 59.0068 0 58.7113V57.6035C0 57.308 0.237692 57.0684 0.530899 57.0684ZM50.0549 57.0684C50.3481 57.0684 50.5858 57.308 50.5858 57.6035V58.7113C50.5858 59.0068 50.3481 59.2464 50.0549 59.2464C49.7617 59.2464 49.524 59.0068 49.524 58.7113V57.6035C49.524 57.308 49.7617 57.0684 50.0549 57.0684ZM50.0549 60.9455C50.3481 60.9455 50.5858 61.185 50.5858 61.4806V62.5883C50.5858 62.8839 50.3481 63.1235 50.0549 63.1235C49.7617 63.1235 49.524 62.8839 49.524 62.5883V61.4806C49.524 61.185 49.7617 60.9455 50.0549 60.9455ZM0.530899 60.9455C0.824106 60.9455 1.0618 61.1851 1.0618 61.4806V62.5883C1.0618 62.8839 0.824106 63.1235 0.530899 63.1235C0.237692 63.1235 0 62.8839 0 62.5883V61.4806C0 61.1851 0.237692 60.9455 0.530899 60.9455ZM50.0549 64.8225C50.3481 64.8225 50.5858 65.0621 50.5858 65.3577V66.4654C50.5858 66.7609 50.3481 67.0005 50.0549 67.0005C49.7617 67.0005 49.524 66.7609 49.524 66.4654V65.3577C49.524 65.0621 49.7617 64.8225 50.0549 64.8225ZM0.530899 64.8225C0.824106 64.8225 1.0618 65.0621 1.0618 65.3577V66.4654C1.0618 66.7609 0.824106 67.0005 0.530899 67.0005C0.237692 67.0005 0 66.7609 0 66.4654V65.3577C0 65.0621 0.237692 64.8225 0.530899 64.8225ZM0.530899 68.6996C0.824106 68.6996 1.0618 68.9392 1.0618 69.2347V70.3425C1.0618 70.638 0.824106 70.8776 0.530899 70.8776C0.237692 70.8776 0 70.638 0 70.3425V69.2347C0 68.9392 0.237692 68.6996 0.530899 68.6996ZM50.0549 68.6996C50.3481 68.6996 50.5858 68.9392 50.5858 69.2347V70.3425C50.5858 70.638 50.3481 70.8776 50.0549 70.8776C49.7617 70.8776 49.524 70.638 49.524 70.3425V69.2347C49.524 68.9392 49.7617 68.6996 50.0549 68.6996ZM0.530899 72.5766C0.824106 72.5766 1.0618 72.8162 1.0618 73.1118V74.2195C1.0618 74.5151 0.824106 74.7546 0.530899 74.7546C0.237692 74.7546 0 74.5151 0 74.2195V73.1118C0 72.8162 0.237692 72.5766 0.530899 72.5766ZM50.0549 72.5766C50.3481 72.5766 50.5858 72.8162 50.5858 73.1118V74.2195C50.5858 74.5151 50.3481 74.7546 50.0549 74.7546C49.7617 74.7546 49.524 74.5151 49.524 74.2195V73.1118C49.524 72.8162 49.7617 72.5766 50.0549 72.5766ZM0.530899 76.4537C0.824106 76.4537 1.0618 76.6933 1.0618 76.9888V78.0966C1.0618 78.3921 0.824106 78.6317 0.530899 78.6317C0.237692 78.6317 0 78.3921 0 78.0966V76.9888C0 76.6933 0.237692 76.4537 0.530899 76.4537ZM50.0549 76.4537C50.3481 76.4537 50.5858 76.6933 50.5858 76.9888V78.0966C50.5858 78.3921 50.3481 78.6317 50.0549 78.6317C49.7617 78.6317 49.524 78.3921 49.524 78.0966V76.9888C49.524 76.6933 49.7617 76.4537 50.0549 76.4537ZM0.530899 80.3308C0.824106 80.3308 1.0618 80.5704 1.0618 80.8659V81.4198C1.0618 81.56 1.06698 81.699 1.07716 81.8365C1.09897 82.1312 0.879615 82.388 0.587219 82.4099C0.294824 82.4319 0.0401109 82.2108 0.0183011 81.9161C0.00616983 81.7522 0 81.5866 0 81.4198V80.8659C0 80.5704 0.237692 80.3308 0.530899 80.3308ZM50.0549 80.3308C50.3481 80.3308 50.5858 80.5704 50.5858 80.8659V81.4198C50.5858 81.5866 50.5796 81.7522 50.5675 81.9161C50.5457 82.2108 50.291 82.4319 49.9986 82.4099C49.7062 82.388 49.4868 82.1312 49.5086 81.8365C49.5188 81.699 49.524 81.56 49.524 81.4198V80.8659C49.524 80.5704 49.7617 80.3308 50.0549 80.3308ZM0.901277 83.5856C1.16506 83.4565 1.48268 83.5675 1.6107 83.8334C1.73144 84.0841 1.87039 84.3245 2.02581 84.5528C2.19171 84.7965 2.1302 85.1296 1.88844 85.2969C1.64667 85.4641 1.3162 85.4021 1.15031 85.1584C0.965186 84.8864 0.799522 84.5999 0.655462 84.3007C0.52744 84.0348 0.637495 83.7146 0.901277 83.5856ZM49.6845 83.5856C49.9483 83.7146 50.0583 84.0348 49.9303 84.3007C49.7863 84.5999 49.6206 84.8864 49.4355 85.1584C49.2696 85.4021 48.9391 85.4641 48.6973 85.2969C48.4556 85.1296 48.3941 84.7965 48.56 84.5528C48.7154 84.3245 48.8543 84.0841 48.9751 83.8334C49.1031 83.5675 49.4207 83.4565 49.6845 83.5856ZM2.74369 86.1568C2.9091 85.9128 3.23945 85.8502 3.48154 86.0169C3.70853 86.1732 3.94739 86.3129 4.19633 86.4343C4.46028 86.563 4.57075 86.883 4.44308 87.149C4.3154 87.4151 3.99792 87.5265 3.73397 87.3978C3.43722 87.2531 3.15271 87.0866 2.88254 86.9006C2.64044 86.7339 2.57828 86.4009 2.74369 86.1568ZM47.8421 86.1568C48.0075 86.4009 47.9453 86.7339 47.7032 86.9006C47.4331 87.0866 47.1486 87.2531 46.8518 87.3978C46.5879 87.5265 46.2704 87.4151 46.1427 87.149C46.015 86.883 46.1255 86.563 46.3894 86.4343C46.6384 86.3129 46.8772 86.1732 47.1042 86.0169C47.3463 85.8502 47.6767 85.9128 47.8421 86.1568ZM5.60951 87.4653C5.63135 87.1705 5.88609 86.9495 6.17848 86.9715C6.31494 86.9818 6.45277 86.987 6.5918 86.987H7.12613C7.41933 86.987 7.65703 87.2266 7.65703 87.5221C7.65703 87.8177 7.41933 88.0573 7.12613 88.0573H6.5918C6.42633 88.0573 6.26211 88.051 6.09939 88.0388C5.807 88.0168 5.58767 87.76 5.60951 87.4653ZM44.9763 87.4653C44.9981 87.76 44.7788 88.0168 44.4864 88.0388C44.3237 88.051 44.1594 88.0573 43.994 88.0573H43.4597C43.1665 88.0573 42.9288 87.8177 42.9288 87.5221C42.9288 87.2266 43.1665 86.987 43.4597 86.987H43.994C44.133 86.987 44.2708 86.9818 44.4073 86.9715C44.6997 86.9495 44.9544 87.1705 44.9763 87.4653ZM9.26681 87.5221C9.26681 87.2266 9.5045 86.987 9.79771 86.987H10.8663C11.1595 86.987 11.3972 87.2266 11.3972 87.5221C11.3972 87.8177 11.1595 88.0573 10.8663 88.0573H9.79771C9.5045 88.0573 9.26681 87.8177 9.26681 87.5221ZM13.007 87.5221C13.007 87.2266 13.2447 86.987 13.5379 86.987H14.6066C14.8998 86.987 15.1375 87.2266 15.1375 87.5221C15.1375 87.8177 14.8998 88.0573 14.6066 88.0573H13.5379C13.2447 88.0573 13.007 87.8177 13.007 87.5221ZM16.7472 87.5221C16.7472 87.2266 16.9849 86.987 17.2781 86.987H18.3468C18.64 86.987 18.8777 87.2266 18.8777 87.5221C18.8777 87.8177 18.64 88.0573 18.3468 88.0573H17.2781C16.9849 88.0573 16.7472 87.8177 16.7472 87.5221ZM20.4875 87.5221C20.4875 87.2266 20.7252 86.987 21.0184 86.987H22.087C22.3802 86.987 22.6179 87.2266 22.6179 87.5221C22.6179 87.8177 22.3802 88.0573 22.087 88.0573H21.0184C20.7252 88.0573 20.4875 87.8177 20.4875 87.5221ZM24.2277 87.5221C24.2277 87.2266 24.4654 86.987 24.7586 86.987H25.8272C26.1204 86.987 26.3581 87.2266 26.3581 87.5221C26.3581 87.8177 26.1204 88.0573 25.8272 88.0573H24.7586C24.4654 88.0573 24.2277 87.8177 24.2277 87.5221ZM27.9679 87.5221C27.9679 87.2266 28.2056 86.987 28.4988 86.987H29.5674C29.8606 86.987 30.0983 87.2266 30.0983 87.5221C30.0983 87.8177 29.8606 88.0573 29.5674 88.0573H28.4988C28.2056 88.0573 27.9679 87.8177 27.9679 87.5221ZM31.7081 87.5221C31.7081 87.2266 31.9458 86.987 32.239 86.987H33.3076C33.6008 86.987 33.8385 87.2266 33.8385 87.5221C33.8385 87.8177 33.6008 88.0573 33.3076 88.0573H32.239C31.9458 88.0573 31.7081 87.8177 31.7081 87.5221ZM35.4483 87.5221C35.4483 87.2266 35.686 86.987 35.9792 86.987H37.0479C37.3411 86.987 37.5788 87.2266 37.5788 87.5221C37.5788 87.8177 37.3411 88.0573 37.0479 88.0573H35.9792C35.686 88.0573 35.4483 87.8177 35.4483 87.5221ZM39.1885 87.5221C39.1885 87.2266 39.4262 86.987 39.7194 86.987H40.7881C41.0813 86.987 41.319 87.2266 41.319 87.5221C41.319 87.8177 41.0813 88.0573 40.7881 88.0573H39.7194C39.4262 88.0573 39.1885 87.8177 39.1885 87.5221Z" fill="#999999"/>
<path d="M57.7372 11.778L24.1364 9.2621C22.6743 9.15504 19.7236 9.95798 17.1451 10.6806C14.5666 11.3765 12.6526 13.1162 12.6526 16.6759V66.2442C12.6526 69.6701 13.5032 71.0618 16.0286 71.7577L22.1693 72.7213C22.8604 72.9889 23.6313 73.1227 24.3757 73.0692C25.5985 73.0157 27.7783 72.9354 30.6492 72.8015C43.0369 72.293 60.0765 71.3027 60.6348 70.821C61.9107 69.7504 62.4956 67.7163 62.4956 65.7624V17.8C62.5221 14.6953 60.3689 11.9921 57.7372 11.778Z" fill="#FFBE5C"/>
<path d="M58.3752 71.5971L24.7744 73.0959C21.7439 73.2297 19.2186 70.58 19.2186 67.1809V14.9629C19.2186 11.5638 21.7174 8.99439 24.7744 9.20851L58.3752 11.7244C61.0069 11.9117 63.1601 14.6418 63.1601 17.7465V65.7088C63.1335 68.8403 61.0069 71.49 58.3752 71.5971Z" fill="#FFD493"/>
<path fill-rule="evenodd" clip-rule="evenodd" d="M39.0535 35.8612C39.2655 33.9099 40.8462 32.442 42.6959 32.7414C42.6989 32.7418 42.7019 32.7424 42.7049 32.7429C44.5128 33.0679 45.717 34.9425 45.5052 36.8618C45.2941 38.7747 43.7486 40.2816 41.8896 39.9807C40.0751 39.6871 38.842 37.8078 39.0535 35.8612ZM42.523 33.7974C41.3969 33.618 40.269 34.505 40.109 35.9777C39.9483 37.457 40.8951 38.7358 42.0579 38.924C43.1761 39.1049 44.2889 38.203 44.4499 36.7435C44.6101 35.2924 43.6903 34.0101 42.523 33.7974ZM47.5708 42.6289C47.0031 41.9361 46.101 41.8644 45.4934 42.4188C44.8361 43.0185 44.6502 44.1359 45.1236 45.0025L45.1243 45.0037L50.4143 54.746L50.4161 54.7494C51.2191 56.2541 52.8884 56.5249 54.0259 55.468C55.1953 54.3565 55.3235 52.2662 54.2927 50.9483L47.5718 42.6301C47.5715 42.6297 47.5711 42.6293 47.5708 42.6289ZM44.7808 41.6253C45.8741 40.6277 47.47 40.8233 48.3911 41.9493L48.3931 41.9518L48.3931 41.9518L55.1186 50.2756L55.1234 50.2817C56.4821 52.0145 56.3444 54.7381 54.7518 56.2491L54.7481 56.2526C53.0683 57.8162 50.593 57.3377 49.482 55.2583C49.4817 55.2577 49.4814 55.2571 49.481 55.2565L44.1935 45.5187C44.1934 45.5185 44.1933 45.5183 44.1932 45.5181C43.4973 44.2436 43.7369 42.5778 44.7808 41.6253Z" fill="#DD7E10"/>
<path fill-rule="evenodd" clip-rule="evenodd" d="M24.167 33.4535C25.3897 22.1002 34.5593 14.4184 44.4164 16.3922L44.4172 16.3924C53.88 18.3034 60.3609 28.4476 59.3023 39.0782C58.8666 43.5178 57.1779 47.4468 54.6889 50.4485C54.5009 50.6753 54.166 50.7055 53.9411 50.5159C53.7161 50.3264 53.6862 49.9889 53.8742 49.7622C56.2231 46.9294 57.8306 43.204 58.2457 38.9721L58.2458 38.9713C59.2607 28.7791 53.0351 19.2246 44.2091 17.4419C35.0862 15.6154 26.3924 22.7076 25.2226 33.5687M24.167 33.4535L24.1669 33.4537ZM24.1669 33.4537C22.9459 44.8462 30.2148 55.2517 40.2085 56.4713ZM40.3362 55.4088C43.5166 55.7961 46.5683 55.1254 49.2132 53.6517C49.4698 53.5087 49.7928 53.6025 49.9347 53.8612C50.0765 54.1198 49.9835 54.4454 49.7269 54.5884C46.8957 56.1659 43.6207 56.8869 40.2087 56.4713L40.2085 56.4713M40.3362 55.4088C31.0308 54.2732 24.0513 44.4982 25.2226 33.569Z" fill="#DD7E10"/>
<path d="M58.3752 11.7244L51.3839 11.1891V17.8C51.3839 18.4423 51.9156 19.0044 52.5536 19.0312L57.2056 19.2453C59.0398 19.3791 59.1993 20.9314 59.5715 21.9485C59.6512 22.1894 59.9968 22.1894 60.0499 21.9485C60.3158 20.985 60.6879 19.4059 62.1234 19.4862L63.1336 19.5397V17.7464C63.1336 14.6417 61.0069 11.9385 58.3752 11.7244Z" fill="#DCA553"/>
<path d="M68.8755 1.5266L54.2815 0.00100961C53.6435 -0.0257551 53.1119 0.482775 53.1119 1.15189V15.2837C53.1119 15.926 53.6435 16.4881 54.2815 16.5148L58.9335 16.729C60.7678 16.8628 60.9273 18.4151 61.2994 19.4322C61.3792 19.6731 61.7247 19.6731 61.7779 19.4322C62.0437 18.4687 62.4159 16.8895 63.8514 16.9698L68.8755 17.2107C69.5135 17.2375 70.0452 16.729 70.0452 16.0598V2.75778C70.0452 2.11542 69.5135 1.55336 68.8755 1.5266Z" fill="#FFBE5C"/>
<path fill-rule="evenodd" clip-rule="evenodd" d="M61.7778 4.47095C62.071 4.47095 62.3087 4.71054 62.3087 5.00608V8.04095L65.0864 8.24605C65.3788 8.26764 65.5985 8.52409 65.5771 8.81885C65.5557 9.11361 65.3012 9.33505 65.0088 9.31346L62.3087 9.11409V12.3396C62.3087 12.6352 62.071 12.8748 61.7778 12.8748C61.4846 12.8748 61.2469 12.6352 61.2469 12.3396V9.03568L58.1238 8.80508C57.8314 8.78349 57.6117 8.52704 57.6332 8.23228C57.6546 7.93752 57.909 7.71608 58.2014 7.73767L61.2469 7.96255V5.00608C61.2469 4.71054 61.4846 4.47095 61.7778 4.47095Z" fill="white"/>
</g>
<defs>
<clipPath id="clip0_24_582">
<rect width="70" height="88" fill="white"/>
</clipPath>
</defs>
</svg>
