<svg width="129" height="31" viewBox="0 0 129 31" fill="none" xmlns="http://www.w3.org/2000/svg">
<g clip-path="url(#clip0_6_308)">
<path opacity="0.7" fill-rule="evenodd" clip-rule="evenodd" d="M3.18174 28.9762L5.83987 27.4522L6.9071 26.8398L7.95487 26.2357L9.59883 25.2936L12.2098 23.8028L14.8234 25.2936L16.4646 26.2357L17.5123 26.8398L18.5824 27.4522L21.1848 28.9541L21.9762 29.403L22.748 29.8436L24.314 30.7414V16.3156L21.1848 14.5172V25.3823L19.0671 24.163L15.9463 22.3785L14.7565 21.6858L13.7758 21.1316V3.21707H10.6465V21.5583L8.4731 22.808L5.3551 24.6064L3.18174 25.845V14.5394L0.0635986 16.3266L0.0635986 30.7635L1.61845 29.8657L2.39873 29.4251L3.18174 28.9762ZM19.0644 21.6747V-0.0194702L15.9435 -0.0194702V19.8902L19.0644 21.6747ZM8.47596 20.3058V6.45083H5.35782V22.1042L8.47596 20.3058Z" fill="#FFF7E6"/>
</g>
<g opacity="0.7">
<path d="M37.535 22.1979H40.2606L42.773 13.5497H42.8764L45.3953 22.1979H48.1208L51.9056 8.97046H48.8507L46.6612 18.1806H46.5449L44.1358 8.97046H41.52L39.1045 18.1612H38.9947L36.8052 8.97046H33.7502L37.535 22.1979Z" fill="#FFF7E6"/>
<path d="M53.4024 22.1979H62.3413V19.8921H56.1991V16.7338H61.8569V14.4281H56.1991V11.2762H62.3155V8.97046H53.4024V22.1979Z" fill="#FFF7E6"/>
<path d="M64.5389 22.1979H73.0063V19.8921H67.3355V8.97046H64.5389V22.1979Z" fill="#FFF7E6"/>
<path d="M72.3959 8.97046L77.2206 17.5218V22.1979H79.9978V17.5218L84.8225 8.97046H81.69L78.6738 14.667H78.5446L75.5284 8.97046H72.3959Z" fill="#FFF7E6"/>
<path d="M86.681 11.2762H90.7306V22.1979H93.4949V11.2762H97.5446V8.97046L86.681 8.97046V11.2762Z" fill="#FFF7E6"/>
<path d="M102.13 8.97046H99.3336V22.1979H102.13V8.97046Z" fill="#FFF7E6"/>
<path d="M116.102 13.6014C115.734 10.5464 113.422 8.78961 110.36 8.78961C106.866 8.78961 104.199 11.2568 104.199 15.5842C104.199 19.8986 106.821 22.3788 110.36 22.3788C113.751 22.3788 115.799 20.1247 116.102 17.6897L113.273 17.6768C113.008 19.0913 111.897 19.9051 110.405 19.9051C108.397 19.9051 107.034 18.4131 107.034 15.5842C107.034 12.8328 108.377 11.2633 110.425 11.2633C111.956 11.2633 113.06 12.1481 113.273 13.6014H116.102Z" fill="#FFF7E6"/>
<path d="M125.283 12.7746H127.964C127.925 10.4172 125.987 8.78961 123.042 8.78961C120.142 8.78961 118.017 10.3914 118.03 12.794C118.024 14.7446 119.399 15.8619 121.634 16.398L123.074 16.7597C124.515 17.1084 125.315 17.5218 125.322 18.4131C125.315 19.3819 124.398 20.0407 122.977 20.0407C121.524 20.0407 120.478 19.369 120.387 18.045H117.681C117.752 20.9062 119.8 22.3852 123.01 22.3852C126.239 22.3852 128.138 20.8416 128.144 18.4196C128.138 16.2171 126.478 15.0481 124.179 14.5314L122.99 14.2472C121.841 13.9824 120.878 13.5561 120.898 12.6067C120.898 11.7542 121.653 11.1277 123.023 11.1277C124.36 11.1277 125.18 11.7348 125.283 12.7746Z" fill="#FFF7E6"/>
</g>
<defs>
<clipPath id="clip0_6_308">
<rect width="24.2503" height="30.3129" fill="white" transform="translate(0.0636597 0.599976)"/>
</clipPath>
</defs>
</svg>
