<svg width="128" height="34" viewBox="0 0 128 34" fill="none" xmlns="http://www.w3.org/2000/svg">
<g clip-path="url(#clip0_6_306)">
<path opacity="0.7" fill-rule="evenodd" clip-rule="evenodd" d="M19.1999 32.7931C22.8086 32.3718 26.1696 30.7449 28.7386 28.1758C31.3077 25.6067 32.9346 22.2458 33.3559 18.6371H27.2909C26.9083 20.6399 25.9321 22.4813 24.4892 23.9219C23.0462 25.3625 21.2033 26.3357 19.1999 26.715V32.7931Z" fill="#FFF7E6"/>
<path opacity="0.7" fill-rule="evenodd" clip-rule="evenodd" d="M24.5873 2.3393L24.6255 2.31431C28.5499 0.0593507 31.7232 -0.603743 33.2006 0.875006C37.3803 5.05339 25.5937 18.0503 22.1021 21.542C20.0023 23.6479 17.777 25.625 15.4385 27.4622V32.7892C13.5584 32.5757 11.7316 32.0277 10.0445 31.1709L10.0063 31.1959C6.08188 33.4509 2.90997 34.114 1.43123 32.6431C-0.594819 30.6171 1.77587 25.9532 2.89677 24.0285C2.04536 22.3392 1.49764 20.5134 1.27859 18.6345H7.35669C7.62247 20.0452 8.18471 21.3834 9.00615 22.5607C9.82759 23.738 10.8896 24.7275 12.1219 25.4638C11.4206 25.973 10.7076 26.4571 9.96819 26.911C8.88544 27.5991 7.76456 28.249 6.60419 28.8344C5.69606 28.0302 4.88379 27.1239 4.18348 26.1335C2.95996 28.491 2.55212 30.2237 3.20204 30.8697C5.99245 33.6324 18.5434 22.1038 20.6076 20.0396C22.8052 17.8448 24.8608 15.5123 26.762 13.0563C26.1355 11.4553 25.1122 10.0399 23.7882 8.94325C22.4641 7.84661 20.8829 7.10474 19.1933 6.7874V0.709238C21.0738 0.920808 22.9009 1.46894 24.5873 2.32745V2.3393ZM30.4483 7.37284C31.6718 5.01526 32.0797 3.2826 31.4298 2.63663C30.7799 1.99066 29.0617 2.40772 26.7028 3.63124C28.153 4.66038 29.4192 5.92664 30.4483 7.37679V7.37284Z" fill="#FFF7E6"/>
<path opacity="0.7" fill-rule="evenodd" clip-rule="evenodd" d="M15.4412 0.72113C11.8323 1.14273 8.47139 2.76987 5.90233 5.33917C3.33326 7.90847 1.70642 11.2696 1.28516 14.8785H7.36331C7.74069 12.8754 8.71348 11.0328 10.1546 9.59146C11.5958 8.15009 13.4382 7.17696 15.4412 6.79926V0.72113Z" fill="#FFF7E6"/>
</g>
<g opacity="0.7">
<path d="M61.5084 20.6166C61.5084 21.3192 61.3742 21.9823 61.1059 22.6059C60.8453 23.2217 60.4822 23.7624 60.0165 24.2281C59.5586 24.686 59.0179 25.0491 58.3943 25.3175C57.7785 25.578 57.1194 25.7083 56.4168 25.7083C55.7853 25.7083 55.1775 25.5977 54.5933 25.3767C54.017 25.1557 53.496 24.832 53.0303 24.4058C52.5646 24.832 52.0396 25.1557 51.4554 25.3767C50.8713 25.5977 50.2635 25.7083 49.6319 25.7083C48.9294 25.7083 48.2663 25.578 47.6427 25.3175C47.0269 25.0491 46.4862 24.686 46.0204 24.2281C45.5626 23.7624 45.1995 23.2217 44.9311 22.6059C44.6706 21.9823 44.5403 21.3192 44.5403 20.6166V8.49147H47.9387V20.6166C47.9387 20.8535 47.9821 21.0784 48.0689 21.2916C48.1558 21.4968 48.2742 21.6784 48.4242 21.8363C48.582 21.9862 48.7636 22.1047 48.9688 22.1915C49.1741 22.2783 49.3951 22.3217 49.6319 22.3217C49.8688 22.3217 50.0898 22.2783 50.295 22.1915C50.5003 22.1047 50.6779 21.9862 50.8279 21.8363C50.9858 21.6784 51.1081 21.4968 51.1949 21.2916C51.2818 21.0784 51.3252 20.8535 51.3252 20.6166V8.49147H54.7236V20.6166C54.7236 20.8535 54.767 21.0784 54.8538 21.2916C54.9406 21.4968 55.0591 21.6784 55.209 21.8363C55.3669 21.9862 55.5485 22.1047 55.7537 22.1915C55.959 22.2783 56.18 22.3217 56.4168 22.3217C56.6536 22.3217 56.8747 22.2783 57.0799 22.1915C57.2852 22.1047 57.4628 21.9862 57.6128 21.8363C57.7706 21.6784 57.893 21.4968 57.9798 21.2916C58.0746 21.0784 58.1219 20.8535 58.1219 20.6166V8.49147H61.5084V20.6166Z" fill="#FFF7E6"/>
<path d="M68.021 9.34402C68.021 9.644 67.9618 9.92423 67.8434 10.1847C67.7329 10.4452 67.5789 10.6742 67.3816 10.8715C67.1842 11.061 66.9513 11.2149 66.683 11.3333C66.4225 11.4438 66.1422 11.4991 65.8422 11.4991C65.5423 11.4991 65.2581 11.4438 64.9897 11.3333C64.7292 11.2149 64.5003 11.061 64.3029 10.8715C64.1135 10.6742 63.9595 10.4452 63.8411 10.1847C63.7306 9.92423 63.6753 9.644 63.6753 9.34402C63.6753 9.05195 63.7306 8.77566 63.8411 8.51516C63.9595 8.24676 64.1135 8.01783 64.3029 7.82838C64.5003 7.63103 64.7292 7.4771 64.9897 7.36658C65.2581 7.24817 65.5423 7.18896 65.8422 7.18896C66.1422 7.18896 66.4225 7.24817 66.683 7.36658C66.9513 7.4771 67.1842 7.63103 67.3816 7.82838C67.5789 8.01783 67.7329 8.24676 67.8434 8.51516C67.9618 8.77566 68.021 9.05195 68.021 9.34402ZM67.4645 25.4714H64.2082V12.7898H67.4645V25.4714Z" fill="#FFF7E6"/>
<path d="M76.9017 25.4714H69.5129V22.2507H76.9017C77.1228 22.2507 77.3122 22.1718 77.4701 22.0139C77.628 21.856 77.7069 21.6665 77.7069 21.4455C77.7069 21.2166 77.628 21.0666 77.4701 20.9956C77.3122 20.9245 77.1228 20.889 76.9017 20.889H73.5389C72.9784 20.889 72.4535 20.7824 71.964 20.5693C71.4746 20.3561 71.0483 20.068 70.6852 19.7049C70.3221 19.3339 70.034 18.9036 69.8208 18.4142C69.6156 17.9248 69.5129 17.3998 69.5129 16.8394C69.5129 16.2789 69.6156 15.7539 69.8208 15.2645C70.034 14.7751 70.3221 14.3488 70.6852 13.9857C71.0483 13.6226 71.4746 13.3384 71.964 13.1331C72.4535 12.92 72.9784 12.8134 73.5389 12.8134H80.0869V16.0342H73.5389C73.3179 16.0342 73.1284 16.1131 72.9705 16.271C72.8126 16.4289 72.7337 16.6183 72.7337 16.8394C72.7337 17.0683 72.8126 17.2656 72.9705 17.4314C73.1284 17.5893 73.3179 17.6682 73.5389 17.6682H76.9017C77.4543 17.6682 77.9753 17.763 78.4647 17.9524C78.9542 18.134 79.3804 18.3905 79.7436 18.7221C80.1067 19.0536 80.3948 19.4523 80.608 19.918C80.8211 20.3838 80.9277 20.8929 80.9277 21.4455C80.9277 22.006 80.8211 22.5309 80.608 23.0204C80.3948 23.5019 80.1067 23.9282 79.7436 24.2992C79.3804 24.6623 78.9542 24.9504 78.4647 25.1636C77.9753 25.3688 77.4543 25.4714 76.9017 25.4714Z" fill="#FFF7E6"/>
<path d="M85.889 25.4714H82.6564V7.74549H85.889V13.3463C86.2758 13.0542 86.6745 12.849 87.085 12.7305C87.4955 12.6042 87.9138 12.5411 88.3401 12.5411C89.1216 12.5411 89.8558 12.6911 90.5425 12.991C91.2293 13.2831 91.8253 13.6897 92.3305 14.2107C92.8436 14.7238 93.2462 15.3277 93.5383 16.0223C93.8383 16.7091 93.9883 17.4433 93.9883 18.2248V25.4714H90.732V18.2248H90.7557C90.7557 17.8932 90.6925 17.5814 90.5662 17.2893C90.4399 16.9894 90.2662 16.7289 90.0452 16.5078C89.8242 16.2868 89.5676 16.1131 89.2755 15.9868C88.9835 15.8605 88.6717 15.7974 88.3401 15.7974C88.0007 15.7974 87.681 15.8605 87.381 15.9868C87.081 16.1131 86.8205 16.2868 86.5995 16.5078C86.3785 16.7289 86.2048 16.9894 86.0785 17.2893C85.9522 17.5814 85.889 17.8932 85.889 18.2248V25.4714Z" fill="#FFF7E6"/>
<path d="M101.342 22.3691C101.468 22.4086 101.594 22.4362 101.72 22.452C101.847 22.4599 101.973 22.4638 102.099 22.4638C102.415 22.4638 102.719 22.4204 103.011 22.3336C103.303 22.2467 103.576 22.1244 103.828 21.9665C104.089 21.8007 104.318 21.6034 104.515 21.3745C104.72 21.1376 104.886 20.8771 105.012 20.593L107.38 22.973C107.08 23.3993 106.733 23.7821 106.338 24.1216C105.952 24.461 105.529 24.7491 105.071 24.986C104.621 25.2228 104.144 25.4004 103.639 25.5188C103.141 25.6451 102.628 25.7083 102.099 25.7083C101.207 25.7083 100.367 25.5425 99.5772 25.2109C98.7957 24.8794 98.1089 24.4176 97.5169 23.8255C96.9327 23.2335 96.4709 22.5309 96.1315 21.7179C95.792 20.8969 95.6223 19.997 95.6223 19.0181C95.6223 18.0156 95.792 17.0999 96.1315 16.271C96.4709 15.4421 96.9327 14.7356 97.5169 14.1515C98.1089 13.5673 98.7957 13.1134 99.5772 12.7898C100.367 12.4661 101.207 12.3043 102.099 12.3043C102.628 12.3043 103.145 12.3674 103.651 12.4937C104.156 12.62 104.633 12.8016 105.083 13.0384C105.541 13.2752 105.967 13.5673 106.362 13.9146C106.757 14.2541 107.104 14.6369 107.404 15.0632L101.342 22.3691ZM102.999 15.7026C102.849 15.6474 102.699 15.6119 102.549 15.5961C102.407 15.5803 102.257 15.5724 102.099 15.5724C101.657 15.5724 101.239 15.6553 100.844 15.821C100.457 15.9789 100.118 16.2078 99.8259 16.5078C99.5417 16.8078 99.3167 17.1709 99.1509 17.5972C98.9852 18.0156 98.9023 18.4892 98.9023 19.0181C98.9023 19.1365 98.9062 19.2707 98.9141 19.4207C98.9299 19.5707 98.9496 19.7246 98.9733 19.8825C99.0049 20.0325 99.0404 20.1785 99.0799 20.3206C99.1194 20.4627 99.1707 20.589 99.2338 20.6995L102.999 15.7026Z" fill="#FFF7E6"/>
<path d="M112.294 25.4714H109.038V7.74549H112.294V25.4714Z" fill="#FFF7E6"/>
<path d="M118.025 30.3026H114.769V12.7898H115.551L116.841 14.3172C117.133 14.0409 117.453 13.7804 117.8 13.5357C118.148 13.291 118.507 13.0818 118.878 12.9082C119.257 12.7266 119.648 12.5845 120.05 12.4819C120.453 12.3793 120.859 12.328 121.27 12.328C122.162 12.328 122.999 12.4898 123.78 12.8134C124.57 13.1292 125.256 13.5791 125.841 14.1633C126.433 14.7475 126.898 15.454 127.238 16.2828C127.577 17.1038 127.747 18.0156 127.747 19.0181C127.747 20.0601 127.577 20.9995 127.238 21.8363C126.898 22.6651 126.433 23.3716 125.841 23.9558C125.256 24.5321 124.57 24.9741 123.78 25.282C122.999 25.5899 122.162 25.7438 121.27 25.7438C120.986 25.7438 120.702 25.7122 120.417 25.6491C120.141 25.5859 119.865 25.503 119.588 25.4004C119.32 25.2899 119.052 25.1675 118.783 25.0333C118.523 24.8991 118.27 24.761 118.025 24.6189V30.3026ZM124.502 19.0181C124.502 18.4813 124.416 17.9998 124.242 17.5735C124.076 17.1472 123.847 16.7881 123.555 16.496C123.263 16.196 122.92 15.9671 122.525 15.8092C122.13 15.6513 121.712 15.5724 121.27 15.5724C120.828 15.5724 120.409 15.6513 120.015 15.8092C119.628 15.9671 119.288 16.196 118.996 16.496C118.704 16.7881 118.471 17.1472 118.298 17.5735C118.132 17.9998 118.049 18.4813 118.049 19.0181C118.049 19.5312 118.132 20.0009 118.298 20.4272C118.471 20.8535 118.704 21.2166 118.996 21.5166C119.288 21.8165 119.628 22.0494 120.015 22.2152C120.409 22.3809 120.828 22.4638 121.27 22.4638C121.712 22.4638 122.13 22.3809 122.525 22.2152C122.92 22.0494 123.263 21.8165 123.555 21.5166C123.847 21.2166 124.076 20.8535 124.242 20.4272C124.416 20.0009 124.502 19.5312 124.502 19.0181Z" fill="#FFF7E6"/>
</g>
<defs>
<clipPath id="clip0_6_306">
<rect width="33.4429" height="33.3442" fill="white" transform="translate(0.645782 0.0843506)"/>
</clipPath>
</defs>
</svg>
